<?xml version="1.0" encoding="utf-8"?>
<!-- Generator: Adobe Illustrator 24.0.1, SVG Export Plug-In . SVG Version: 6.00 Build 0)  -->
<svg version="1.1" id="圖層_1" xmlns="http://www.w3.org/2000/svg" xmlns:xlink="http://www.w3.org/1999/xlink" x="0px" y="0px"
	 viewBox="0 0 200 200" style="enable-background:new 0 0 200 200;" xml:space="preserve">
<style type="text/css">
	.st0{fill:#0064A9;}
	.st1{fill:#4D4D4D;}
</style>
<g>
	<path class="st0" d="M128.7,55H31.6c-1.2,0-2.2,1-2.2,2.2c0,1.2,1,2.2,2.2,2.2h97.1c0.1,0,0.1,0,0.2,0c0.6-1.1,1.2-2.1,1.9-3.1
		C130.4,55.5,129.6,55,128.7,55z M31.6,69.8c-1.2,0-2.2,1-2.2,2.2c0,1.2,1,2.2,2.2,2.2h92.8l0.3-0.3c-0.1-0.6-0.2-1.1-0.2-1.7
		c0-0.8,0.2-1.7,0.4-2.5H31.6z M42.1,39.6h76.1c2.5,0,4.5-2,4.5-4.5c0-2.5-2-4.5-4.5-4.5H42.1c-2.5,0-4.5,2-4.5,4.5
		C37.6,37.6,39.6,39.6,42.1,39.6z M29.4,101.6c0,1.2,1,2.2,2.2,2.2H95c1.1-1.2,2.2-2.4,3.3-3.5l1-1H31.6
		C30.4,99.4,29.4,100.4,29.4,101.6z M29.4,86.8c0,1.2,1,2.2,2.2,2.2h78l4.5-4.5H31.6C30.4,84.6,29.4,85.6,29.4,86.8z M29.4,116.5
		c0,1.2,1,2.2,2.2,2.2h51.8c1-1.5,2.1-3,3.2-4.5H31.6C30.4,114.2,29.4,115.2,29.4,116.5z"/>
	<path class="st1" d="M149.1,102.1L149.1,102.1l-2.3,2.3v71.2c0,5.5-4.4,9.9-9.9,9.9l-113.7,0c-5.4,0-9.9-4.5-9.9-10V25.2
		c0-5.5,4.4-9.9,9.9-9.9l113.7,0c5.4,0,9.9,4.5,9.9,10v13c2.6-2.2,5.6-4.5,9-6.6v-6.5c0-10.4-8.4-18.9-18.8-18.9l-113.7,0
		C13,6.3,4.5,14.8,4.5,25.2v150.3c0,10.4,8.4,18.9,18.8,18.9h0l113.7,0c10.4,0,18.8-8.5,18.8-18.9V95.4L149.1,102.1z"/>
	<path class="st1" d="M103.1,105.1c-19.3,19.3-25.5,38.6-24.1,40.1l0.7,0.7c1.5,1.4,20.9-4.9,40.1-24.1l18.8-18.8l-16.7-16.7
		L103.1,105.1z M193.9,31.1c-4.6-4.6-12.1-4.6-16.7,0l-2.8,2.8c-1-0.5-2.1-0.8-3.3-0.8c-7.7,0-18.6,8.4-25.5,15.6
		c-6.6,6.8-13.8,16.7-14.1,23.9c0,0.4,0.2,0.7,0.5,0.9c0.1,0.1,0.2,0.1,0.4,0.1c0.2,0,0.5-0.1,0.6-0.3l2.7-3
		c1.5-5.3,6.2-12.4,12.7-19c8.2-8.5,17.6-14.4,22.7-14.4c0.1,0,0.2,0,0.4,0l-46.2,46.2l16.7,16.7l52-52
		C198.5,43.2,198.5,35.7,193.9,31.1z"/>
</g>
</svg>
