<?xml version="1.0" encoding="utf-8"?>
<!-- Generator: Adobe Illustrator 24.0.1, SVG Export Plug-In . SVG Version: 6.00 Build 0)  -->
<svg version="1.1" id="圖層_1" xmlns="http://www.w3.org/2000/svg" xmlns:xlink="http://www.w3.org/1999/xlink" x="0px" y="0px"
	 viewBox="0 0 200 200" style="enable-background:new 0 0 200 200;" xml:space="preserve">
<style type="text/css">
	.st0{fill:#FFFFFF;}
	.st1{fill:#4D4D4D;}
	.st2{fill:#0064A9;}
</style>
<g>
	<polygon class="st0" points="96.9,126.7 96.9,169.6 109.2,160.4 121.4,169.6 121.4,126.7 	"/>
	<path class="st1" d="M121.4,172.6c-0.6,0-1.3-0.2-1.8-0.6l-10.4-7.8L98.8,172c-0.9,0.7-2.2,0.8-3.2,0.3s-1.7-1.6-1.7-2.7v-42.9
		c0-1.7,1.4-3.1,3.1-3.1h24.5c1.7,0,3.1,1.4,3.1,3.1v42.9c0,1.2-0.7,2.2-1.7,2.7C122.4,172.5,121.9,172.6,121.4,172.6z M109.2,157.3
		c0.6,0,1.3,0.2,1.8,0.6l7.4,5.5v-33.7H100v33.7l7.4-5.5C107.9,157.5,108.5,157.3,109.2,157.3z"/>
</g>
<path class="st1" d="M173.5,62.4h-147c-0.5,0-1,0.2-1.4,0.4c-5.1,0.2-9.8,2.6-13.8,6.9c-6.9,7.6-10.3,20-9,33.3
	c1.7,17.5,10.5,26.3,18.9,32.6c0.5,0.4,1.2,0.6,1.8,0.6l0,0l144.5-0.4c0.6,0,1.2-0.2,1.6-0.5c6.9-4.4,11.1-11.7,13-17.8h3.6
	c0.8,0,1.6-0.3,2.2-0.9c4.6-4.8,10-13.2,10-26.6C198,69.6,185.3,62.4,173.5,62.4z M166.6,129.7L24,130.1
	c-7.4-5.7-14.3-13.1-15.7-27.7C7.2,91,10.1,80.1,15.7,73.8c2-2.2,5.4-4.9,10-4.9c9.2,0,18.5,8.4,18.5,24.5c0,5.5-1,18.4-10.7,18.4
	l0,0c-4.5,0-9.2-4.7-9.2-12.4c0-4,1-7.2,1.9-9.4h12.4c1.7,0,3.1-1.4,3.1-3.1s-1.4-3.1-3.1-3.1H24.4c-1.1,0-2.2,0.6-2.7,1.6
	c-1.6,2.9-3.4,7.6-3.4,13.9c0,10.1,5.9,16.7,12.4,18.2c0.4,0.2,0.9,0.3,1.3,0.3l0,0h1.5l0,0l0,0l142.1-0.3
	C174,121.8,171,126.5,166.6,129.7z M184.4,111.4h-3.6c-0.1,0-0.2-0.1-0.3-0.1c-0.6-0.1-1.1,0-1.6,0.1l-133.3,0.3
	c3.1-4.2,4.7-10.5,4.7-18.4c0-11.5-4-19.8-9.8-24.9h132.8c5.5,0,18.4,2.1,18.4,21.4C191.9,100.4,188,107.3,184.4,111.4z"/>
<g>
	<path class="st0" d="M93.9,59.3H81.6l-3.1,3.1c10.4,5.3,15.3,18.4,15.3,36.8h24.5C118.4,77.7,110.4,59.3,93.9,59.3z"/>
	<path class="st1" d="M121.4,102.2H90.8v-3.1c0-12.3-2.4-28.3-13.6-34l-3.7-1.9l6.9-6.9h13.5c16.7,0,27.6,16.8,27.6,42.9v3H121.4z
		 M96.9,96.1h18.4c-0.6-16.2-6.5-33.7-21.4-33.7h-9.7C92,68.7,96.4,80.2,96.9,96.1z"/>
</g>
<g>
	<path class="st0" d="M109.2,85.2L109.2,85.2c6.2-9.3,20.7-3.3,18.5,7.7l0,0l0,0c10.9-2.2,16.9,12.3,7.7,18.5l0,0l0,0
		c9.3,6.2,3.3,20.7-7.7,18.5l0,0l0,0c2.2,10.9-12.3,16.9-18.5,7.7l0,0l0,0c-6.2,9.3-20.7,3.3-18.5-7.7l0,0l0,0
		c-10.9,2.2-16.9-12.3-7.7-18.5l0,0l0,0c-9.3-6.2-3.3-20.7,7.7-18.5l0,0l0,0C88.5,81.9,103,75.9,109.2,85.2L109.2,85.2z"/>
	<path class="st2" d="M100.9,145.2c-1.9,0-3.7-0.4-5.3-1c-4.1-1.7-7.8-5.6-8.2-11c-5.4-0.4-9.3-4.1-11-8.2c-1.7-4.1-1.5-9.5,2-13.6
		c-3.5-4.1-3.7-9.5-2-13.6s5.6-7.8,11-8.2c0.4-5.4,4.1-9.3,8.2-11s9.5-1.5,13.6,2c4.1-3.5,9.5-3.7,13.6-2s7.8,5.6,8.2,11
		c5.4,0.4,9.3,4.1,11,8.2s1.5,9.5-2,13.6c3.5,4.1,3.7,9.5,2,13.6s-5.6,7.8-11,8.2c-0.4,5.4-4.1,9.3-8.2,11s-9.5,1.5-13.6-2
		C106.7,144.3,103.7,145.2,100.9,145.2z M90.7,126.8c0.8,0,1.6,0.3,2.2,0.9c0.7,0.7,1,1.8,0.8,2.8c-0.8,4.2,1.8,7,4.3,8
		s6.3,1,8.7-2.6c1.1-1.7,3.9-1.7,5.1,0c2.4,3.6,6.2,3.7,8.7,2.6c2.5-1,5.1-3.7,4.3-8c-0.2-1,0.1-2,0.8-2.8c0.7-0.7,1.8-1,2.8-0.8
		c4.3,0.8,7-1.8,8-4.3s1-6.3-2.6-8.7c-0.8-0.6-1.4-1.5-1.4-2.5s0.5-2,1.4-2.5c3.6-2.4,3.7-6.2,2.6-8.7c-1-2.5-3.8-5.1-8-4.3
		c-1,0.2-2-0.1-2.8-0.8c-0.7-0.7-1-1.8-0.8-2.8c0.8-4.2-1.8-7-4.3-8s-6.3-1-8.7,2.6c-1.1,1.7-3.9,1.7-5.1,0
		c-2.4-3.6-6.2-3.7-8.7-2.6c-2.5,1-5.1,3.7-4.3,8c0.2,1-0.1,2-0.8,2.8c-0.7,0.7-1.8,1-2.8,0.8c-4.2-0.8-7,1.8-8,4.3s-1,6.3,2.6,8.7
		c0.8,0.6,1.4,1.5,1.4,2.5s-0.5,2-1.4,2.5c-3.6,2.4-3.7,6.2-2.6,8.7c1,2.5,3.7,5.1,8,4.3C90.3,126.8,90.5,126.8,90.7,126.8z"/>
</g>
<g>
	<circle class="st0" cx="109.2" cy="111.4" r="12.3"/>
	<path class="st2" d="M109.2,126.7c-8.4,0-15.3-6.9-15.3-15.3s6.9-15.3,15.3-15.3s15.3,6.9,15.3,15.3S117.6,126.7,109.2,126.7z
		 M109.2,102.2c-5.1,0-9.2,4.1-9.2,9.2s4.1,9.2,9.2,9.2s9.2-4.1,9.2-9.2S114.2,102.2,109.2,102.2z"/>
</g>
</svg>
