<?xml version="1.0" encoding="utf-8"?>
<!-- Generator: Adobe Illustrator 24.0.1, SVG Export Plug-In . SVG Version: 6.00 Build 0)  -->
<svg version="1.1" id="圖層_1" xmlns="http://www.w3.org/2000/svg" xmlns:xlink="http://www.w3.org/1999/xlink" x="0px" y="0px"
	 viewBox="0 0 200 200" style="enable-background:new 0 0 200 200;" xml:space="preserve">
<style type="text/css">
	.st0{fill:#4D4D4D;}
	.st1{fill:#0064A9;}
</style>
<g>
	<path class="st0" d="M199.3,86.6c0-1-0.4-2-1.2-2.6l-13-9.2V36.9c0-1.7-1.3-3-3-3h-54.5l-25.5-18.1c-1-0.7-2.4-0.7-3.5,0L73.2,33.9
		H18.7c-1.7,0-3,1.3-3,3v37.9L2.7,84c-0.8,0.6-1.3,1.6-1.2,2.6c0,0.4,0,0.8,0.2,1.2v107.7c0,1.7,1.3,3,3,3h191.5c1.7,0,3-1.3,3-3
		V87.8C199.3,87.4,199.3,87,199.3,86.6z M7.6,192.5V92.7L34,111.4l61.2,45.9c0.5,0.4,1.2,0.6,1.8,0.6c0.6,0,1.2-0.2,1.7-0.5l0,0
		c0.5,0.4,1.1,0.5,1.7,0.5c0.6,0,1.2-0.2,1.7-0.6l71.1-50.5l10.6-7.2c0.4-0.3,0.7-0.6,0.9-1l8.5-6v99.8H7.6z M83.6,33.9L100.4,22
		l16.8,11.9H83.6z M179.1,39.9v55.7l-82,55.6L21.7,94.7V39.9H179.1z M15.7,89.7V91l-1.8-1.3H15.7z M186.9,89.7l-1.8,1.3v-1.3H186.9z
		 M185.1,83.5v-1.3l1.8,1.3H185.1z M15.7,83.5h-1.8l1.8-1.3V83.5z"/>
	<path class="st1" d="M53.1,92.7c-1.9,0-3.6-0.3-4.9-0.8l-1.1,7.7c1.9,0.6,4.8,1,7,1c9.3,0,15.1-4.2,15.1-16.3V57.6h-9.6v26.7
		C59.6,90.9,57.1,92.7,53.1,92.7z"/>
	<path class="st1" d="M95.1,100.7c12.4,0,20.8-8.4,20.8-22.3c0-11.7-7.1-21.4-20.1-21.4c-12.5,0-20.6,9.5-20.6,22.2
		C75.2,91.2,82.6,100.7,95.1,100.7z M95.6,64.5c6.6,0,10.2,6.5,10.2,14.1c0,8.2-3.7,14.4-10.2,14.4c-6.4,0-10.3-5.8-10.3-14.1
		C85.3,70.7,89.1,64.5,95.6,64.5z"/>
	<path class="st1" d="M122.2,99.8c2.1,0.3,5.7,0.6,10.4,0.6c8.4,0,13.6-1.4,16.7-3.8c2.6-2.1,4.4-5.2,4.4-9c0-5.5-3.6-9.1-8.4-10.4
		v-0.1c4.8-1.8,7-5.3,7-9.1c0-3.8-2.1-6.7-5.1-8.3c-3.1-1.8-6.7-2.4-12.5-2.4c-4.8,0-9.9,0.4-12.4,0.9V99.8z M131.7,64.5
		c0.8-0.1,2-0.3,4.1-0.3c4.3,0,6.8,1.7,6.8,4.9c0,3.1-2.7,5.2-7.7,5.2h-3.1V64.5z M135,81.3c4.8,0,8.6,1.7,8.6,6
		c0,4.5-3.8,6.1-8.2,6.1c-1.6,0-2.8,0-3.7-0.1V81.3H135z"/>
</g>
</svg>
