<?xml version="1.0" encoding="utf-8"?>
<!-- Generator: Adobe Illustrator 24.0.1, SVG Export Plug-In . SVG Version: 6.00 Build 0)  -->
<svg version="1.1" id="分離模式" xmlns="http://www.w3.org/2000/svg" xmlns:xlink="http://www.w3.org/1999/xlink" x="0px"
	 y="0px" viewBox="0 0 441.5 117.5" style="enable-background:new 0 0 441.5 117.5;" xml:space="preserve">
<style type="text/css">
	.st0{fill:#DA4376;}
	.st1, .st3, .st5, .st7, .st9, .st11, .st13, .st15, .st19, .st21, .st23, .st25, .st27, .st29, .st31, .st32, .st35, .st37, .st39, .st41, .st43, .st45, .st47, .st49, .st51, .st53, .st55, .st57, .st59, .st61, .st63, .st65{
		transition: all 4s ;
		animation:opacitya 2s  infinite;
		animation-timing-function: ease-in;
	}
	@keyframes opacitya{
		0%{ opacity: .5;}
		100%{ opacity: 0;}
	}
	.st2, .st4, .st6, .st8, .st10, .st12, .st14, .st16, .st18, .st20, .st22, .st24, .st26, .st28, .st30, .st32, .st34, .st36, .st38, .st40, .st42, .st44, .st46, .st48, .st50, .st52, .st54, .st56, .st58, .st60, .st62, .st64, .st66{
		transition: all 4s ;
		animation:opacityb 4s  infinite;
		animation-timing-function: ease-in;
	}
	@keyframes opacityb{
		0%{ opacity: 0;}
		100%{ opacity: .4;}
	}
</style>
<g id="XMLID_8889_">
	<path id="XMLID_9193_" class="st0 st1" d="M303,7.8c1.1,0,2,0.9,2,2c0,1.1-0.9,2-2,2c-1.1,0-2-0.9-2-2C301,8.7,301.9,7.8,303,7.8z"/>
	<circle id="XMLID_9192_" class="st0" cx="225.7" cy="32.5" r="2"/>
	<circle id="XMLID_9191_" class="st0" cx="273.5" cy="13.3" r="2"/>
	<circle id="XMLID_9188_" class="st0 st2" cx="148" cy="46.1" r="2"/>
	<path id="XMLID_9187_" class="st0" d="M222.2,68c1.1,0,2,0.9,2,2c0,1.1-0.9,2-2,2c-1.1,0-2-0.9-2-2C220.2,68.8,221.1,68,222.2,68z"
		/>
	<path id="XMLID_9186_" class="st0" d="M250.1,64.8c1.1,0,2,0.9,2,2c0,1.1-0.9,2-2,2c-1.1,0-2-0.9-2-2
		C248.2,65.7,249.1,64.8,250.1,64.8z"/>
	<path id="XMLID_9185_" class="st0" d="M237.5,5.1c1.1,0,2,0.9,2,2s-0.9,2-2,2c-1.1,0-2-0.9-2-2S236.4,5.1,237.5,5.1z"/>
	<path id="XMLID_9184_" class="st0 st3" d="M133,18.9c1.1,0,2,0.9,2,2c0,1.1-0.9,2-2,2c-1.1,0-2-0.9-2-2C131,19.8,131.9,18.9,133,18.9z"
		/>
	<path id="XMLID_9181_" class="st0" d="M231.1,39.3c1.1,0,2,0.9,2,2c0,1.1-0.9,2-2,2c-1.1,0-2-0.9-2-2
		C229.2,40.2,230.1,39.3,231.1,39.3z"/>
	<circle id="XMLID_9179_" class="st0" cx="324.4" cy="6.7" r="2"/>
	<circle id="XMLID_9172_" class="st0 st4" cx="34.1" cy="12.5" r="2"/>
	<path id="XMLID_9171_" class="st0" d="M331.8,24.8c1.1,0,2,0.9,2,2c0,1.1-0.9,2-2,2c-1.1,0-2-0.9-2-2
		C329.9,25.7,330.7,24.8,331.8,24.8z"/>
	<path id="XMLID_9170_" class="st0" d="M267.7,33.3c1.1,0,2,0.9,2,2c0,1.1-0.9,2-2,2c-1.1,0-2-0.9-2-2
		C265.8,34.2,266.7,33.3,267.7,33.3z"/>
	<path id="XMLID_9169_" class="st0 st5" d="M311.4,57.7c1.1,0,2,0.9,2,2c0,1.1-0.9,2-2,2s-2-0.9-2-2C309.5,58.6,310.3,57.7,311.4,57.7z"
		/>
	<path id="XMLID_9168_" class="st0" d="M354.1,64.8c1.1,0,2,0.9,2,2c0,1.1-0.9,2-2,2c-1.1,0-2-0.9-2-2
		C352.1,65.7,353,64.8,354.1,64.8z"/>
	<circle id="XMLID_9167_" class="st0" cx="91.8" cy="32.1" r="2"/>
	<path id="XMLID_9166_" class="st0 st6" d="M200.8,19.8c1.1,0,2,0.9,2,2c0,1.1-0.9,2-2,2c-1.1,0-2-0.9-2-2
		C198.8,20.7,199.7,19.8,200.8,19.8z"/>
	<circle id="XMLID_9165_" class="st0" cx="132" cy="61.2" r="2"/>
	<path id="XMLID_9164_" class="st0" d="M238.8,19.3c1.1,0,2,0.9,2,2c0,1.1-0.9,2-2,2c-1.1,0-2-0.9-2-2
		C236.9,20.1,237.8,19.3,238.8,19.3z"/>
	<path id="XMLID_9163_" class="st0 st7" d="M192.9,71.8c1.1,0,2,0.9,2,2c0,1.1-0.9,2-2,2c-1.1,0-2-0.9-2-2
		C191,72.7,191.8,71.8,192.9,71.8z"/>
	<path id="XMLID_9162_" class="st0" d="M206.5,70.4c1.1,0,2,0.9,2,2c0,1.1-0.9,2-2,2c-1.1,0-2-0.9-2-2
		C204.5,71.3,205.4,70.4,206.5,70.4z"/>
	<path id="XMLID_9161_" class="st0 st8" d="M214.5,39.3c1.1,0,2,0.9,2,2c0,1.1-0.9,2-2,2c-1.1,0-2-0.9-2-2
		C212.5,40.2,213.4,39.3,214.5,39.3z"/>
	<circle id="XMLID_9160_" class="st0" cx="325.6" cy="33.7" r="2"/>
	<circle id="XMLID_9159_" class="st0" cx="239.9" cy="64.4" r="2"/>
	<circle id="XMLID_9158_" class="st0 st9" cx="258.9" cy="34.8" r="2"/>
	<circle id="XMLID_9157_" class="st0" cx="118.4" cy="64" r="2"/>
	<path id="XMLID_9156_" class="st0" d="M234,14.1c1.1,0,2,0.9,2,2s-0.9,2-2,2c-1.1,0-2-0.9-2-2S232.9,14.1,234,14.1z"/>
	<path id="XMLID_9155_" class="st0 st10" d="M143.3,72.7c1.1,0,2,0.9,2,2c0,1.1-0.9,2-2,2c-1.1,0-2-0.9-2-2
		C141.4,73.6,142.2,72.7,143.3,72.7z"/>
	<path id="XMLID_9154_" class="st0" d="M95.2,43.2c1.1,0,2,0.9,2,2c0,1.1-0.9,2-2,2c-1.1,0-2-0.9-2-2C93.2,44,94.1,43.2,95.2,43.2z"
		/>
	<circle id="XMLID_9153_" class="st0" cx="124.3" cy="56.6" r="2"/>
	<circle id="XMLID_9152_" class="st0" cx="106" cy="3" r="2"/>
	<path id="XMLID_9151_" class="st0 st11" d="M75.8,46.1c1.1,0,2,0.9,2,2c0,1.1-0.9,2-2,2c-1.1,0-2-0.9-2-2C73.8,47,74.7,46.1,75.8,46.1z"
		/>
	<path id="XMLID_9150_" class="st0" d="M316.9,14.8c1.1,0,2,0.9,2,2c0,1.1-0.9,2-2,2c-1.1,0-2-0.9-2-2
		C314.9,15.7,315.8,14.8,316.9,14.8z"/>
	<path id="XMLID_9149_" class="st0" d="M161,9.9c1.1,0,2,0.9,2,2s-0.9,2-2,2c-1.1,0-2-0.9-2-2S159.9,9.9,161,9.9z"/>
	<path id="XMLID_9148_" class="st0" d="M165.2,16.8c1.1,0,2,0.9,2,2s-0.9,2-2,2c-1.1,0-2-0.9-2-2S164.2,16.8,165.2,16.8z"/>
	<path id="XMLID_9147_" class="st0 st12" d="M184.5,23.8c1.1,0,2,0.9,2,2c0,1.1-0.9,2-2,2c-1.1,0-2-0.9-2-2
		C182.5,24.7,183.4,23.8,184.5,23.8z"/>
	<path id="XMLID_9146_" class="st0" d="M186.1,63.6c1.1,0,2,0.9,2,2c0,1.1-0.9,2-2,2c-1.1,0-2-0.9-2-2
		C184.2,64.5,185.1,63.6,186.1,63.6z"/>
	<circle id="XMLID_9145_" class="st0" cx="156" cy="21.2" r="2"/>
	<path id="XMLID_9144_" class="st0" d="M350.7,5.5c1.1,0,2,0.9,2,2s-0.9,2-2,2c-1.1,0-2-0.9-2-2S349.6,5.5,350.7,5.5z"/>
	<path id="XMLID_9143_" class="st0 st13" d="M266.3,63.7c1.1,0,2,0.9,2,2c0,1.1-0.9,2-2,2c-1.1,0-2-0.9-2-2
		C264.4,64.6,265.3,63.7,266.3,63.7z"/>
	<path id="XMLID_9142_" class="st0" d="M184.9,39.2c1.1,0,2,0.9,2,2c0,1.1-0.9,2-2,2c-1.1,0-2-0.9-2-2
		C182.9,40.1,183.8,39.2,184.9,39.2z"/>
	<circle id="XMLID_9141_" class="st0" cx="51.4" cy="3.2" r="2"/>
	<circle id="XMLID_9140_" class="st0" cx="332.7" cy="13.6" r="2"/>
	<circle id="XMLID_9139_" class="st0 st14" cx="304.4" cy="17.7" r="2"/>
	<circle id="XMLID_9138_" class="st0" cx="58.5" cy="21.5" r="2"/>
	<path id="XMLID_9137_" class="st0" d="M212.8,53.7c1.1,0,2,0.9,2,2c0,1.1-0.9,2-2,2c-1.1,0-2-0.9-2-2
		C210.8,54.6,211.7,53.7,212.8,53.7z"/>
	<path id="XMLID_9136_" class="st0" d="M286.1,28.9c1.1,0,2,0.9,2,2c0,1.1-0.9,2-2,2c-1.1,0-2-0.9-2-2
		C284.1,29.8,285,28.9,286.1,28.9z"/>
	<path id="XMLID_9135_" class="st0" d="M229.5,23c1.1,0,2,0.9,2,2c0,1.1-0.9,2-2,2c-1.1,0-2-0.9-2-2C227.5,23.9,228.4,23,229.5,23z"
		/>
	<path id="XMLID_9134_" class="st0 st15" d="M198.3,77.2c1.1,0,2,0.9,2,2c0,1.1-0.9,2-2,2c-1.1,0-2-0.9-2-2
		C196.3,78.1,197.2,77.2,198.3,77.2z"/>
	<path id="XMLID_9133_" class="st0" d="M190.3,7.4c1.1,0,2,0.9,2,2c0,1.1-0.9,2-2,2c-1.1,0-2-0.9-2-2C188.3,8.3,189.2,7.4,190.3,7.4
		z"/>
	<circle id="XMLID_9132_" class="st0" cx="142.6" cy="56.2" r="2"/>
	<path id="XMLID_9131_" class="st0" d="M154.8,1.6c1.1,0,2,0.9,2,2s-0.9,2-2,2c-1.1,0-2-0.9-2-2S153.7,1.6,154.8,1.6z"/>
	<path id="XMLID_9130_" class="st0 st16" d="M121.5,40c1.1,0,2,0.9,2,2c0,1.1-0.9,2-2,2c-1.1,0-2-0.9-2-2C119.5,40.9,120.4,40,121.5,40z"
		/>
	<path id="XMLID_9129_" class="st0" d="M72.1,26c1.1,0,2,0.9,2,2c0,1.1-0.9,2-2,2c-1.1,0-2-0.9-2-2C70.2,26.9,71.1,26,72.1,26z"/>
	<path id="XMLID_9128_" class="st0" d="M32.1,62.4c1.1,0,2,0.9,2,2c0,1.1-0.9,2-2,2c-1.1,0-2-0.9-2-2C30.1,63.3,31,62.4,32.1,62.4z"
		/>
	<path id="XMLID_9127_" class="st0" d="M277.2,49.6c1.1,0,2,0.9,2,2c0,1.1-0.9,2-2,2c-1.1,0-2-0.9-2-2
		C275.2,50.5,276.1,49.6,277.2,49.6z"/>
	<path id="XMLID_9126_" class="st0 st17" d="M172,53.1c1.1,0,2,0.9,2,2c0,1.1-0.9,2-2,2c-1.1,0-2-0.9-2-2C170,54,170.9,53.1,172,53.1z"/>
	<path id="XMLID_9125_" class="st0" d="M145.3,104.8c1.1,0,2,0.9,2,2c0,1.1-0.9,2-2,2c-1.1,0-2-0.9-2-2
		C143.3,105.7,144.2,104.8,145.3,104.8z"/>
	<path id="XMLID_9124_" class="st0" d="M192.8,14.9c1.1,0,2,0.9,2,2c0,1.1-0.9,2-2,2c-1.1,0-2-0.9-2-2
		C190.8,15.8,191.7,14.9,192.8,14.9z"/>
	<circle id="XMLID_9123_" class="st0" cx="188.6" cy="34.4" r="2"/>
	<path id="XMLID_9122_" class="st0" d="M131.3,12.3c1.1,0,2,0.9,2,2c0,1.1-0.9,2-2,2c-1.1,0-2-0.9-2-2
		C129.3,13.2,130.2,12.3,131.3,12.3z"/>
	<path id="XMLID_9121_" class="st0" d="M54,8.6c1.1,0,2,0.9,2,2s-0.9,2-2,2c-1.1,0-2-0.9-2-2S52.9,8.6,54,8.6z"/>
	<path id="XMLID_9120_" class="st0 st18" d="M204.3,31.8c1.1,0,2,0.9,2,2c0,1.1-0.9,2-2,2c-1.1,0-2-0.9-2-2
		C202.3,32.7,203.2,31.8,204.3,31.8z"/>
	<circle id="XMLID_9119_" class="st0" cx="147.1" cy="8.2" r="2"/>
	<path id="XMLID_9118_" class="st0" d="M298.1,20.3c1.1,0,2,0.9,2,2c0,1.1-0.9,2-2,2c-1.1,0-2-0.9-2-2
		C296.1,21.2,297,20.3,298.1,20.3z"/>
	<path id="XMLID_9117_" class="st0" d="M337.9,20.6c1.1,0,2,0.9,2,2c0,1.1-0.9,2-2,2s-2-0.9-2-2C336,21.5,336.9,20.6,337.9,20.6z"/>
	<circle id="XMLID_9116_" class="st0 st19" cx="203" cy="6.9" r="2"/>
	<path id="XMLID_9115_" class="st0" d="M283.4,12.9c1.1,0,2,0.9,2,2c0,1.1-0.9,2-2,2c-1.1,0-2-0.9-2-2
		C281.4,13.8,282.3,12.9,283.4,12.9z"/>
	<circle id="XMLID_9114_" class="st0" cx="62.7" cy="30" r="2"/>
	<path id="XMLID_9113_" class="st0" d="M286.5,1.4c1.1,0,2,0.9,2,2c0,1.1-0.9,2-2,2c-1.1,0-2-0.9-2-2C284.6,2.3,285.4,1.4,286.5,1.4
		z"/>
	<circle id="XMLID_9112_" class="st0" cx="253.4" cy="12.7" r="2"/>
	<circle id="XMLID_9111_" class="st0 st20" cx="79.3" cy="10" r="2"/>
	<circle id="XMLID_9110_" class="st0" cx="69.1" cy="43.2" r="2"/>
	<path id="XMLID_9109_" class="st0" d="M244.2,14.7c1.1,0,2,0.9,2,2c0,1.1-0.9,2-2,2c-1.1,0-2-0.9-2-2
		C242.2,15.6,243.1,14.7,244.2,14.7z"/>
	<path id="XMLID_9108_" class="st0" d="M163.2,71.6c1.1,0,2,0.9,2,2c0,1.1-0.9,2-2,2c-1.1,0-2-0.9-2-2
		C161.2,72.4,162.1,71.6,163.2,71.6z"/>
	<path id="XMLID_9107_" class="st0" d="M139.5,8.8c1.1,0,2,0.9,2,2s-0.9,2-2,2c-1.1,0-2-0.9-2-2S138.4,8.8,139.5,8.8z"/>
	<path id="XMLID_9106_" class="st0 st21" d="M143.2,16.4c1.1,0,2,0.9,2,2c0,1.1-0.9,2-2,2c-1.1,0-2-0.9-2-2
		C141.2,17.3,142.1,16.4,143.2,16.4z"/>
	<path id="XMLID_9105_" class="st0" d="M299.2,40.4c1.1,0,2,0.9,2,2c0,1.1-0.9,2-2,2c-1.1,0-2-0.9-2-2
		C297.2,41.2,298.1,40.4,299.2,40.4z"/>
	<circle id="XMLID_9104_" class="st0" cx="163.5" cy="27.4" r="2"/>
	<circle id="XMLID_9103_" class="st0 st22" cx="97.2" cy="20.6" r="2"/>
	<path id="XMLID_9102_" class="st0" d="M104.7,22.4c1.1,0,2,0.9,2,2c0,1.1-0.9,2-2,2c-1.1,0-2-0.9-2-2
		C102.7,23.2,103.6,22.4,104.7,22.4z"/>
	
		<ellipse id="XMLID_9101_" transform="matrix(0.3809 -0.9246 0.9246 0.3809 117.7536 236.0498)" class="st0" cx="235.1" cy="30.1" rx="2" ry="2"/>
	<circle id="XMLID_9100_" class="st0" cx="250.7" cy="21.5" r="2"/>
	<circle id="XMLID_9099_" class="st0" cx="172.1" cy="15.1" r="2"/>
	<path id="XMLID_9098_" class="st0" d="M178.9,29.5c1.1,0,2,0.9,2,2c0,1.1-0.9,2-2,2c-1.1,0-2-0.9-2-2
		C176.9,30.4,177.8,29.5,178.9,29.5z"/>
	<circle id="XMLID_9097_" class="st0 st23" cx="267.1" cy="5.7" r="2"/>
	<path id="XMLID_9096_" class="st0" d="M243.4,25.7c1.1,0,2,0.9,2,2c0,1.1-0.9,2-2,2c-1.1,0-2-0.9-2-2
		C241.4,26.6,242.3,25.7,243.4,25.7z"/>
	<path id="XMLID_9095_" class="st0" d="M260.9,8.4c1.1,0,2,0.9,2,2s-0.9,2-2,2c-1.1,0-2-0.9-2-2S259.8,8.4,260.9,8.4z"/>
	<circle id="XMLID_9094_" class="st0" cx="137.9" cy="2.5" r="2"/>
	<circle id="XMLID_9093_" class="st0 st24" cx="123.3" cy="14.9" r="2"/>
	<circle id="XMLID_9092_" class="st0" cx="159.6" cy="51" r="2"/>
	<circle id="XMLID_9091_" class="st0" cx="111.4" cy="11.7" r="2"/>
	<path id="XMLID_9090_" class="st0" d="M168.9,5.3c1.1,0,2,0.9,2,2s-0.9,2-2,2c-1.1,0-2-0.9-2-2S167.9,5.3,168.9,5.3z"/>
	<path id="XMLID_9089_" class="st0 st25" d="M205.8,51.8c1.1,0,2,0.9,2,2c0,1.1-0.9,2-2,2c-1.1,0-2-0.9-2-2
		C203.9,52.7,204.7,51.8,205.8,51.8z"/>
	<circle id="XMLID_9088_" class="st0" cx="40.9" cy="20.5" r="2"/>
	<path id="XMLID_9087_" class="st0" d="M156.8,29c1.1,0,2,0.9,2,2c0,1.1-0.9,2-2,2c-1.1,0-2-0.9-2-2C154.9,29.9,155.8,29,156.8,29z"
		/>
	<path id="XMLID_9086_" class="st0" d="M100.1,37.5c1.1,0,2,0.9,2,2s-0.9,2-2,2c-1.1,0-2-0.9-2-2S99,37.5,100.1,37.5z"/>
	<path id="XMLID_9085_" class="st0 st26" d="M279,25.8c1.1,0,2,0.9,2,2c0,1.1-0.9,2-2,2c-1.1,0-2-0.9-2-2C277,26.7,277.9,25.8,279,25.8z"
		/>
	<circle id="XMLID_9084_" class="st0" cx="324.4" cy="46.6" r="2"/>
	<path id="XMLID_9083_" class="st0" d="M292,17.3c1.1,0,2,0.9,2,2c0,1.1-0.9,2-2,2c-1.1,0-2-0.9-2-2C290,18.2,290.9,17.3,292,17.3z"
		/>
	<path id="XMLID_9082_" class="st0 st27" d="M116.5,29.3c1.1,0,2,0.9,2,2c0,1.1-0.9,2-2,2c-1.1,0-2-0.9-2-2
		C114.5,30.2,115.4,29.3,116.5,29.3z"/>
	<circle id="XMLID_9081_" class="st0" cx="69.1" cy="82.5" r="2"/>
	<path id="XMLID_9080_" class="st0" d="M307.5,30c1.1,0,2,0.9,2,2c0,1.1-0.9,2-2,2c-1.1,0-2-0.9-2-2C305.5,30.9,306.4,30,307.5,30z"
		/>
	<path id="XMLID_9079_" class="st0" d="M166.2,77.4c1.1,0,2,0.9,2,2c0,1.1-0.9,2-2,2s-2-0.9-2-2C164.3,78.3,165.2,77.4,166.2,77.4z"
		/>
	<path id="XMLID_9078_" class="st0 st28" d="M193.3,59.1c1.1,0,2,0.9,2,2c0,1.1-0.9,2-2,2c-1.1,0-2-0.9-2-2
		C191.4,60,192.2,59.1,193.3,59.1z"/>
	<path id="XMLID_9077_" class="st0" d="M279.6,36.2c1.1,0,2,0.9,2,2c0,1.1-0.9,2-2,2c-1.1,0-2-0.9-2-2
		C277.6,37.1,278.5,36.2,279.6,36.2z"/>
	<path id="XMLID_9076_" class="st0" d="M105.3,60.6c1.1,0,2,0.9,2,2c0,1.1-0.9,2-2,2c-1.1,0-2-0.9-2-2
		C103.3,61.5,104.2,60.6,105.3,60.6z"/>
	<path id="XMLID_9075_" class="st0" d="M74.2,36.8c1.1,0,2,0.9,2,2c0,1.1-0.9,2-2,2c-1.1,0-2-0.9-2-2C72.2,37.7,73.1,36.8,74.2,36.8
		z"/>
	<path id="XMLID_9074_" class="st0" d="M54.1,28.5c1.1,0,2,0.9,2,2s-0.9,2-2,2c-1.1,0-2-0.9-2-2S53,28.5,54.1,28.5z"/>
	<path id="XMLID_9073_" class="st0 st29" d="M209.6,7.6c1.1,0,2,0.9,2,2c0,1.1-0.9,2-2,2c-1.1,0-2-0.9-2-2C207.6,8.5,208.5,7.6,209.6,7.6
		z"/>
	<path id="XMLID_9072_" class="st0" d="M271.5,27.1c1.1,0,2,0.9,2,2c0,1.1-0.9,2-2,2c-1.1,0-2-0.9-2-2
		C269.5,28,270.4,27.1,271.5,27.1z"/>
	<circle id="XMLID_9071_" class="st0" cx="288.3" cy="40.7" r="2"/>
	<path id="XMLID_9070_" class="st0" d="M116.2,54c1.1,0,2,0.9,2,2c0,1.1-0.9,2-2,2s-2-0.9-2-2C114.2,54.9,115.1,54,116.2,54z"/>
	<circle id="XMLID_9069_" class="st0 st30" cx="168.8" cy="64.9" r="2"/>
	<path id="XMLID_9068_" class="st0" d="M227.7,74.2c1.1,0,2,0.9,2,2c0,1.1-0.9,2-2,2c-1.1,0-2-0.9-2-2
		C225.7,75.1,226.6,74.2,227.7,74.2z"/>
	<path id="XMLID_9067_" class="st0" d="M83.6,34.8c1.1,0,2,0.9,2,2c0,1.1-0.9,2-2,2c-1.1,0-2-0.9-2-2C81.7,35.7,82.6,34.8,83.6,34.8
		z"/>
	<path id="XMLID_9066_" class="st0" d="M125.2,23.8c1.1,0,2,0.9,2,2c0,1.1-0.9,2-2,2c-1.1,0-2-0.9-2-2
		C123.2,24.7,124.1,23.8,125.2,23.8z"/>
	<path id="XMLID_9065_" class="st0" d="M140.9,62.2c1.1,0,2,0.9,2,2c0,1.1-0.9,2-2,2c-1.1,0-2-0.9-2-2
		C138.9,63.1,139.8,62.2,140.9,62.2z"/>
	<circle id="XMLID_9064_" class="st0" cx="278.7" cy="7.1" r="2"/>
	<circle id="XMLID_9063_" class="st0 st31" cx="128.2" cy="72.6" r="2"/>
	<path id="XMLID_9062_" class="st0" d="M225,58.9c1.1,0,2,0.9,2,2c0,1.1-0.9,2-2,2c-1.1,0-2-0.9-2-2C223.1,59.8,223.9,58.9,225,58.9
		z"/>
	<path id="XMLID_9061_" class="st0" d="M118.6,17.1c1.1,0,2,0.9,2,2c0,1.1-0.9,2-2,2c-1.1,0-2-0.9-2-2
		C116.7,18,117.6,17.1,118.6,17.1z"/>
	<circle id="XMLID_9060_" class="st0" cx="259" cy="26.8" r="2"/>
	<path id="XMLID_9059_" class="st0" d="M317.4,62.4c1.1,0,2,0.9,2,2c0,1.1-0.9,2-2,2c-1.1,0-2-0.9-2-2
		C315.5,63.3,316.4,62.4,317.4,62.4z"/>
	<circle id="XMLID_9058_" class="st0" cx="244.7" cy="9.5" r="2"/>
	<path id="XMLID_9057_" class="st0 st32" d="M108.7,14.8c1.1,0,2,0.9,2,2s-0.9,2-2,2s-2-0.9-2-2S107.6,14.8,108.7,14.8z"/>
	<path id="XMLID_9056_" class="st0" d="M174.6,35.6c1.1,0,2,0.9,2,2s-0.9,2-2,2c-1.1,0-2-0.9-2-2S173.5,35.6,174.6,35.6z"/>
	<circle id="XMLID_9055_" class="st0" cx="266.7" cy="17.3" r="2"/>
	<path id="XMLID_9054_" class="st0" d="M159.5,37.5c1.1,0,2,0.9,2,2c0,1.1-0.9,2-2,2c-1.1,0-2-0.9-2-2
		C157.5,38.4,158.4,37.5,159.5,37.5z"/>
	<path id="XMLID_9053_" class="st0" d="M149.4,30.3c1.1,0,2,0.9,2,2c0,1.1-0.9,2-2,2c-1.1,0-2-0.9-2-2
		C147.5,31.2,148.3,30.3,149.4,30.3z"/>
	<circle id="XMLID_9052_" class="st0" cx="237.7" cy="73.8" r="2"/>
	<path id="XMLID_9051_" class="st0" d="M209.2,20.8c1.1,0,2,0.9,2,2c0,1.1-0.9,2-2,2c-1.1,0-2-0.9-2-2
		C207.3,21.7,208.2,20.8,209.2,20.8z"/>
	<path id="XMLID_9050_" class="st0" d="M219,5.1c1.1,0,2,0.9,2,2c0,1.1-0.9,2-2,2c-1.1,0-2-0.9-2-2C217,6,217.9,5.1,219,5.1z"/>
	<path id="XMLID_9049_" class="st0 st33" d="M231.6,65.2c1.1,0,2,0.9,2,2c0,1.1-0.9,2-2,2c-1.1,0-2-0.9-2-2
		C229.6,66.1,230.5,65.2,231.6,65.2z"/>
	<circle id="XMLID_9048_" class="st0" cx="211.6" cy="47.2" r="2"/>
	<path id="XMLID_9047_" class="st0" d="M123.9,33.1c1.1,0,2,0.9,2,2c0,1.1-0.9,2-2,2s-2-0.9-2-2C121.9,33.9,122.8,33.1,123.9,33.1z"
		/>
	<circle id="XMLID_9046_" class="st0" cx="34.1" cy="104.8" r="2"/>
	<path id="XMLID_9045_" class="st0" d="M178.9,54.6c1.1,0,2,0.9,2,2c0,1.1-0.9,2-2,2c-1.1,0-2-0.9-2-2
		C176.9,55.5,177.8,54.6,178.9,54.6z"/>
	<path id="XMLID_9044_" class="st0 st34" d="M130.5,29.9c1.1,0,2,0.9,2,2c0,1.1-0.9,2-2,2c-1.1,0-2-0.9-2-2
		C128.6,30.8,129.4,29.9,130.5,29.9z"/>
	<circle id="XMLID_9043_" class="st0" cx="96.7" cy="66.9" r="2"/>
	<circle id="XMLID_9042_" class="st0" cx="67.7" cy="21.9" r="2"/>
	<path id="XMLID_9041_" class="st0 st35" d="M168.5,31.5c1.1,0,2,0.9,2,2c0,1.1-0.9,2-2,2c-1.1,0-2-0.9-2-2
		C166.5,32.4,167.4,31.5,168.5,31.5z"/>
	<path id="XMLID_9040_" class="st0" d="M195,3.2c1.1,0,2,0.9,2,2s-0.9,2-2,2c-1.1,0-2-0.9-2-2S193.9,3.2,195,3.2z"/>
	<circle id="XMLID_9039_" class="st0" cx="204.6" cy="42.6" r="2"/>
	<path id="XMLID_9038_" class="st0" d="M263,57.9c1.1,0,2,0.9,2,2c0,1.1-0.9,2-2,2c-1.1,0-2-0.9-2-2C261,58.8,261.9,57.9,263,57.9z"
		/>
	<path id="XMLID_9037_" class="st0" d="M250.2,29.7c1.1,0,2,0.9,2,2c0,1.1-0.9,2-2,2c-1.1,0-2-0.9-2-2
		C248.3,30.5,249.1,29.7,250.2,29.7z"/>
	<path id="XMLID_9036_" class="st0 st35" d="M223.8,41.8c1.1,0,2,0.9,2,2c0,1.1-0.9,2-2,2c-1.1,0-2-0.9-2-2
		C221.8,42.7,222.7,41.8,223.8,41.8z"/>
	<path id="XMLID_9035_" class="st0" d="M135.2,37.6c1.1,0,2,0.9,2,2s-0.9,2-2,2c-1.1,0-2-0.9-2-2S134.1,37.6,135.2,37.6z"/>
	<path id="XMLID_9034_" class="st0" d="M107.7,79.4c1.1,0,2,0.9,2,2c0,1.1-0.9,2-2,2c-1.1,0-2-0.9-2-2
		C105.7,80.2,106.6,79.4,107.7,79.4z"/>
	<circle id="XMLID_9033_" class="st0" cx="175.5" cy="46.3" r="2"/>
	<path id="XMLID_9032_" class="st0 st36" d="M190.7,22.4c1.1,0,2,0.9,2,2c0,1.1-0.9,2-2,2c-1.1,0-2-0.9-2-2
		C188.7,23.3,189.6,22.4,190.7,22.4z"/>
	<circle id="XMLID_9031_" class="st0" cx="151.4" cy="78.4" r="2"/>
	<circle id="XMLID_9030_" class="st0" cx="99.3" cy="31.1" r="2"/>
	<circle id="XMLID_9029_" class="st0 st37" cx="295.9" cy="8" r="2"/>
	<path id="XMLID_9028_" class="st0" d="M131,49.1c1.1,0,2,0.9,2,2c0,1.1-0.9,2-2,2c-1.1,0-2-0.9-2-2C129,50,129.9,49.1,131,49.1z"/>
	<circle id="XMLID_9027_" class="st0" cx="138.7" cy="31.9" r="2"/>
	<path id="XMLID_9026_" class="st0" d="M185.2,71.2c1.1,0,2,0.9,2,2s-0.9,2-2,2c-1.1,0-2-0.9-2-2S184.1,71.2,185.2,71.2z"/>
	<path id="XMLID_9025_" class="st0 st38" d="M136.3,52.1c1.1,0,2,0.9,2,2c0,1.1-0.9,2-2,2c-1.1,0-2-0.9-2-2
		C134.3,53,135.2,52.1,136.3,52.1z"/>
	<path id="XMLID_9024_" class="st0" d="M90.4,5.7c1.1,0,2,0.9,2,2c0,1.1-0.9,2-2,2c-1.1,0-2-0.9-2-2C88.4,6.6,89.3,5.7,90.4,5.7z"/>
	<circle id="XMLID_9023_" class="st0" cx="244.4" cy="71.3" r="2"/>
	<path id="XMLID_9022_" class="st0" d="M172.6,22.8c1.1,0,2,0.9,2,2c0,1.1-0.9,2-2,2c-1.1,0-2-0.9-2-2
		C170.7,23.7,171.6,22.8,172.6,22.8z"/>
	<path id="XMLID_9021_" class="st0 st39" d="M161.1,61.5c1.1,0,2,0.9,2,2c0,1.1-0.9,2-2,2c-1.1,0-2-0.9-2-2
		C159.1,62.4,160,61.5,161.1,61.5z"/>
	<path id="XMLID_9020_" class="st0" d="M140.2,23.9c1.1,0,2,0.9,2,2s-0.9,2-2,2c-1.1,0-2-0.9-2-2S139.1,23.9,140.2,23.9z"/>
	<path id="XMLID_9019_" class="st0" d="M260.1,18.2c1.1,0,2,0.9,2,2c0,1.1-0.9,2-2,2c-1.1,0-2-0.9-2-2
		C258.1,19.1,259,18.2,260.1,18.2z"/>
	<path id="XMLID_9018_" class="st0" d="M173.8,70.9c1.1,0,2,0.9,2,2s-0.9,2-2,2c-1.1,0-2-0.9-2-2S172.7,70.9,173.8,70.9z"/>
	<circle id="XMLID_9017_" class="st0" cx="201.5" cy="59.5" r="2"/>
	<path id="XMLID_9016_" class="st0 st40" d="M315.4,4.3c1.1,0,2,0.9,2,2c0,1.1-0.9,2-2,2c-1.1,0-2-0.9-2-2C313.5,5.2,314.3,4.3,315.4,4.3
		z"/>
	<path id="XMLID_9015_" class="st0" d="M320.1,24.2c1.1,0,2,0.9,2,2c0,1.1-0.9,2-2,2c-1.1,0-2-0.9-2-2
		C318.1,25.1,319,24.2,320.1,24.2z"/>
	<path id="XMLID_9014_" class="st0" d="M274.5,40.5c1.1,0,2,0.9,2,2c0,1.1-0.9,2-2,2c-1.1,0-2-0.9-2-2
		C272.5,41.4,273.4,40.5,274.5,40.5z"/>
	<path id="XMLID_9013_" class="st0" d="M141,43.9c1.1,0,2,0.9,2,2c0,1.1-0.9,2-2,2c-1.1,0-2-0.9-2-2C139,44.8,139.9,43.9,141,43.9z"
		/>
	<path id="XMLID_9012_" class="st0 st41" d="M177.8,63.9c1.1,0,2,0.9,2,2c0,1.1-0.9,2-2,2c-1.1,0-2-0.9-2-2
		C175.9,64.8,176.7,63.9,177.8,63.9z"/>
	<path id="XMLID_9011_" class="st0" d="M91.3,23.3c1.1,0,2,0.9,2,2c0,1.1-0.9,2-2,2s-2-0.9-2-2C89.3,24.1,90.2,23.3,91.3,23.3z"/>
	<path id="XMLID_9010_" class="st0" d="M100.3,49.6c1.1,0,2,0.9,2,2c0,1.1-0.9,2-2,2c-1.1,0-2-0.9-2-2
		C98.3,50.4,99.2,49.6,100.3,49.6z"/>
	<path id="XMLID_9009_" class="st0 st42" d="M310,8.5c1.1,0,2,0.9,2,2c0,1.1-0.9,2-2,2c-1.1,0-2-0.9-2-2C308.1,9.4,308.9,8.5,310,8.5z"/>
	<path id="XMLID_9008_" class="st0" d="M88.5,15c1.1,0,2,0.9,2,2s-0.9,2-2,2c-1.1,0-2-0.9-2-2S87.4,15,88.5,15z"/>
	<path id="XMLID_9007_" class="st0" d="M96.9,56c1.1,0,2,0.9,2,2c0,1.1-0.9,2-2,2c-1.1,0-2-0.9-2-2C95,56.9,95.9,56,96.9,56z"/>
	<path id="XMLID_9006_" class="st0 st43" d="M210.3,29.1c1.1,0,2,0.9,2,2c0,1.1-0.9,2-2,2c-1.1,0-2-0.9-2-2
		C208.3,30,209.2,29.1,210.3,29.1z"/>
	<path id="XMLID_9005_" class="st0" d="M251.1,49.5c1.1,0,2,0.9,2,2s-0.9,2-2,2c-1.1,0-2-0.9-2-2S250,49.5,251.1,49.5z"/>
	<path id="XMLID_9004_" class="st0" d="M81.7,46c1.1,0,2,0.9,2,2s-0.9,2-2,2c-1.1,0-2-0.9-2-2S80.6,46,81.7,46z"/>
	<circle id="XMLID_9003_" class="st0" cx="130.1" cy="6.2" r="2"/>
	<path id="XMLID_9002_" class="st0 st44" d="M198.5,65.1c1.1,0,2,0.9,2,2c0,1.1-0.9,2-2,2c-1.1,0-2-0.9-2-2
		C196.5,66,197.4,65.1,198.5,65.1z"/>
	<circle id="XMLID_9001_" class="st0" cx="209.1" cy="64.1" r="2"/>
	<path id="XMLID_9000_" class="st0" d="M332.3,2.5c1.1,0,2,0.9,2,2s-0.9,2-2,2c-1.1,0-2-0.9-2-2S331.2,2.5,332.3,2.5z"/>
	<path id="XMLID_8999_" class="st0" d="M248.6,1.3c1.1,0,2,0.9,2,2s-0.9,2-2,2c-1.1,0-2-0.9-2-2S247.5,1.3,248.6,1.3z"/>
	<path id="XMLID_8998_" class="st0 st45" d="M272.4,20c1.1,0,2,0.9,2,2c0,1.1-0.9,2-2,2c-1.1,0-2-0.9-2-2C270.4,20.9,271.3,20,272.4,20z"
		/>
	
		<ellipse id="XMLID_8997_" transform="matrix(0.3808 -0.9247 0.9247 0.3808 54.8183 240.2612)" class="st0" cx="206.8" cy="79.2" rx="2" ry="2"/>
	<path id="XMLID_8996_" class="st0" d="M50.1,21.9c1.1,0,2,0.9,2,2s-0.9,2-2,2c-1.1,0-2-0.9-2-2S49,21.9,50.1,21.9z"/>
	<path id="XMLID_8995_" class="st0" d="M59.9,3c1.1,0,2,0.9,2,2c0,1.1-0.9,2-2,2c-1.1,0-2-0.9-2-2C58,3.9,58.8,3,59.9,3z"/>
	<path id="XMLID_8994_" class="st0 st46" d="M66.4,10.2c1.1,0,2,0.9,2,2c0,1.1-0.9,2-2,2c-1.1,0-2-0.9-2-2C64.4,11.1,65.3,10.2,66.4,10.2
		z"/>
	
		<ellipse id="XMLID_8993_" transform="matrix(0.3808 -0.9246 0.9246 0.3808 129.5528 215.8185)" class="st0" cx="225.9" cy="11.2" rx="2" ry="2"/>
	<path id="XMLID_8992_" class="st0" d="M327,19.4c1.1,0,2,0.9,2,2c0,1.1-0.9,2-2,2s-2-0.9-2-2C325,20.3,325.9,19.4,327,19.4z"/>
	<path id="XMLID_8991_" class="st0 st47" d="M293.7,27.6c1.1,0,2,0.9,2,2c0,1.1-0.9,2-2,2c-1.1,0-2-0.9-2-2
		C291.7,28.5,292.6,27.6,293.7,27.6z"/>
	<path id="XMLID_8990_" class="st0" d="M346.4,12.4c1.1,0,2,0.9,2,2s-0.9,2-2,2c-1.1,0-2-0.9-2-2S345.3,12.4,346.4,12.4z"/>
	<path id="XMLID_8989_" class="st0" d="M267.1,43.6c1.1,0,2,0.9,2,2c0,1.1-0.9,2-2,2c-1.1,0-2-0.9-2-2
		C265.1,44.5,266,43.6,267.1,43.6z"/>
	<path id="XMLID_8988_" class="st0 st48" d="M214.4,13.6c1.1,0,2,0.9,2,2s-0.9,2-2,2c-1.1,0-2-0.9-2-2S213.4,13.6,214.4,13.6z"/>
	<circle id="XMLID_8987_" class="st0" cx="115.2" cy="3.9" r="2"/>
	<circle id="XMLID_8986_" class="st0" cx="290.1" cy="54.3" r="2"/>
	<path id="XMLID_8985_" class="st0" d="M234.1,56.5c1.1,0,2,0.9,2,2c0,1.1-0.9,2-2,2c-1.1,0-2-0.9-2-2
		C232.2,57.4,233.1,56.5,234.1,56.5z"/>
	<path id="XMLID_8984_" class="st0" d="M73.1,4c1.1,0,2,0.9,2,2s-0.9,2-2,2s-2-0.9-2-2S72,4,73.1,4z"/>
	<path id="XMLID_8983_" class="st0 st49" d="M163.2,1.1c1.1,0,2,0.9,2,2c0,1.1-0.9,2-2,2c-1.1,0-2-0.9-2-2C161.2,2,162.1,1.1,163.2,1.1z"
		/>
	<circle id="XMLID_8982_" class="st0" cx="195.9" cy="39.4" r="2"/>
	<path id="XMLID_8981_" class="st0" d="M283.4,55.1c1.1,0,2,0.9,2,2s-0.9,2-2,2c-1.1,0-2-0.9-2-2S282.3,55.1,283.4,55.1z"/>
	<path id="XMLID_8980_" class="st0 st50" d="M183.4,47.4c1.1,0,2,0.9,2,2c0,1.1-0.9,2-2,2c-1.1,0-2-0.9-2-2
		C181.4,48.3,182.3,47.4,183.4,47.4z"/>
	<path id="XMLID_8979_" class="st0" d="M283.6,44.9c1.1,0,2,0.9,2,2c0,1.1-0.9,2-2,2c-1.1,0-2-0.9-2-2
		C281.7,45.8,282.5,44.9,283.6,44.9z"/>
	<circle id="XMLID_8978_" class="st0" cx="304.2" cy="2.5" r="2"/>
	<circle id="XMLID_8977_" class="st0 st51" cx="317" cy="33.2" r="2"/>
	<path id="XMLID_8976_" class="st0" d="M307,36.8c1.1,0,2,0.9,2,2c0,1.1-0.9,2-2,2c-1.1,0-2-0.9-2-2C305,37.7,305.9,36.8,307,36.8z"
		/>
	<path id="XMLID_8975_" class="st0" d="M84.1,22.7c1.1,0,2,0.9,2,2c0,1.1-0.9,2-2,2s-2-0.9-2-2C82.2,23.6,83.1,22.7,84.1,22.7z"/>
	<path id="XMLID_8974_" class="st0 st52" d="M191.6,45.9c1.1,0,2,0.9,2,2c0,1.1-0.9,2-2,2c-1.1,0-2-0.9-2-2
		C189.7,46.8,190.5,45.9,191.6,45.9z"/>
	
		<ellipse id="XMLID_8973_" transform="matrix(0.1611 -0.9869 0.9869 0.1611 132.5912 193.1552)" class="st0" cx="179.9" cy="18.6" rx="2" ry="2"/>
	<path id="XMLID_8972_" class="st0" d="M243.1,50.5c1.1,0,2,0.9,2,2c0,1.1-0.9,2-2,2c-1.1,0-2-0.9-2-2
		C241.1,51.4,242,50.5,243.1,50.5z"/>
	
		<ellipse id="XMLID_8971_" transform="matrix(0.3807 -0.9247 0.9247 0.3807 112.0872 195.2562)" class="st0" cx="201.8" cy="13.9" rx="2" ry="2"/>
	
		<ellipse id="XMLID_8970_" transform="matrix(0.3807 -0.9247 0.9247 0.3807 101.4283 176.945)" class="st0" cx="182.8" cy="12.8" rx="2" ry="2"/>
	<path id="XMLID_8969_" class="st0" d="M154.5,59.6c1.1,0,2,0.9,2,2c0,1.1-0.9,2-2,2c-1.1,0-2-0.9-2-2
		C152.5,60.5,153.4,59.6,154.5,59.6z"/>
	<circle id="XMLID_8968_" class="st0 st53" cx="148.5" cy="24.1" r="2"/>
	<path id="XMLID_8967_" class="st0" d="M84.8,1c1.1,0,2,0.9,2,2s-0.9,2-2,2c-1.1,0-2-0.9-2-2S83.7,1,84.8,1z"/>
	<circle id="XMLID_8966_" class="st0" cx="229.4" cy="4.2" r="2"/>
	<path id="XMLID_8965_" class="st0" d="M223.9,16.2c1.1,0,2,0.9,2,2c0,1.1-0.9,2-2,2c-1.1,0-2-0.9-2-2
		C221.9,17,222.8,16.2,223.9,16.2z"/>
	<path id="XMLID_8964_" class="st0 st54" d="M148.3,65.9c1.1,0,2,0.9,2,2c0,1.1-0.9,2-2,2c-1.1,0-2-0.9-2-2
		C146.3,66.8,147.2,65.9,148.3,65.9z"/>
	<path id="XMLID_8963_" class="st0" d="M187,55.1c1.1,0,2,0.9,2,2c0,1.1-0.9,2-2,2c-1.1,0-2-0.9-2-2C185.1,56,185.9,55.1,187,55.1z"
		/>
	<path id="XMLID_8962_" class="st0" d="M196,29.3c1.1,0,2,0.9,2,2c0,1.1-0.9,2-2,2c-1.1,0-2-0.9-2-2C194.1,30.2,194.9,29.3,196,29.3
		z"/>
	<path id="XMLID_8961_" class="st0 st55" d="M270.7,52.8c1.1,0,2,0.9,2,2s-0.9,2-2,2c-1.1,0-2-0.9-2-2S269.6,52.8,270.7,52.8z"/>
	<path id="XMLID_8960_" class="st0" d="M218,21.3c1.1,0,2,0.9,2,2c0,1.1-0.9,2-2,2c-1.1,0-2-0.9-2-2C216.1,22.2,216.9,21.3,218,21.3
		z"/>
	<path id="XMLID_8959_" class="st0" d="M215.5,63.3c1.1,0,2,0.9,2,2c0,1.1-0.9,2-2,2c-1.1,0-2-0.9-2-2
		C213.5,64.2,214.4,63.3,215.5,63.3z"/>
	<circle id="XMLID_8958_" class="st0" cx="281.3" cy="21.7" r="2"/>
	<path id="XMLID_8957_" class="st0" d="M377.4,55.1c1.1,0,2,0.9,2,2c0,1.1-0.9,2-2,2c-1.1,0-2-0.9-2-2
		C375.4,56,376.3,55.1,377.4,55.1z"/>
	<path id="XMLID_8956_" class="st0" d="M289.4,8.7c1.1,0,2,0.9,2,2s-0.9,2-2,2c-1.1,0-2-0.9-2-2S288.3,8.7,289.4,8.7z"/>
	<path id="XMLID_8955_" class="st0 st56" d="M177.3,77.3c1.1,0,2,0.9,2,2s-0.9,2-2,2c-1.1,0-2-0.9-2-2S176.2,77.3,177.3,77.3z"/>
	<path id="XMLID_8954_" class="st0" d="M294.2,34.6c1.1,0,2,0.9,2,2c0,1.1-0.9,2-2,2c-1.1,0-2-0.9-2-2
		C292.2,35.5,293.1,34.6,294.2,34.6z"/>
	<path id="XMLID_8953_" class="st0" d="M218.3,32c1.1,0,2,0.9,2,2c0,1.1-0.9,2-2,2c-1.1,0-2-0.9-2-2C216.3,32.9,217.2,32,218.3,32z"
		/>
	<path id="XMLID_8952_" class="st0" d="M110.3,51.9c1.1,0,2,0.9,2,2c0,1.1-0.9,2-2,2c-1.1,0-2-0.9-2-2
		C108.3,52.7,109.2,51.9,110.3,51.9z"/>
	<path id="XMLID_8951_" class="st0" d="M240.2,33.9c1.1,0,2,0.9,2,2c0,1.1-0.9,2-2,2c-1.1,0-2-0.9-2-2
		C238.2,34.7,239.1,33.9,240.2,33.9z"/>
	<circle id="XMLID_8950_" class="st0" cx="47.7" cy="16.6" r="2"/>
	<path id="XMLID_8949_" class="st0 st57" d="M260.5,50.3c1.1,0,2,0.9,2,2c0,1.1-0.9,2-2,2c-1.1,0-2-0.9-2-2
		C258.5,51.1,259.4,50.3,260.5,50.3z"/>
	<path id="XMLID_8948_" class="st0" d="M151.9,52.7c1.1,0,2,0.9,2,2c0,1.1-0.9,2-2,2c-1.1,0-2-0.9-2-2
		C150,53.6,150.9,52.7,151.9,52.7z"/>
	<path id="XMLID_8947_" class="st0" d="M115.2,45.3c1.1,0,2,0.9,2,2c0,1.1-0.9,2-2,2c-1.1,0-2-0.9-2-2
		C113.2,46.2,114.1,45.3,115.2,45.3z"/>
	<path id="XMLID_8946_" class="st0" d="M136,70c1.1,0,2,0.9,2,2c0,1.1-0.9,2-2,2c-1.1,0-2-0.9-2-2C134,70.9,134.9,70,136,70z"/>
	<path id="XMLID_8945_" class="st0" d="M78.4,28.9c1.1,0,2,0.9,2,2s-0.9,2-2,2c-1.1,0-2-0.9-2-2S77.3,28.9,78.4,28.9z"/>
	<path id="XMLID_8944_" class="st0" d="M256.2,66.1c1.1,0,2,0.9,2,2c0,1.1-0.9,2-2,2c-1.1,0-2-0.9-2-2
		C254.3,67,255.2,66.1,256.2,66.1z"/>
	<path id="XMLID_8943_" class="st0" d="M221.3,51c1.1,0,2,0.9,2,2s-0.9,2-2,2c-1.1,0-2-0.9-2-2S220.2,51,221.3,51z"/>
	<path id="XMLID_8942_" class="st0 st58" d="M247,57.4c1.1,0,2,0.9,2,2c0,1.1-0.9,2-2,2c-1.1,0-2-0.9-2-2C245,58.3,245.9,57.4,247,57.4z"
		/>
	<circle id="XMLID_8941_" class="st0" cx="251.7" cy="44" r="2"/>
	<circle id="XMLID_8940_" class="st0" cx="187.4" cy="80.5" r="2"/>
	<path id="XMLID_8939_" class="st0" d="M176,4.1c1.1,0,2,0.9,2,2s-0.9,2-2,2c-1.1,0-2-0.9-2-2S175,4.1,176,4.1z"/>
	<circle id="XMLID_8938_" class="st0" cx="153.7" cy="43.4" r="2"/>
	<path id="XMLID_8937_" class="st0" d="M111.8,36.4c1.1,0,2,0.9,2,2c0,1.1-0.9,2-2,2s-2-0.9-2-2C109.8,37.2,110.7,36.4,111.8,36.4z"
		/>
	<path id="XMLID_8936_" class="st0 st59" d="M80.4,63c1.1,0,2,0.9,2,2s-0.9,2-2,2c-1.1,0-2-0.9-2-2S79.3,63,80.4,63z"/>
	<path id="XMLID_8935_" class="st0" d="M276,59.3c1.1,0,2,0.9,2,2c0,1.1-0.9,2-2,2c-1.1,0-2-0.9-2-2C274,60.2,274.9,59.3,276,59.3z"
		/>
	<path id="XMLID_8934_" class="st0" d="M215.4,75.2c1.1,0,2,0.9,2,2c0,1.1-0.9,2-2,2c-1.1,0-2-0.9-2-2
		C213.4,76.1,214.3,75.2,215.4,75.2z"/>
	<path id="XMLID_8933_" class="st0" d="M303.4,25.2c1.1,0,2,0.9,2,2c0,1.1-0.9,2-2,2s-2-0.9-2-2C301.4,26.1,302.3,25.2,303.4,25.2z"
		/>
	<circle id="XMLID_8932_" class="st0" cx="431" cy="44.9" r="2"/>
	<path id="XMLID_8931_" class="st0" d="M359.1,32.1c1.1,0,2,0.9,2,2c0,1.1-0.9,2-2,2c-1.1,0-2-0.9-2-2C357.1,33,358,32.1,359.1,32.1
		z"/>
	<path id="XMLID_8930_" class="st0 st60" d="M315.5,39.1c1.1,0,2,0.9,2,2c0,1.1-0.9,2-2,2c-1.1,0-2-0.9-2-2
		C313.5,39.9,314.4,39.1,315.5,39.1z"/>
	<path id="XMLID_8929_" class="st0" d="M121.4,4.6c1.1,0,2,0.9,2,2c0,1.1-0.9,2-2,2c-1.1,0-2-0.9-2-2C119.4,5.5,120.3,4.6,121.4,4.6
		z"/>
	<path id="XMLID_8928_" class="st0" d="M229.5,49.9c1.1,0,2,0.9,2,2c0,1.1-0.9,2-2,2c-1.1,0-2-0.9-2-2
		C227.6,50.8,228.5,49.9,229.5,49.9z"/>
	<circle id="XMLID_8927_" class="st0" cx="311.4" cy="23.8" r="2"/>
	<path id="XMLID_8926_" class="st0" d="M152.6,11c1.1,0,2,0.9,2,2c0,1.1-0.9,2-2,2c-1.1,0-2-0.9-2-2C150.7,11.9,151.5,11,152.6,11z"
		/>
	<circle id="XMLID_8925_" class="st0 st61" cx="73.3" cy="15.8" r="2"/>
	<path id="XMLID_8924_" class="st0" d="M166.6,40.9c1.1,0,2,0.9,2,2c0,1.1-0.9,2-2,2s-2-0.9-2-2C164.6,41.8,165.5,40.9,166.6,40.9z"
		/>
	<circle id="XMLID_8923_" class="st0" cx="248.8" cy="39" r="2"/>
	<path id="XMLID_8922_" class="st0" d="M198.5,47.3c1.1,0,2,0.9,2,2s-0.9,2-2,2c-1.1,0-2-0.9-2-2S197.4,47.3,198.5,47.3z"/>
	<circle id="XMLID_8921_" class="st0" cx="166" cy="52.6" r="2"/>
	<circle id="XMLID_8920_" class="st0" cx="99.8" cy="6.1" r="2"/>
	<path id="XMLID_8919_" class="st0" d="M241.4,40.2c1.1,0,2,0.9,2,2c0,1.1-0.9,2-2,2c-1.1,0-2-0.9-2-2
		C239.4,41.1,240.3,40.2,241.4,40.2z"/>
	<path id="XMLID_8918_" class="st0 st62" d="M260.4,40.5c1.1,0,2,0.9,2,2c0,1.1-0.9,2-2,2c-1.1,0-2-0.9-2-2
		C258.5,41.4,259.3,40.5,260.4,40.5z"/>
	<path id="XMLID_8917_" class="st0" d="M143.9,35.9c1.1,0,2,0.9,2,2c0,1.1-0.9,2-2,2c-1.1,0-2-0.9-2-2
		C142,36.8,142.8,35.9,143.9,35.9z"/>
	<circle id="XMLID_8916_" class="st0" cx="120.4" cy="78.6" r="2"/>
	<path id="XMLID_8915_" class="st0" d="M113.2,22c1.1,0,2,0.9,2,2c0,1.1-0.9,2-2,2c-1.1,0-2-0.9-2-2C111.2,22.9,112.1,22,113.2,22z"
		/>
	<circle id="XMLID_8914_" class="st0" cx="36" cy="47.9" r="2"/>
	<circle id="XMLID_8913_" class="st0" cx="27.3" cy="14.4" r="2"/>
	<path id="XMLID_8912_" class="st0" d="M59.3,13.1c1.1,0,2,0.9,2,2s-0.9,2-2,2c-1.1,0-2-0.9-2-2S58.2,13.1,59.3,13.1z"/>
	<path id="XMLID_8911_" class="st0 st63" d="M304.4,45.8c1.1,0,2,0.9,2,2c0,1.1-0.9,2-2,2c-1.1,0-2-0.9-2-2
		C302.4,46.7,303.3,45.8,304.4,45.8z"/>
	<path id="XMLID_8910_" class="st0" d="M112.7,65.1c1.1,0,2,0.9,2,2c0,1.1-0.9,2-2,2c-1.1,0-2-0.9-2-2
		C110.7,66,111.6,65.1,112.7,65.1z"/>
	<circle id="XMLID_8909_" class="st0" cx="126.7" cy="46.7" r="2"/>
	<path id="XMLID_8908_" class="st0" d="M155.4,71.4c1.1,0,2,0.9,2,2c0,1.1-0.9,2-2,2c-1.1,0-2-0.9-2-2
		C153.4,72.3,154.3,71.4,155.4,71.4z"/>
	<path id="XMLID_8907_" class="st0" d="M98.6,11.2c1.1,0,2,0.9,2,2c0,1.1-0.9,2-2,2c-1.1,0-2-0.9-2-2C96.7,12.1,97.6,11.2,98.6,11.2
		z"/>
	<path id="XMLID_8906_" class="st0" d="M236.6,47.3c1.1,0,2,0.9,2,2s-0.9,2-2,2c-1.1,0-2-0.9-2-2S235.5,47.3,236.6,47.3z"/>
	<path id="XMLID_8905_" class="st0 st64" d="M88.8,40.7c1.1,0,2,0.9,2,2s-0.9,2-2,2c-1.1,0-2-0.9-2-2S87.7,40.7,88.8,40.7z"/>
	<path id="XMLID_8904_" class="st0" d="M107.7,29.8c1.1,0,2,0.9,2,2c0,1.1-0.9,2-2,2c-1.1,0-2-0.9-2-2
		C105.7,30.7,106.6,29.8,107.7,29.8z"/>
	<path id="XMLID_8903_" class="st0" d="M7.2,27.2c1.1,0,2,0.9,2,2c0,1.1-0.9,2-2,2c-1.1,0-2-0.9-2-2C5.2,28.1,6.1,27.2,7.2,27.2z"/>
	<path id="XMLID_8902_" class="st0" d="M338.6,13.3c1.1,0,2,0.9,2,2c0,1.1-0.9,2-2,2c-1.1,0-2-0.9-2-2
		C336.7,14.1,337.5,13.3,338.6,13.3z"/>
	<path id="XMLID_8901_" class="st0" d="M80.1,17.5c1.1,0,2,0.9,2,2c0,1.1-0.9,2-2,2c-1.1,0-2-0.9-2-2C78.1,18.4,79,17.5,80.1,17.5z"
		/>
	<path id="XMLID_8900_" class="st0" d="M106.1,42.7c1.1,0,2,0.9,2,2c0,1.1-0.9,2-2,2c-1.1,0-2-0.9-2-2
		C104.1,43.5,105,42.7,106.1,42.7z"/>
	<circle id="XMLID_8899_" class="st0" cx="256" cy="58.2" r="2"/>
	<path id="XMLID_8898_" class="st0 st65" d="M272.7,84.5c1.1,0,2,0.9,2,2c0,1.1-0.9,2-2,2c-1.1,0-2-0.9-2-2
		C270.7,85.4,271.6,84.5,272.7,84.5z"/>
	<path id="XMLID_8897_" class="st0" d="M295,48.3c1.1,0,2,0.9,2,2c0,1.1-0.9,2-2,2c-1.1,0-2-0.9-2-2C293,49.1,293.9,48.3,295,48.3z"
		/>
	<path id="XMLID_8896_" class="st0" d="M43.9,7.9c1.1,0,2,0.9,2,2c0,1.1-0.9,2-2,2c-1.1,0-2-0.9-2-2C41.9,8.8,42.8,7.9,43.9,7.9z"/>
	<path id="XMLID_8895_" class="st0" d="M324.4,12.3c1.1,0,2,0.9,2,2s-0.9,2-2,2c-1.1,0-2-0.9-2-2S323.3,12.3,324.4,12.3z"/>
	<circle id="XMLID_8894_" class="st0" cx="27.3" cy="7.1" r="2"/>
	<path id="XMLID_8893_" class="st0" d="M340.4,4.9c1.1,0,2,0.9,2,2c0,1.1-0.9,2-2,2c-1.1,0-2-0.9-2-2C338.4,5.8,339.3,4.9,340.4,4.9
		z"/>
	<circle id="XMLID_8892_" class="st0" cx="62.9" cy="37.4" r="2"/>
	<circle id="XMLID_8891_" class="st0 st66" cx="124.7" cy="66.9" r="2"/>
	<circle id="XMLID_8890_" class="st0" cx="88.1" cy="54.6" r="2"/>
</g>
</svg>
