<?xml version="1.0" encoding="utf-8"?>
<!-- Generator: Adobe Illustrator 24.0.1, SVG Export Plug-In . SVG Version: 6.00 Build 0)  -->
<svg version="1.1" id="圖層_1" xmlns="http://www.w3.org/2000/svg" xmlns:xlink="http://www.w3.org/1999/xlink" x="0px" y="0px"
	 viewBox="0 0 488 495" style="enable-background:new 0 0 488 495;" xml:space="preserve">
<style type="text/css">
	.st0{fill:#2E88BF;}
	.st1{fill:#4CB4D4;}
	.st2{fill:#2A214F;}
	.st3{fill:#614CD4;}
	.st4{fill:#FFB0B0;}
	.st5{fill:#FFEEEE;}
	.st6{fill:#F28888;}
	.st7{fill:#D95F76;}
	.st8{fill:#FF8F8F;}
	.st9{fill:#311E69;}
	.st10{fill:#1E1240;}
	.st11{fill:#FF6161;}
	.st12{fill:#FFFFFF;}
	.st13{fill:#AD263D;}
	.st14{fill:#FFD6D6;}
	.st15{fill:#B24270;}
	.st16{fill:#D8E7EB;}
	.st17{fill:#F0FCFF;}
	.st18{fill:#F49D9D;}
	.st19{clip-path:url(#SVGID_2_);}
	.st20{fill:#8F83FF;}
	.st21{fill:#FF76E2;}
	.st22{fill:#FFE564;}
	.st23{fill:#75EFFF;}
	.st24{fill:#6CB749;}
	.st25{fill:#FF9971;}
	.st26{opacity:0.28;}
	.st27{fill:#C1F3FF;}
	.st28{fill:#87DCFF;}
	.st29{fill:#96E1FF;}
	.st30{fill:#6BDDF7;}
	.st31{fill:#D2E1FF;}
	.st32{fill:#93B5BA;}
	.st33{fill:#FFE0B6;}
	.st34{fill:#C17F5B;}
	.st35{fill:#B8D2D8;}
	.st36{fill:#F7C263;}
	.st37{fill:#FF9C9C;}
	.st38{fill:#FF9791;}
	.st39{fill:#FFF0F0;}
	.st40{fill:#C98624;}
	.st41{fill:#FFD592;}
	.a-hand{
		transition: all 0.2s ;
		animation:ghosta 2s  infinite;
		animation-timing-function: ease-in;
	}
	@keyframes ghosta{
		0%{ transform: skew(-0.5deg, -0.5deg) rotate(0deg);}
		50%{ transform: skew(-1.5deg, 0deg) rotate(-1deg);}
		70%{ transform: skew(-1.5deg, 0deg) rotate(-1deg);}
		100%{ transform: skew(-0.5deg, -0.5deg) rotate(0deg);}
	}
	.pen{
		transition: all 0.2s ;
		animation:pen 2s  infinite;
		animation-timing-function: ease-in;
	}
	@keyframes pen{
		0%{ transform: rotate(0deg);}
		10%{ transform: rotate(0deg);}
		50%{ transform: rotate(1deg);}
		70%{ transform: rotate(1deg);}
		100%{ transform: rotate(0deg);}
	}
</style>
<g id="bg">
	<g id="left">
		<g >
			<path class="st0" d="M8.3,203.3c1.8-0.5,3.6-0.6,5.5-0.3c2.3,5.3,4.7,12.2,6.8,20.9c5.5,23,4.8,35.8,20.9,52.2
				c16.1,16.4,22.9,32,28.4,56.7S85.3,376,85.3,376s26-5.2,34.3,14.4c2.4,5.8,4.8,11.4,6.9,16.3c-7.1,3.8-18.4,4.4-34.6-2
				C61.4,392.7-18.2,211.4,8.3,203.3z"/>
			<g>
				<path class="st1" d="M85.3,376c0,0-9.9-18.5-15.4-43.2s-12.3-40.3-28.4-56.7c-16.1-16.4-15.4-29.3-20.9-52.2
					c-2.1-8.6-4.5-15.6-6.8-20.9c27.3,4.7,70.7,90.2,70.7,90.2l30.4,77.7c0,0-6.1-23.8-7.9-36.2c-1.8-12.4-7.5-41.3-12-59.2
					c-2.8-11,3.1-23.3,8-31c0.5-0.3,1.1-0.6,1.6-0.9c28.1-14.9,30.9,146.6,30.9,148c0.1,5.9-2.8,11.8-9.1,15.2
					c-2.1-5-4.5-10.6-6.9-16.3C111.3,370.8,85.3,376,85.3,376z"/>
				<path class="st0" d="M95,275.5c4.5,17.9,10.2,46.8,12,59.2c1.8,12.4,7.9,36.2,7.9,36.2l-30.4-77.7c0,0-7.7-33.3,18.5-48.7
					C98.1,252.3,92.2,264.5,95,275.5z"/>
			</g>
		</g>
	</g>
	<g id="right">
		<g>
			<path class="st1" d="M344.6,397.2c0,0,77-47.5,93.9-74.7s-49.8,4.2-15.8-29.1s67.1-69.3,59.2-81.5s-70.1,59.5-70.1,59.5
				s54.7-117.1,21.1-124c-33.6-6.8-67.7,89.8-72.4,89.4c-2.8-0.3,23.5-75.8,0.1-71.8C338.2,168.8,270.4,382.5,344.6,397.2z"/>
			<path class="st0" d="M481.9,211.9c-7.9-12.2-70.1,59.5-70.1,59.5s53.1-113.6,22.5-123.6c-2.8,4-5.5,9.2-5.6,14.5
				c-0.4,11.2,4.2,11.8,0.1,26s-17,35.4-22.4,54.6s-1.9,46.6-13.2,62.5s-30.4,28.4-40,41.7c-5.5,7.6-16.5,24.2-25.7,41.2
				c4.6,4.4,10.2,7.5,17.1,8.8c0,0,77-47.5,93.9-74.7c16.9-27.2-49.8,4.2-15.8-29.1S489.8,224.1,481.9,211.9z"/>
		</g>
	</g>
	<g>
		<path class="st0" d="M378.7,374.8c0,0,4.7-53.7,23.3-54.8C420.6,318.9,422,348.2,378.7,374.8z"/>
		<path class="st1" d="M400,334.5c2.7-6.4,4.8-11.7,5.8-14.3c-0.3-0.1-0.6-0.1-0.9-0.2c-0.8,2-2.1,5.4-3.9,9.6l-3.5-8.3
			c-0.3,0.2-0.5,0.3-0.8,0.5l3.8,9c-0.7,1.6-1.4,3.3-2.1,5.1l-6-9.8c-0.2,0.3-0.4,0.5-0.6,0.8l6.1,10c-1.9,4.5-4.1,9.4-6.4,14.2
			l-4.8-14.1c-0.2,0.5-0.3,0.9-0.5,1.4l4.7,13.9c-4.1,8.6-8.5,16.6-12.1,20.9c-0.1,1-0.2,1.5-0.2,1.5s0.1,0,0.1-0.1
			c4.4-4.7,9.9-15.1,14.8-25.7l12.1,2.8c0.2-0.3,0.4-0.5,0.6-0.8l-12.4-2.8c1-2.2,2-4.4,3-6.6l14.8,0.5c0.1-0.3,0.3-0.6,0.4-0.9
			l-14.7-0.5c0.8-1.7,1.5-3.4,2.2-5.1l14.7-4.3c0-0.3,0-0.6,0-1L400,334.5z"/>
	</g>
	<path class="st2" d="M107.1,104.6c0-1-0.8-1.8-1.7-1.8l0,0c-0.8,0.1-1.4,0.7-1.5,1.6l-0.8,20l-35.2,2.5l0.8-19.6
		c0-1-0.8-1.8-1.7-1.8c-0.8,0.1-1.4,0.7-1.5,1.6L52.6,420.2c0,0.9,0.7,1.7,1.5,1.8c0.1,0,0.1,0,0.2,0c0.8-0.1,1.5-0.7,1.5-1.6
		l1.3-33.8l35.2-2.5L91,417.5c0,0.9,0.7,1.7,1.5,1.8c0.1,0,0.1,0,0.2,0c0.8-0.1,1.5-0.7,1.5-1.6L107.1,104.6z M66.5,158.8l35.2-2.5
		l-1,25l-35.2,2.5L66.5,158.8z M61.9,272.7l35.1-2.5l-1,25l-35.1,2.5L61.9,272.7z M62,269.2l1-25l35.1-2.5l-1,25L62,269.2z
		 M65.4,187.2l35.2-2.5l-1,25l-35,2.5c-0.1,0-0.1,0-0.2,0L65.4,187.2z M64.8,215.7l34.6-2.4l-1,25l-35.1,2.5l0.8-19.6
		c0-0.2,0-0.4-0.1-0.5l0.2-5C64.4,215.7,64.6,215.7,64.8,215.7z M92.5,380.7l-35.2,2.5l1-25l35.2-2.5L92.5,380.7z M93.7,352.2
		l-35.2,2.5l1-25.2c0.2,0.1,0.4,0.1,0.6,0.1l34.6-2.4L93.7,352.2z M59.9,326.2c-0.1,0-0.1,0-0.2,0l1-25.1l35.1-2.5l-0.2,4.9
		c0,0.1,0,0.2,0,0.3l-0.8,19.8L59.9,326.2z M101.9,152.9l-35.2,2.5l1-25l35.2-2.5L101.9,152.9z"/>
	<g>
		<path class="st3" d="M304.9,159.7c3.4,0.4,6.7-1.5,8.1-4.8c0.3-0.7,6.5-16.1,12-33.5c10.6-33.3,9.1-43.5,6.6-48.6
			c-1.5-3.1-4.1-5.4-7.2-6.3c-10.4-3-32.9-7.9-54.2-11.1c-12-1.8-22.1-2.8-30.2-3.1c-11.2-0.4-18.1,0.7-22.4,3.4
			c-4.7,3-11.2,10.8-19.7,44.6c-4.4,17.7-8.1,41.1-8.2,41.8c-0.7,4.2,2.1,8.2,6.3,8.9s8.2-2.1,8.9-6.3c0-0.2,3.6-23.2,7.8-40
			c7.6-30.5,12.7-35.6,13.2-36c0.5-0.3,7.7-3.2,42.7,2.1c19,2.9,38.8,7.1,49.3,10c0.3,3-0.1,12.3-7.8,36.5
			c-5.3,16.6-11.4,31.7-11.5,31.9c-1.6,4,0.3,8.5,4.3,10.1C303.6,159.4,304.3,159.6,304.9,159.7z"/>
	</g>
	<path class="st4" d="M157.9,159.2c0,0-3.7-51.3,18.7-53.1c22.3-1.8,164-3.9,184.5,18.9c20.7,23,25.8,277.6,13.7,291.1
		c-9,10-23.1,20.5-41.6,22.6C314.7,440.7,157.9,159.2,157.9,159.2z"/>
	<path class="st5" d="M316.9,123.8c-22.4-6.1-93.3-5.5-114.9-6.6c-15.6-0.8-31.4-0.1-39,0.3c-1.1,2.5-2,5.3-2.7,8.2
		c23.6,1,138.8,6.2,149.6,8.5c22.3,4.8,21.7,22.2,27.9,36.2c6.1,14,9.1,69.8,10.8,80.1c1.7,10.3,8.4,28.9,10.4,9.3
		s-9.6-93.3-13.7-111.1C341.3,131,339.4,129.9,316.9,123.8z"/>
	<path class="st6" d="M353.2,300.9c1.6-19-1.2-150.3-20.6-166.1c-17.7-14.4-148.6-13.7-171-13.5c-5.2,15.7-3.7,37.8-3.7,37.8
		s3.7,7.1,9.9,19.1C213.9,224.2,351.9,316.6,353.2,300.9z"/>
	<path class="st2" d="M90.2,175.9l0.9,3.1c0,0,8.8,1.6,7.8,3.3s-15.2,3.1-15.7,1c-0.6-2.2,0.9-6.7,1.7-7.3
		C85.5,175.3,90.2,175.9,90.2,175.9z"/>
	<path class="st2" d="M74.3,176.4l0.9,3.1c0,0,8.8,1.6,7.8,3.3s-15.2,3.1-15.7,1c-0.6-2.2,0.9-6.7,1.7-7.3
		C69.7,175.7,74.3,176.4,74.3,176.4z"/>
	<path class="st7" d="M94.5,78.2c0.3-0.7,1.3-0.7,1.5,0c1.9,4.7,6.8,16.2,11,18.8c4.7,2.9,13,11.9,10.7,14.4
		c-2.6,2.8-11.3-3.1-17-7.2S91.1,87,91.1,87L94.5,78.2z"/>
	<path class="st1" d="M96.4,100.6c0,0,7.4,19.8,8,35.1c0.4,11.8-9.4,40.5-13.9,41.7c-2.5,0.6-4.9,0.6-6.5,0.4
		c-1.2-0.1-2-1.3-1.8-2.4l7.1-37.1c0,0-14.4-24.3-11-30.4S96.4,100.6,96.4,100.6z"/>
	<g>
		<path class="st0" d="M96.4,100.6c0,0-3.3,0.3-7.2,1.2c2.1,10.3,4.8,22.8,6.2,26.6c2.5,6.8-3.2,37.5-5.6,39.7
			c-1.9,1.7-5.5,3.2-7,3.8l-0.7,3.4c-0.2,1.2,0.6,2.3,1.8,2.4c1.6,0.2,4,0.3,6.5-0.4c4.5-1.2,14.3-29.9,13.9-41.7
			C103.9,120.4,96.4,100.6,96.4,100.6z"/>
	</g>
	<path class="st1" d="M71.6,146.5c0.6-0.7-4.9-34.8-3.6-38.1c1.9-5.2,8.5-12.8,8.5-12.8l15.2,0.6c1.5,2.5-3.7,55.4-14.1,79.6
		c-0.8,1.9-2.6,3.1-4.7,2.7l-5.5-1.1C67.5,177.3,65.6,153.8,71.6,146.5z"/>
	<g>
		<path class="st0" d="M82.2,123c-2.7,6.5-4.2,33-6,39.8c-0.9,3.6-5.2,5.7-9,6.9c0,4.5,0.3,7.7,0.3,7.7l5.5,1.1
			c2,0.4,3.9-0.8,4.7-2.7c7.3-17,12-48.4,13.7-66.3C89.1,112.1,84.2,118,82.2,123z"/>
	</g>
	<path class="st8" d="M72.1,101.2c0.7-2,5.8-7.2,6.1-8.1c2.1-5.4-8.1-12.9-0.6-17.3c3.4-2,6.4-6.2,16-0.7c7.4,4.2-0.9,18.3,2.8,25.5
		C90.4,106.4,79.8,102.5,72.1,101.2z"/>
	<g>
		<path class="st9" d="M95.8,60c-0.4-2.6-3.8-1.9-3.8-1.9s0.5-1.5-1.6-2.4c-2-0.9-3.2,1.6-3.2,1.6c-1.2-1.1-1.4,0.2-1.4,0.2
			s-1.2-1.9-4.2,0.1c-2.6,1.7-1.4,3.8-0.9,4.5c-0.2-0.2-0.9-0.5-2.3,0.3c-2,1.2-0.1,3.4-0.1,3.4S77.9,72,84,72.5
			c6,0.5,12.8-2.9,13-5.4s-2.6-4-2.6-4S96.3,62.6,95.8,60z"/>
		<g>
			<path class="st9" d="M80.2,61.9l0.4,0.2C80.5,62,80.4,61.9,80.2,61.9z"/>
			<path class="st10" d="M94.3,63.1c0,0-6.6,3.1-10.4,2.5c-3.8-0.5-3.3-3.5-3.3-3.5l-0.4-0.2c-0.4-0.1-1-0.1-2,0.5
				c-2,1.2-0.1,3.4-0.1,3.4s-0.4,6.2,5.7,6.7c6,0.5,12.8-2.9,13-5.4C97,64.6,94.3,63.1,94.3,63.1z"/>
		</g>
		<path class="st11" d="M85.4,67.8l-1.1,6.1c-0.2,1,1.9,4,3.7,3c0.5-0.3,0.1-1.8-0.1-2.9l-0.4-5.5L85.4,67.8z"/>
		<path class="st9" d="M87.8,71.8c-1.3-0.6-2.3-2.8-2.3-2.8l2.1,0.3L87.8,71.8z"/>
		<path class="st11" d="M85.6,65.1l-0.2,1c-0.6,1.8,0.3,3.9,2.1,4.5c1.7,0.6,3.5-0.1,4.1-2.3c0.5-1.9-0.6-3.8-0.9-4.7
			C89.8,61.4,85.6,65.1,85.6,65.1z"/>
		<path class="st11" d="M85.8,66.1c0-0.2-0.1-0.4-0.1-0.6c0-0.4-0.1-1-0.7-0.7c-0.9,0.4-0.7,2.6,0.3,2.7
			C86,67.6,85.9,66.6,85.8,66.1z"/>
		<path class="st11" d="M90.8,66c0.1-0.2,0.1-0.4,0.1-0.6c0-0.4,0.2-1,0.8-0.6c0.8,0.5,0.5,2.6-0.5,2.7C90.4,67.5,90.6,66.5,90.8,66
			z"/>
		<path class="st12" d="M88.3,67.6c0,0,1.2,0.2,2.5,0.2c0,0-0.4,0.5-1.1,0.5C89.1,68.3,88.4,67.9,88.3,67.6z"/>
		<path class="st13" d="M87.8,69.9c0.7,0.1,2,0.1,2.6-0.3c0.5-0.3,1.1-1.2,1.2-1.4v0.1c-0.6,2.1-2.4,2.9-4.1,2.3
			c-1.1-0.4-1.9-1.3-2.2-2.4C86.1,69.3,87.1,69.8,87.8,69.9z"/>
		<g>
			<g>
				<path class="st9" d="M87.5,67c-0.4,0-0.8-0.2-1.1-0.5c-0.3-0.3-0.4-0.6-0.4-1l0,0c0.1-0.8,1-0.8,1.7-0.7c0.7,0.1,1.6,0.1,1.5,1
					c0,0.5-0.4,0.9-0.9,1.1C88,67,87.8,67,87.5,67z M86.3,65.6L86.3,65.6c0,0.3,0.1,0.5,0.3,0.7c0.2,0.2,0.5,0.4,0.9,0.4
					c0.7,0.1,1.3-0.3,1.4-0.9c0-0.4-0.3-0.5-1.2-0.6c-0.5,0-0.8-0.1-1.1,0C86.4,65.3,86.3,65.4,86.3,65.6z"/>
			</g>
			<g>
				<path class="st9" d="M91.2,67c-0.8,0.1-1.4-0.5-1.5-1.2l0,0c0-0.4,0.1-0.6,0.4-0.8c0.2-0.1,0.6-0.1,0.9-0.2c0.4,0,0.7,0,0.9,0
					c0.3,0.1,0.5,0.3,0.5,0.7c0,0.4-0.1,0.7-0.3,1c-0.2,0.2-0.3,0.3-0.6,0.4C91.4,67,91.3,67,91.2,67z M90.2,65.3
					c-0.1,0.1-0.2,0.2-0.2,0.4c0,0.5,0.5,1,1.1,0.9c0.3,0,0.5-0.1,0.7-0.3c0.2-0.2,0.3-0.5,0.3-0.7c0-0.3-0.1-0.4-0.3-0.4
					c-0.2-0.1-0.5,0-0.8,0C90.8,65.2,90.5,65.2,90.2,65.3C90.3,65.3,90.3,65.3,90.2,65.3z"/>
			</g>
			<g>
				<path class="st9" d="M89.7,65.8l0.2-0.2c-0.1-0.1-0.6-0.3-1,0l0.2,0.3C89.5,65.5,89.7,65.7,89.7,65.8z"/>
			</g>
		</g>
	</g>
	<path class="st4" d="M107.4,151.9c0,0,36.7-20.2,58.3-20.3c21.5-0.1,128.7,0.4,150.2,18c14.3,11.6,37.2,113.5,42.7,190.5
		c2.8,39.2,7,83.2-0.4,90c-18.6,17.2-76.3,16.5-76.3,16.5L107.4,151.9z"/>
	<path class="st14" d="M103.6,266.9c1-31.4-12.6-115.5,7.7-116.6s160.9-4.9,183.1,16.9c34.1,33.5,31,233.1,28,262.1
		c-3,29.1-177.9,23-216.5-1.3C85,415,102.6,296.1,103.6,266.9z"/>
	<g>
		<path class="st5" d="M313.3,236.2c-2,0-3.6,1.5-3.6,3.5s1.5,3.6,3.5,3.6s3.6-1.5,3.6-3.5S315.2,236.2,313.3,236.2z"/>
		<path class="st5" d="M310.4,204.2c0,0.8,0.2,1.5,0.6,2.1c-0.2-0.8-0.4-1.6-0.6-2.4C310.4,203.9,310.4,204,310.4,204.2z"/>
		<path class="st5" d="M295.7,225.1c1.2,0,2.3-0.6,3-1.5C298.1,224.6,297,225.2,295.7,225.1z"/>
		<path class="st5" d="M298.8,219.7c-0.6-1-1.7-1.6-2.9-1.6C297.1,218.1,298.2,218.7,298.8,219.7z"/>
		<path class="st5" d="M296.5,189.7c1.2,0,2.3-0.6,3-1.5C298.8,189.1,297.7,189.7,296.5,189.7z"/>
		<path class="st5" d="M299.6,184.2c-0.6-1-1.7-1.6-2.9-1.6C297.9,182.6,299,183.2,299.6,184.2z"/>
		<path class="st5" d="M311.7,307.2c-2,0-3.6,1.5-3.6,3.5s1.5,3.6,3.5,3.6s3.6-1.5,3.6-3.5C315.2,308.8,313.7,307.2,311.7,307.2z"/>
		<path class="st5" d="M312.5,271.7c-2,0-3.6,1.5-3.6,3.5s1.5,3.6,3.5,3.6s3.6-1.5,3.6-3.5C316,273.3,314.4,271.7,312.5,271.7z"/>
		<path class="st5" d="M294.2,296.1c1.2,0,2.3-0.6,3-1.5C296.5,295.6,295.4,296.2,294.2,296.1z"/>
		<path class="st5" d="M297.3,290.7c-0.6-1-1.7-1.6-2.9-1.6C295.6,289.1,296.6,289.7,297.3,290.7z"/>
		<path class="st5" d="M298,255.2c-0.6-1-1.7-1.6-2.9-1.6C296.3,253.6,297.4,254.2,298,255.2z"/>
		<path class="st5" d="M297.5,259.7c-0.7,0.6-1.6,1-2.5,1C295.9,260.7,296.8,260.3,297.5,259.7c0.2-0.2,0.3-0.3,0.4-0.5
			C297.8,259.3,297.7,259.5,297.5,259.7z"/>
		<path class="st5" d="M310.1,378.1c-2,0-3.6,1.5-3.6,3.5s1.5,3.6,3.5,3.6s3.6-1.5,3.6-3.5C313.7,379.8,312.1,378.2,310.1,378.1z"/>
		<path class="st5" d="M310.9,342.7c-2,0-3.6,1.5-3.6,3.5s1.5,3.6,3.5,3.6s3.6-1.5,3.6-3.5C314.4,344.3,312.9,342.7,310.9,342.7z"/>
		<path class="st5" d="M292.6,367.1c1.2,0,2.3-0.6,3-1.5C294.9,366.5,293.9,367.1,292.6,367.1z"/>
		<path class="st5" d="M295.7,361.6c-0.6-1-1.7-1.6-2.9-1.6C294,360,295.1,360.7,295.7,361.6z"/>
		<path class="st5" d="M296.5,326.2c-0.6-1-1.7-1.6-2.9-1.6C294.8,324.5,295.9,325.2,296.5,326.2z"/>
		<path class="st5" d="M295.9,330.6c-0.7,0.6-1.6,1-2.5,1C294.4,331.6,295.3,331.3,295.9,330.6c0.2-0.2,0.3-0.3,0.4-0.5
			C296.3,330.3,296.1,330.5,295.9,330.6z"/>
		<path class="st5" d="M309.4,413.6c-2,0-3.6,1.5-3.6,3.5s1.5,3.6,3.5,3.6s3.6-1.5,3.6-3.5C312.9,415.3,311.3,413.7,309.4,413.6z"/>
		<path class="st5" d="M294.1,432.6c-0.6-1-1.7-1.6-2.9-1.6C292.5,431,293.5,431.7,294.1,432.6z"/>
		<path class="st5" d="M291.1,438.1c1.2,0,2.3-0.6,3-1.5C293.4,437.5,292.3,438.1,291.1,438.1z"/>
		<path class="st5" d="M294.9,397.1c-0.6-1-1.7-1.6-2.9-1.6C293.2,395.5,294.3,396.2,294.9,397.1z"/>
		<path class="st5" d="M294.4,401.6c-0.7,0.6-1.6,1-2.5,1C292.8,402.6,293.7,402.2,294.4,401.6c0.2-0.2,0.3-0.3,0.4-0.5
			C294.7,401.3,294.5,401.5,294.4,401.6z"/>
		<path class="st5" d="M279.3,164.4c-2,0-3.6,1.5-3.6,3.5s1.5,3.6,3.5,3.6s3.6-1.5,3.6-3.5C282.8,166.1,281.3,164.5,279.3,164.4z"/>
		<path class="st5" d="M243.8,163.6c-2,0-3.6,1.5-3.6,3.5s1.5,3.6,3.5,3.6s3.6-1.5,3.6-3.5C247.3,165.3,245.8,163.7,243.8,163.6z"/>
		<path class="st5" d="M260.4,217.3c-2,0-3.6,1.5-3.6,3.5s1.5,3.6,3.5,3.6s3.6-1.5,3.6-3.5C263.9,218.9,262.4,217.3,260.4,217.3z"/>
		<path class="st5" d="M298.8,219.7c-0.6-1-1.7-1.6-2.9-1.6c-2,0-3.6,1.5-3.6,3.5s1.5,3.6,3.5,3.6c1.2,0,2.3-0.6,3-1.5
			c0.4-0.6,0.6-1.2,0.7-2C299.4,220.9,299.2,220.3,298.8,219.7z"/>
		<path class="st5" d="M277.8,235.4c-2,0-3.6,1.5-3.6,3.5s1.5,3.6,3.5,3.6s3.6-1.5,3.6-3.5C281.3,237.1,279.7,235.4,277.8,235.4z"/>
		<path class="st5" d="M242.3,234.6c-2,0-3.6,1.5-3.6,3.5s1.5,3.6,3.5,3.6s3.6-1.5,3.6-3.5C245.8,236.3,244.2,234.7,242.3,234.6z"/>
		<path class="st5" d="M278.5,199.9c-2,0-3.6,1.5-3.6,3.5s1.5,3.6,3.5,3.6s3.6-1.5,3.6-3.5C282.1,201.6,280.5,200,278.5,199.9z"/>
		<path class="st5" d="M243.1,199.1c-2,0-3.6,1.5-3.6,3.5s1.5,3.6,3.5,3.6s3.6-1.5,3.6-3.5C246.6,200.8,245,199.2,243.1,199.1z"/>
		<path class="st5" d="M261.2,181.8c-2,0-3.6,1.5-3.6,3.5s1.5,3.6,3.5,3.6s3.6-1.5,3.6-3.5C264.7,183.4,263.1,181.8,261.2,181.8z"/>
		<path class="st5" d="M299.6,184.2c-0.6-1-1.7-1.6-2.9-1.6c-2,0-3.6,1.5-3.6,3.5s1.5,3.6,3.5,3.6c1.2,0,2.3-0.6,3-1.5
			c0.4-0.6,0.6-1.2,0.6-2S300,184.8,299.6,184.2z"/>
		<path class="st5" d="M258.9,288.3c-2,0-3.6,1.5-3.6,3.5s1.5,3.6,3.5,3.6s3.6-1.5,3.6-3.5S260.8,288.3,258.9,288.3z"/>
		<path class="st5" d="M297.3,290.7c-0.6-1-1.7-1.6-2.9-1.6c-2,0-3.6,1.5-3.6,3.5s1.5,3.6,3.5,3.6c1.2,0,2.3-0.6,3-1.5
			c0.4-0.6,0.6-1.2,0.6-2C297.8,291.9,297.6,291.2,297.3,290.7z"/>
		<path class="st5" d="M276.2,306.4c-2,0-3.6,1.5-3.6,3.5s1.5,3.6,3.5,3.6s3.6-1.5,3.6-3.5C279.7,308.1,278.2,306.4,276.2,306.4z"/>
		<path class="st5" d="M240.7,305.6c-2,0-3.6,1.5-3.6,3.5s1.5,3.6,3.5,3.6s3.6-1.5,3.6-3.5C244.2,307.3,242.7,305.7,240.7,305.6z"/>
		<path class="st5" d="M277,270.9c-2,0-3.6,1.5-3.6,3.5s1.5,3.6,3.5,3.6s3.6-1.5,3.6-3.5C280.5,272.6,278.9,270.9,277,270.9z"/>
		<path class="st5" d="M241.5,270.1c-2,0-3.6,1.5-3.6,3.5s1.5,3.6,3.5,3.6s3.6-1.5,3.6-3.5C245,271.8,243.5,270.2,241.5,270.1z"/>
		<path class="st5" d="M262.5,254.4c-0.6-1-1.7-1.6-2.9-1.6s-2.3,0.6-3,1.5c-0.4,0.6-0.6,1.2-0.6,2c0,1,0.4,1.9,1,2.5
			c0.6,0.7,1.5,1.1,2.5,1.1s1.9-0.4,2.5-1c0.7-0.6,1.1-1.5,1.1-2.5C263.1,255.7,262.9,255,262.5,254.4z"/>
		<path class="st5" d="M298,255.2c-0.6-1-1.7-1.6-2.9-1.6s-2.3,0.6-3,1.5c-0.4,0.6-0.6,1.2-0.6,2c0,1,0.4,1.9,1,2.5
			c0.6,0.7,1.5,1.1,2.5,1.1s1.9-0.4,2.5-1c0.2-0.2,0.3-0.3,0.4-0.5c0.4-0.6,0.6-1.2,0.6-2C298.6,256.4,298.4,255.7,298,255.2z"/>
		<path class="st5" d="M257.3,359.2c-2,0-3.6,1.5-3.6,3.5s1.5,3.6,3.5,3.6s3.6-1.5,3.6-3.5C260.8,360.9,259.3,359.3,257.3,359.2z"/>
		<path class="st5" d="M295.7,361.6c-0.6-1-1.7-1.6-2.9-1.6c-2,0-3.6,1.5-3.6,3.5s1.5,3.6,3.5,3.6c1.2,0,2.3-0.6,3-1.5
			c0.4-0.6,0.6-1.2,0.7-2C296.3,362.9,296.1,362.2,295.7,361.6z"/>
		<path class="st5" d="M274.7,377.4c-2,0-3.6,1.5-3.6,3.5s1.5,3.6,3.5,3.6s3.6-1.5,3.6-3.5S276.6,377.4,274.7,377.4z"/>
		<path class="st5" d="M239.2,376.6c-2,0-3.6,1.5-3.6,3.5s1.5,3.6,3.5,3.6s3.6-1.5,3.6-3.5C242.7,378.3,241.1,376.6,239.2,376.6z"/>
		<path class="st5" d="M275.4,341.9c-2,0-3.6,1.5-3.6,3.5s1.5,3.6,3.5,3.6s3.6-1.5,3.6-3.5S277.4,341.9,275.4,341.9z"/>
		<path class="st5" d="M239.9,341.1c-2,0-3.6,1.5-3.6,3.5s1.5,3.6,3.5,3.6s3.6-1.5,3.6-3.5C243.5,342.8,241.9,341.1,239.9,341.1z"/>
		<path class="st5" d="M261,325.4c-0.6-1-1.7-1.6-2.9-1.6s-2.3,0.6-3,1.5c-0.4,0.6-0.6,1.2-0.6,2c0,1,0.4,1.9,1,2.5
			c0.6,0.7,1.5,1.1,2.5,1.1s1.9-0.4,2.5-1c0.7-0.6,1.1-1.5,1.1-2.5C261.6,326.6,261.4,325.9,261,325.4z"/>
		<path class="st5" d="M296.5,326.2c-0.6-1-1.7-1.6-2.9-1.6s-2.3,0.6-3,1.5c-0.4,0.6-0.6,1.2-0.6,2c0,1,0.4,1.9,1,2.5
			c0.6,0.7,1.5,1.1,2.5,1.1s1.9-0.4,2.5-1c0.2-0.2,0.3-0.3,0.4-0.5c0.4-0.6,0.6-1.2,0.6-2C297.1,327.4,296.8,326.7,296.5,326.2z"/>
		<path class="st5" d="M255.7,430.2c-2,0-3.6,1.5-3.6,3.5s1.5,3.6,3.5,3.6c2,0,3.6-1.5,3.6-3.5C259.3,431.9,257.7,430.3,255.7,430.2
			z"/>
		<path class="st5" d="M291.2,431c-2,0-3.6,1.5-3.6,3.5s1.5,3.6,3.5,3.6c1.2,0,2.3-0.6,3-1.5c0.4-0.6,0.6-1.2,0.7-2
			c0-0.7-0.2-1.4-0.6-2C293.5,431.7,292.5,431,291.2,431z"/>
		<path class="st5" d="M237.6,447.6c-1.1,0-2.1,0.5-2.8,1.3c1.8,0,3.6,0,5.5,0C239.6,448.1,238.7,447.6,237.6,447.6z"/>
		<path class="st5" d="M273.9,412.9c-2,0-3.6,1.5-3.6,3.5s1.5,3.6,3.5,3.6s3.6-1.5,3.6-3.5S275.8,412.9,273.9,412.9z"/>
		<path class="st5" d="M238.2,419.2c2,0,3.6-1.5,3.6-3.5s-1.5-3.6-3.5-3.6s-3.6,1.5-3.6,3.5C234.7,417.5,236.3,419.1,238.2,419.2z"
			/>
		<path class="st5" d="M256.5,394.7c-2,0-3.6,1.5-3.6,3.5c0,1,0.4,1.9,1,2.5c0.6,0.7,1.5,1.1,2.5,1.1s1.9-0.4,2.5-1
			c0.7-0.6,1.1-1.5,1.1-2.5C260,396.4,258.5,394.8,256.5,394.7z"/>
		<path class="st5" d="M294.9,397.1c-0.6-1-1.7-1.6-2.9-1.6c-2,0-3.6,1.5-3.6,3.5c0,1,0.4,1.9,1,2.5c0.6,0.7,1.5,1.1,2.5,1.1
			s1.9-0.4,2.5-1c0.2-0.2,0.3-0.3,0.4-0.5c0.4-0.6,0.6-1.2,0.6-2C295.5,398.4,295.3,397.7,294.9,397.1z"/>
		<path class="st5" d="M190.8,151.8c1.4,0,2.6-0.7,3.2-1.9c-2.1-0.1-4.2-0.1-6.3-0.2C188.2,151,189.4,151.8,190.8,151.8z"/>
		<path class="st5" d="M223.8,151.5c0.6,0.7,1.5,1.1,2.5,1.1c0.9,0,1.7-0.3,2.3-0.8C227,151.7,225.4,151.5,223.8,151.5
			C223.8,151.4,223.8,151.5,223.8,151.5z"/>
		<path class="st5" d="M208.3,162.9c-2,0-3.6,1.5-3.6,3.5s1.5,3.6,3.5,3.6s3.6-1.5,3.6-3.5C211.9,164.5,210.3,162.9,208.3,162.9z"/>
		<path class="st5" d="M172.8,162.1c-2,0-3.6,1.5-3.6,3.5s1.5,3.6,3.5,3.6s3.6-1.5,3.6-3.5C176.4,163.8,174.8,162.1,172.8,162.1z"/>
		<path class="st5" d="M155.3,151c1.3,0,2.4-0.6,3.1-1.6l0,0C157.7,150.4,156.6,151.1,155.3,151z"/>
		<path class="st5" d="M189.4,215.7c-2,0-3.6,1.5-3.6,3.5s1.5,3.6,3.5,3.6s3.6-1.5,3.6-3.5C192.9,217.4,191.4,215.8,189.4,215.7z"/>
		<path class="st5" d="M224.9,216.5c-1,0-1.9,0.4-2.5,1c-0.7,0.6-1.1,1.5-1.1,2.5s0.4,1.9,1,2.5c0.6,0.7,1.5,1.1,2.5,1.1
			c2,0,3.6-1.5,3.6-3.5C228.4,218.2,226.9,216.5,224.9,216.5z"/>
		<path class="st5" d="M206.8,233.8c-2,0-3.6,1.5-3.6,3.5s1.5,3.6,3.5,3.6s3.6-1.5,3.6-3.5C210.3,235.5,208.7,233.9,206.8,233.8z"/>
		<path class="st5" d="M171.3,233.1c-2,0-3.6,1.5-3.6,3.5s1.5,3.6,3.5,3.6s3.6-1.5,3.6-3.5C174.8,234.7,173.2,233.1,171.3,233.1z"/>
		<path class="st5" d="M207.6,198.4c-2,0-3.6,1.5-3.6,3.5s1.5,3.6,3.5,3.6s3.6-1.5,3.6-3.5S209.5,198.4,207.6,198.4z"/>
		<path class="st5" d="M172.1,197.6c-2,0-3.6,1.5-3.6,3.5s1.5,3.6,3.5,3.6s3.6-1.5,3.6-3.5C175.6,199.2,174,197.6,172.1,197.6z"/>
		<path class="st5" d="M153.9,214.9c2,0,3.5,1.7,3.5,3.6c0,2-1.7,3.5-3.6,3.5c2,0,3.6-1.5,3.6-3.5
			C157.4,216.6,155.9,215,153.9,214.9z"/>
		<path class="st5" d="M190.2,180.2c-2,0-3.6,1.5-3.6,3.5s1.5,3.6,3.5,3.6s3.6-1.5,3.6-3.5C193.7,181.9,192.2,180.3,190.2,180.2z"/>
		<path class="st5" d="M225.7,181c-1,0-1.9,0.4-2.5,1c-0.7,0.6-1.1,1.5-1.1,2.5s0.4,1.9,1,2.5c0.6,0.7,1.5,1.1,2.5,1.1
			c2,0,3.6-1.5,3.6-3.5C229.2,182.7,227.7,181,225.7,181z"/>
		<path class="st5" d="M154.7,179.4c2,0,3.5,1.7,3.5,3.6c0,2-1.7,3.5-3.6,3.5c2,0,3.6-1.5,3.6-3.5
			C158.2,181.1,156.7,179.5,154.7,179.4z"/>
		<path class="st5" d="M187.9,286.7c-2,0-3.6,1.5-3.6,3.5s1.5,3.6,3.5,3.6s3.6-1.5,3.6-3.5C191.4,288.4,189.8,286.7,187.9,286.7z"/>
		<path class="st5" d="M223.4,287.5c-1,0-1.9,0.4-2.5,1c-0.7,0.6-1.1,1.5-1.1,2.5s0.4,1.9,1,2.5s1.5,1.1,2.5,1.1
			c2,0,3.6-1.5,3.6-3.5S225.3,287.5,223.4,287.5z"/>
		<path class="st5" d="M205.2,304.8c-2,0-3.6,1.5-3.6,3.5s1.5,3.6,3.5,3.6s3.6-1.5,3.6-3.5C208.7,306.5,207.2,304.9,205.2,304.8z"/>
		<path class="st5" d="M169.7,304.1c-2,0-3.6,1.5-3.6,3.5s1.5,3.6,3.5,3.6s3.6-1.5,3.6-3.5S171.7,304.1,169.7,304.1z"/>
		<path class="st5" d="M206,269.3c-2,0-3.6,1.5-3.6,3.5s1.5,3.6,3.5,3.6s3.6-1.5,3.6-3.5C209.5,271,208,269.4,206,269.3z"/>
		<path class="st5" d="M170.5,268.6c-2,0-3.6,1.5-3.6,3.5s1.5,3.6,3.5,3.6s3.6-1.5,3.6-3.5S172.5,268.6,170.5,268.6z"/>
		<path class="st5" d="M152.4,285.9c2,0,3.5,1.7,3.5,3.6c0,2-1.7,3.5-3.6,3.5c2,0,3.6-1.5,3.6-3.5
			C155.9,287.6,154.3,286,152.4,285.9z"/>
		<path class="st5" d="M191.6,252.8c-0.6-1-1.7-1.6-2.9-1.6s-2.3,0.6-3,1.5c-0.4,0.6-0.6,1.2-0.6,2c0,1,0.4,1.9,1,2.5
			c0.6,0.7,1.5,1.1,2.5,1.1s1.9-0.4,2.5-1c0.7-0.6,1.1-1.5,1.1-2.5C192.1,254.1,191.9,253.4,191.6,252.8z"/>
		<path class="st5" d="M227,253.6c-0.6-1-1.7-1.6-2.9-1.6c-1,0-1.9,0.4-2.5,1c-0.2,0.2-0.3,0.3-0.4,0.5c-0.4,0.6-0.6,1.2-0.6,2
			c0,1,0.4,1.9,1,2.5c0.6,0.7,1.5,1.1,2.5,1.1s1.9-0.4,2.5-1c0.7-0.6,1.1-1.5,1.1-2.5C227.6,254.9,227.4,254.2,227,253.6z"/>
		<path class="st5" d="M156.1,252.1c-0.6-1-1.7-1.6-2.9-1.6C154.4,250.5,155.4,251.1,156.1,252.1c0.4,0.6,0.6,1.3,0.6,2
			c0,1-0.4,1.9-1.1,2.5s-1.6,1-2.5,1c1,0,1.9-0.4,2.5-1c0.7-0.6,1.1-1.5,1.1-2.5C156.6,253.3,156.4,252.6,156.1,252.1z"/>
		<path class="st5" d="M186.3,357.7c-2,0-3.6,1.5-3.6,3.5s1.5,3.6,3.5,3.6s3.6-1.5,3.6-3.5C189.8,359.3,188.3,357.7,186.3,357.7z"/>
		<path class="st5" d="M221.8,358.5c-1,0-1.9,0.4-2.5,1c-0.7,0.6-1.1,1.5-1.1,2.5s0.4,1.9,1,2.5c0.6,0.7,1.5,1.1,2.5,1.1
			c2,0,3.6-1.5,3.6-3.5S223.8,358.5,221.8,358.5z"/>
		<path class="st5" d="M203.7,375.8c-2,0-3.6,1.5-3.6,3.5s1.5,3.6,3.5,3.6s3.6-1.5,3.6-3.5C207.2,377.5,205.6,375.9,203.7,375.8z"/>
		<path class="st5" d="M168.2,375c-2,0-3.6,1.5-3.6,3.5s1.5,3.6,3.5,3.6s3.6-1.5,3.6-3.5C171.7,376.7,170.1,375.1,168.2,375z"/>
		<path class="st5" d="M204.4,340.3c-2,0-3.6,1.5-3.6,3.5s1.5,3.6,3.5,3.6s3.6-1.5,3.6-3.5C208,342,206.4,340.4,204.4,340.3z"/>
		<path class="st5" d="M169,339.5c-2,0-3.6,1.5-3.6,3.5s1.5,3.6,3.5,3.6s3.6-1.5,3.6-3.5C172.5,341.2,170.9,339.6,169,339.5z"/>
		<path class="st5" d="M150.8,356.9c2,0,3.5,1.7,3.5,3.6c0,2-1.7,3.5-3.6,3.5c2,0,3.6-1.5,3.6-3.5
			C154.3,358.6,152.8,356.9,150.8,356.9z"/>
		<path class="st5" d="M190,323.8c-0.6-1-1.7-1.6-2.9-1.6s-2.3,0.6-3,1.5c-0.4,0.6-0.6,1.2-0.6,2c0,1,0.4,1.9,1,2.5
			c0.6,0.7,1.5,1.1,2.5,1.1s1.9-0.4,2.5-1c0.7-0.6,1.1-1.5,1.1-2.5C190.6,325.1,190.4,324.4,190,323.8z"/>
		<path class="st5" d="M225.5,324.6c-0.6-1-1.7-1.6-2.9-1.6c-1,0-1.9,0.4-2.5,1c-0.2,0.2-0.3,0.3-0.4,0.5c-0.4,0.6-0.6,1.2-0.6,2
			c0,1,0.4,1.9,1,2.5c0.6,0.7,1.5,1.1,2.5,1.1s1.9-0.4,2.5-1c0.7-0.6,1.1-1.5,1.1-2.5C226.1,325.9,225.9,325.2,225.5,324.6z"/>
		<path class="st5" d="M154.5,323c-0.6-1-1.7-1.6-2.9-1.6C152.8,321.4,153.9,322.1,154.5,323c0.4,0.6,0.6,1.3,0.6,2
			c0,1-0.4,1.9-1.1,2.5s-1.6,1-2.5,1c1,0,1.9-0.4,2.5-1c0.7-0.6,1.1-1.5,1.1-2.5C155.1,324.3,154.9,323.6,154.5,323z"/>
		<path class="st5" d="M184.6,435.8c2,0,3.6-1.5,3.6-3.5s-1.5-3.6-3.5-3.6s-3.6,1.5-3.6,3.5C181.1,434.1,182.6,435.7,184.6,435.8z"
			/>
		<path class="st5" d="M220.2,429.4c-1,0-1.9,0.4-2.5,1c-0.7,0.6-1.1,1.5-1.1,2.5s0.4,1.9,1,2.5c0.6,0.7,1.5,1.1,2.5,1.1
			c2,0,3.6-1.5,3.6-3.5C223.8,431.1,222.2,429.5,220.2,429.4z"/>
		<path class="st5" d="M202.1,446.8c-0.9,0-1.7,0.3-2.3,0.8c1.6,0.1,3.2,0.2,4.8,0.3C204,447.2,203.1,446.8,202.1,446.8z"/>
		<path class="st5" d="M202.9,411.3c-2,0-3.6,1.5-3.6,3.5s1.5,3.6,3.5,3.6s3.6-1.5,3.6-3.5C206.4,413,204.8,411.3,202.9,411.3z"/>
		<path class="st5" d="M167.4,410.5c-2,0-3.6,1.5-3.6,3.5s1.5,3.6,3.5,3.6s3.6-1.5,3.6-3.5C170.9,412.2,169.4,410.6,167.4,410.5z"/>
		<path class="st5" d="M149.3,427.9c2,0,3.5,1.7,3.5,3.6c0,2-1.7,3.5-3.6,3.5c2,0,3.6-1.5,3.6-3.5
			C152.8,429.6,151.2,427.9,149.3,427.9z"/>
		<path class="st5" d="M185.5,393.2c-2,0-3.6,1.5-3.6,3.5c0,1,0.4,1.9,1,2.5c0.6,0.7,1.5,1.1,2.5,1.1s1.9-0.4,2.5-1
			c0.7-0.6,1.1-1.5,1.1-2.5C189,394.8,187.5,393.2,185.5,393.2z"/>
		<path class="st5" d="M221,393.9c-1,0-1.9,0.4-2.5,1c-0.7,0.6-1.1,1.5-1.1,2.5s0.4,1.9,1,2.5c0.6,0.7,1.5,1.1,2.5,1.1
			s1.9-0.4,2.5-1c0.7-0.6,1.1-1.5,1.1-2.5C224.5,395.6,223,394,221,393.9z"/>
		<path class="st5" d="M150,392.4c2,0,3.5,1.7,3.5,3.6c0,1-0.4,1.9-1.1,2.5s-1.6,1-2.5,1c1,0,1.9-0.4,2.5-1c0.7-0.6,1.1-1.5,1.1-2.5
			C153.6,394.1,152,392.4,150,392.4z"/>
		<path class="st5" d="M121.4,150c-0.9,0-1.8,0.1-2.7,0.1c0.4,0.1,0.7,0.2,1.1,0.2C120.4,150.3,120.9,150.2,121.4,150z"/>
		<path class="st5" d="M152.8,150c0.6,0.7,1.5,1.1,2.5,1.1c1.3,0,2.4-0.6,3.1-1.6c-2,0-4,0-6,0C152.5,149.6,152.7,149.8,152.8,150z"
			/>
		<path class="st5" d="M137.4,161.3c-2,0-3.6,1.5-3.6,3.5s1.5,3.6,3.5,3.6s3.6-1.5,3.6-3.5C140.9,163,139.3,161.3,137.4,161.3z"/>
		<path class="st5" d="M101.7,167.6c2,0,3.6-1.5,3.6-3.5c0-1.7-1.2-3.2-2.8-3.5c-0.6,2.1-1,4.4-1.4,6.9
			C101.3,167.6,101.5,167.6,101.7,167.6z"/>
		<path class="st5" d="M118.4,214.2c-2,0-3.6,1.5-3.6,3.5s1.5,3.6,3.5,3.6s3.6-1.5,3.6-3.5C122,215.8,120.4,214.2,118.4,214.2z"/>
		<path class="st5" d="M157.4,218.6c0-2-1.5-3.6-3.5-3.6c-1,0-1.9,0.4-2.5,1c-0.7,0.6-1.1,1.5-1.1,2.5s0.4,1.9,1,2.5
			c0.6,0.7,1.5,1.1,2.5,1.1C155.7,222.1,157.4,220.5,157.4,218.6z"/>
		<path class="st5" d="M135.8,232.3c-2,0-3.6,1.5-3.6,3.5s1.5,3.6,3.5,3.6s3.6-1.5,3.6-3.5C139.3,234,137.8,232.3,135.8,232.3z"/>
		<path class="st5" d="M103.8,235.1c0-1.3-0.7-2.4-1.7-3.1c0.1,1.9,0.3,3.8,0.4,5.7C103.2,237.2,103.8,236.2,103.8,235.1z"/>
		<path class="st5" d="M136.6,196.8c-2,0-3.6,1.5-3.6,3.5s1.5,3.6,3.5,3.6s3.6-1.5,3.6-3.5C140.1,198.5,138.5,196.8,136.6,196.8z"/>
		<path class="st5" d="M104.6,199.6c0-2-1.5-3.6-3.5-3.6c-0.3,0-0.6,0-0.9,0.1c0.1,2.3,0.1,4.6,0.2,6.9c0.2,0,0.4,0.1,0.5,0.1
			C102.9,203.2,104.5,201.6,104.6,199.6z"/>
		<path class="st5" d="M119.2,178.7c-2,0-3.6,1.5-3.6,3.5s1.5,3.6,3.5,3.6s3.6-1.5,3.6-3.5S121.2,178.7,119.2,178.7z"/>
		<path class="st5" d="M158.2,183.1c0-2-1.5-3.6-3.5-3.6c-1,0-1.9,0.4-2.5,1c-0.7,0.6-1.1,1.5-1.1,2.5s0.4,1.9,1,2.5
			c0.6,0.7,1.5,1.1,2.5,1.1C156.5,186.6,158.1,185,158.2,183.1z"/>
		<path class="st5" d="M116.9,285.1c-2,0-3.6,1.5-3.6,3.5s1.5,3.6,3.5,3.6s3.6-1.5,3.6-3.5C120.4,286.8,118.8,285.2,116.9,285.1z"/>
		<path class="st5" d="M155.8,289.5c0-2-1.5-3.6-3.5-3.6c-1,0-1.9,0.4-2.5,1c-0.7,0.6-1.1,1.5-1.1,2.5s0.4,1.9,1,2.5
			c0.6,0.7,1.5,1.1,2.5,1.1C154.2,293.1,155.8,291.5,155.8,289.5z"/>
		<path class="st5" d="M134.2,303.3c-2,0-3.6,1.5-3.6,3.5s1.5,3.6,3.5,3.6s3.6-1.5,3.6-3.5C137.8,304.9,136.2,303.3,134.2,303.3z"/>
		<path class="st5" d="M102.2,306.1c0-1.3-0.6-2.4-1.7-3.1c-0.2,2.1-0.4,4.2-0.6,6.3C101.3,308.8,102.2,307.6,102.2,306.1z"/>
		<path class="st5" d="M135,267.8c-2,0-3.6,1.5-3.6,3.5s1.5,3.6,3.5,3.6s3.6-1.5,3.6-3.5C138.5,269.5,137,267.8,135,267.8z"/>
		<path class="st5" d="M120.6,251.3c-0.6-1-1.7-1.6-2.9-1.6c-1.2,0-2.3,0.6-3,1.5c-0.4,0.6-0.6,1.2-0.6,2c0,1,0.4,1.9,1,2.5
			c0.6,0.7,1.5,1.1,2.5,1.1s1.9-0.4,2.5-1c0.7-0.6,1.1-1.5,1.1-2.5C121.1,252.5,120.9,251.9,120.6,251.3z"/>
		<path class="st5" d="M156.6,254.1c0-0.7-0.2-1.4-0.6-2c-0.6-1-1.7-1.6-2.9-1.6c-1,0-1.9,0.4-2.5,1c-0.2,0.2-0.3,0.3-0.4,0.5
			c-0.4,0.6-0.6,1.2-0.6,2c0,1,0.4,1.9,1,2.5c0.6,0.7,1.5,1.1,2.5,1.1s1.9-0.4,2.5-1C156.2,255.9,156.6,255,156.6,254.1z"/>
		<path class="st5" d="M115.3,356.1c-2,0-3.6,1.5-3.6,3.5s1.5,3.6,3.5,3.6s3.6-1.5,3.6-3.5C118.8,357.8,117.3,356.2,115.3,356.1z"/>
		<path class="st5" d="M154.3,360.5c0-2-1.5-3.6-3.5-3.6c-1,0-1.9,0.4-2.5,1c-0.7,0.6-1.1,1.5-1.1,2.5s0.4,1.9,1,2.5
			c0.6,0.7,1.5,1.1,2.5,1.1C152.6,364,154.2,362.5,154.3,360.5z"/>
		<path class="st5" d="M132.7,374.3c-2,0-3.6,1.5-3.6,3.5s1.5,3.6,3.5,3.6s3.6-1.5,3.6-3.5S134.6,374.3,132.7,374.3z"/>
		<path class="st5" d="M100.7,377.1c0-2-1.5-3.6-3.5-3.6c-0.5,0-1,0.1-1.4,0.2c0,2.2-0.1,4.4-0.1,6.6c0.4,0.2,0.8,0.3,1.3,0.3
			C99,380.6,100.6,379.1,100.7,377.1z"/>
		<path class="st5" d="M133.5,338.8c-2,0-3.6,1.5-3.6,3.5s1.5,3.6,3.5,3.6s3.6-1.5,3.6-3.5S135.4,338.8,133.5,338.8z"/>
		<path class="st5" d="M98,338c-0.1,0-0.3,0-0.4,0c-0.2,2.3-0.3,4.6-0.5,7c0.2,0.1,0.5,0.1,0.7,0.1c2,0,3.6-1.5,3.6-3.5
			C101.5,339.7,99.9,338,98,338z"/>
		<path class="st5" d="M119,322.3c-0.6-1-1.7-1.6-2.9-1.6c-1.2,0-2.3,0.6-3,1.5c-0.4,0.6-0.6,1.2-0.6,2c0,1,0.4,1.9,1,2.5
			c0.6,0.7,1.5,1.1,2.5,1.1s1.9-0.4,2.5-1c0.7-0.6,1.1-1.5,1.1-2.5C119.6,323.5,119.4,322.8,119,322.3z"/>
		<path class="st5" d="M155.1,325c0-0.7-0.2-1.4-0.6-2c-0.6-1-1.7-1.6-2.9-1.6c-1,0-1.9,0.4-2.5,1c-0.2,0.2-0.3,0.3-0.4,0.5
			c-0.4,0.6-0.6,1.2-0.6,2c0,1,0.4,1.9,1,2.5c0.6,0.7,1.5,1.1,2.5,1.1s1.9-0.4,2.5-1C154.6,326.9,155,326,155.1,325z"/>
		<path class="st5" d="M113.8,427.1c-1.9,0-3.5,1.5-3.6,3.4c1.8,0.9,3.9,1.8,6.1,2.6c0.6-0.6,1-1.4,1-2.4
			C117.3,428.8,115.7,427.1,113.8,427.1z"/>
		<path class="st5" d="M152.7,431.5c0-2-1.5-3.6-3.5-3.6c-1,0-1.9,0.4-2.5,1c-0.7,0.6-1.1,1.5-1.1,2.5s0.4,1.9,1,2.5
			c0.6,0.7,1.5,1.1,2.5,1.1C151.1,435,152.7,433.5,152.7,431.5z"/>
		<path class="st5" d="M131.9,409.7c-2,0-3.6,1.5-3.6,3.5s1.5,3.6,3.5,3.6s3.6-1.5,3.6-3.5C135.4,411.4,133.9,409.8,131.9,409.7z"/>
		<path class="st5" d="M99.9,412.6c0-1.5-0.9-2.9-2.3-3.4c0.3,2.1,0.7,4.1,1.2,5.9C99.4,414.5,99.9,413.6,99.9,412.6z"/>
		<path class="st5" d="M111.9,397.6c0.6,0.7,1.5,1.1,2.5,1.1s1.9-0.4,2.5-1c0.7-0.6,1.1-1.5,1.1-2.5c0-2-1.5-3.6-3.5-3.6
			s-3.6,1.5-3.6,3.5C110.9,396.1,111.3,397,111.9,397.6z"/>
		<path class="st5" d="M153.5,396c0-2-1.5-3.6-3.5-3.6c-1,0-1.9,0.4-2.5,1c-0.7,0.6-1.1,1.5-1.1,2.5s0.4,1.9,1,2.5
			c0.6,0.7,1.5,1.1,2.5,1.1s1.9-0.4,2.5-1C153.1,397.9,153.5,397,153.5,396z"/>
	</g>
	<g>
		<path class="st13" d="M204.3,21.3c0,0,19.3,30.2,16.8,31.1c-6.9,2.5-25.5-24.2-23.9-26.9C198.8,22.9,204.3,21.3,204.3,21.3z"/>
		<path class="st9" d="M200.8,4.8c0,0,0.2-0.3,2.2,0s1.8,2.5,1.9,5.2s1.3,2.1,2,3.1s-1.2,2.2-1.2,2.2s1.2,1.3,0.5,2.4
			s-2.5,0.7-2.5,0.7s-1.7,1.5-3.7,1.2s-6.3-2.9-6.3-2.9s-0.7,1.1-3.2,0c-2.4-1.1-1.2-3.3-1.2-3.3s-1.3-0.4-1.2-1.5s1-1.3,2.1-1.5
			s2.8-3.4,4.6-5.5C196.7,2.8,200.6,2.8,200.8,4.8z"/>
		<g>
			<path class="st10" d="M206.9,13.1c-0.7-1-1.9-0.4-2-3.1c-0.1-2.3,0-4.3-1.3-5c0.3,0.9,0.6,2.3,0.2,3.5c-0.7,1.9-5.4,4.6-7.8,4.2
				c-2-0.4-3.5-2.9-4.1-3.8c-0.7,0.9-1.2,1.5-1.7,1.6c-1.1,0.2-2,0.4-2.1,1.5s1.2,1.5,1.2,1.5s-1.2,2.2,1.2,3.3s3.2,0,3.2,0
				s4.4,2.6,6.3,2.9s3.7-1.2,3.7-1.2s1.8,0.4,2.5-0.7s-0.5-2.4-0.5-2.4S207.7,14.1,206.9,13.1z"/>
		</g>
		<path class="st11" d="M185.7,76.2c0.8-4.1-9.7-23.5-5.5-32.1c2.2-4.6,5.1-12,5.5-17.8c0.2-3,0.4-6,3.4-8.6c4.4-3.7,9.3-3.1,13.4,1
			c2.5,2.5,2.8,5.6-0.6,9.2c-3,3.2,2,11.4,3.4,13.2c4.9,6.3,10.9,24.2,9.6,34.8c-1.8,15.7-10.9,30.4-12.6,31.4
			c-2.8,1.7-4.1,0.4-4.3-1.1c-0.3-2.5,5.5-28,5.5-31.9c0-4-6.1-15.2-6.1-15.2c0.1,4.7,0.3,16.3-0.4,19.6c-1.7,8.2-12.1,25-20,29.4
			c-1.4,0.8-3.5,0.2-4-1.4C171.8,102.2,184.9,80.5,185.7,76.2z"/>
		<path class="st11" d="M196.9,12.1l-1.6,4.6c-0.3,0.8,0.9,3.3,2.5,2.8c0.4-0.2,0.3-1.4,0.3-2.3l0.4-4.3L196.9,12.1z"/>
		<path class="st9" d="M198.2,15.5c-0.9-0.6-1.4-2.5-1.4-2.5l1.6,0.5L198.2,15.5z"/>
		<path class="st11" d="M197.9,9.2l-0.9,1.7c-0.7,1.3-0.3,3,1,3.7c1.2,0.7,2.7,0.3,3.4-1.2c0.7-1.4,0.1-3-0.1-3.8
			C201,7.8,199,7.3,197.9,9.2z"/>
		<path class="st13" d="M198.4,14.1c0.5,0.2,1.5,0.3,2,0.1c0.4-0.2,1-0.8,1.1-0.9v0.1c-0.7,1.6-2.2,1.9-3.4,1.2
			c-0.8-0.4-1.3-1.3-1.4-2.1C197.2,13.4,197.9,13.9,198.4,14.1z"/>
		<path class="st13" d="M215.1,70.4c-4.3,2.2-9.1,19.9-10.3,23c-1.1,2.8-2.3,10.5-2.8,14.3c0.2-0.1,0.3-0.2,0.5-0.3
			c1.6-1,10.7-15.7,12.6-31.4C215.2,74.3,215.2,72.4,215.1,70.4z"/>
		<path class="st13" d="M197.1,78.9c0.1-0.3,0.1-0.7,0.2-1.2c-2.5-0.3-8.4,8.2-12.8,15.4c-5.2,8.5-9.7,11.8-7.9,15.3
			c0,0,0,0.1,0.1,0.1c0.2-0.1,0.3-0.1,0.4-0.2C185.1,103.8,195.4,87,197.1,78.9z"/>
		<path class="st3" d="M197.4,108.6c0.8-1.2,0.7-1.9,0.8-3c0,0,5.4-2.6,6.2-1.3c0.4,0.7-1.2,1.9-0.5,3c0.3,0.5,0.7,0.9,1.9,1.4
			c1.9,0.9,4.2,2.1,4.3,2.7c0.2,1.1-10.8,1.2-12.6,0.2C196.4,111.1,196.6,109.9,197.4,108.6z"/>
		<path class="st3" d="M172,108.8c0.6-0.9,0.8-1.6,1-2.4c0.1-0.5,0.5-1,1-1.2c1.7-0.7,5.4-1.9,6.4,0.1c0.3,0.7-0.9,3.2,0.3,3.6
			c1.9,0.9,4.2,2.1,4.3,2.7c0.2,1.1-10.8,1.2-12.6,0.2C171.3,111.3,171.1,110.1,172,108.8z"/>
		<path class="st11" d="M197.1,11c-0.1-0.2-0.1-0.3-0.1-0.5c0-0.3-0.2-0.8-0.6-0.5c-0.6,0.4-0.3,2.1,0.4,2.1
			C197.4,12.2,197.2,11.4,197.1,11z"/>
		<path class="st7" d="M181.4,41.6c-0.4,0.9-0.8,1.7-1.1,2.5c-4.2,8.7,6.3,28,5.5,32.1c-0.4,2.3-4.4,9.6-7.8,16.7
			c3.2,0.4,7.4,1,12,1.5c3.6-5.6,6.4-11.5,7.3-15.4c0.7-3.3,0.5-15,0.4-19.6c0,0,6.1,11.3,6.1,15.2c0,2.3-2.1,12.6-3.7,20.9
			c3.3,0.3,6.5,0.5,9.3,0.6c2.5-5.6,4.9-12.6,5.7-19.9c1.2-10.1-4.1-26.5-8.8-33.6C198.7,43.3,187.7,42.3,181.4,41.6z"/>
		<g>
			<path class="st3" d="M205.3,41.2c-1.4-1.8-6.4-10.1-3.4-13.2c3.4-3.6,3.1-6.7,0.6-9.2c-1-1-2.1-1.9-3.3-2.4
				c0.1,1,0.2,2.7-0.1,3.3c-0.4,1-0.9,2.3-2.8,1.1c-1.4-0.9-2-3.9-2.2-5.4c-0.6,0-1.4,0.2-2.1,0.6c0.8,1.6,1.1,6.2-0.7,7.8
				c-1.6,1.4-4.1,2.9-5.6,2.8c-0.5,5.8-3.3,13-5.5,17.6c-0.6,1.2-0.9,2.7-1,4.3c4,0.9,19,3.6,28.8-2.7
				C207.2,43.9,206.2,42.3,205.3,41.2z"/>
		</g>
		<path class="st9" d="M187.2,25.3c0,0,3,10.6,6.5,17.3s8.1,11.1,8.1,11.1S189.9,29.3,187.2,25.3z"/>
		<path class="st9" d="M208.1,45.7c-0.9-1.8-1.9-3.4-2.8-4.5c-1.4-1.8-6.4-10.1-3.4-13.2c3.4-3.6,3.1-6.7,0.6-9.2
			c-0.6-0.6-1.2-1.1-1.8-1.6c0.4,1.2,0.8,2.8,0.8,4.2c-0.1,3-1.7,7.4-4.7,7.5s-5.4-2.5-3.1,2.7s6.8,9.1,6.5,17.3
			C203,48.2,205.7,47.2,208.1,45.7z"/>
		<path class="st15" d="M204.5,95.7c1.7,0.1,3.3,0.2,4.7,0.3c2.5-5.6,4.9-12.6,5.7-19.9c1.2-10.1-4.1-26.5-8.8-33.6
			c-1.1,0.1-2.3,0.2-3.6,0.3c-2.1,0.9-4.2,2.3-3.8,4.6c0.9,4.3,7.1,13.2,9.3,18.7c2.1,5.5-0.8,24.6-1.8,26.8
			C205.9,93.7,205.1,94.7,204.5,95.7z"/>
		<path class="st12" d="M201.1,12.1c0,0-1,0.2-1.9,0c0,0,0.2,0.5,0.9,0.6C200.8,12.9,201.1,12.1,201.1,12.1z"/>
		<path class="st15" d="M186.7,88.8c-1,2-1.9,3.6-2.6,4.8c1.8,0.2,3.7,0.4,5.7,0.7c3.6-5.6,6.4-11.5,7.3-15.4
			c0.7-3.3,0.5-15,0.4-19.6c0,0-4.5,5.7-4.4,8.4C193.3,70.4,189.5,83.4,186.7,88.8z"/>
		<g>
			<path class="st13" d="M314.9,42.1c-1.2-0.3-2.3,0.8-1.9,2c1.1,3.8,2.9,10.7,1.9,12.1c-1.4,1.9-28.2-0.1-29.1,4.8s27,8,33.8,5.5
				s6.9-16.7,4-20.2C321.6,44.1,317.6,42.8,314.9,42.1z"/>
			<path class="st9" d="M335.2,118.5c-0.8-1.2-0.6-3.6-0.3-4.7l-6.4,0.4c0,0,1.1,2.5,0.4,3.6c-0.3,0.5-0.6,0.3-1.9,0.9
				c-1.9,1-4.3,2.3-4.4,3c-0.1,1.1,11.3,1.1,13.2,0C336.8,121,336.1,119.8,335.2,118.5z"/>
			<path class="st9" d="M356.8,119.5c-0.8-1.2-0.6-3.6-0.3-4.7l-6.4,0.4c0,0,1.1,2.5,0.4,3.6c-0.3,0.5-0.6,0.3-1.9,0.9
				c-1.9,1-4.3,2.3-4.4,3c-0.1,1.1,11.3,1.1,13.2,0C358.5,122,357.8,120.8,356.8,119.5z"/>
			<path class="st7" d="M358.4,60.4c0-2.5-1.2-5.9-2.3-6.3c-3.7,0.3-13.6,2.6-23.1,1c-1.2,2.6-19.8,20.3-21.1,29.7
				c-1.6,12.2,11.4,27.1,14,31.3c0.7,1.2,2.2,2,6.6,1.2c8.7-1.5-7.4-28.5-7.3-31.3c0.1-2.2,9.8-14.1,9.8-14.1
				c-2.8,6.1-6.7,11.6-5.8,17.4c1.3,8.7,15.7,21.4,18.6,26.8c0.6,1.1,8.5,4.6,9.1,2c2.3-10.3-14.4-27.2-14.7-29.4
				C342,85.9,358.4,74.1,358.4,60.4z"/>
			<path class="st15" d="M325.3,86.1C325.3,86,325.3,86,325.3,86.1c0-0.2,0-0.2,0-0.3c0,0,0-0.1,0-0.2v-0.1c0-0.1,0.1-0.1,0.1-0.2
				c0,0,0-0.1,0.1-0.1c0.2-0.4,0.5-1,0.9-1.6c0-0.1,0.1-0.1,0.1-0.2c0.3-0.5,0.7-1,1-1.6c0,0,0,0,0-0.1c0.1-0.2,0.2-0.3,0.4-0.5
				c0,0,0,0,0-0.1c0.5-0.8,1.1-1.6,1.7-2.4c0,0,0-0.1,0.1-0.1c0.1-0.1,0.2-0.2,0.2-0.3c0.1-0.1,0.1-0.2,0.2-0.3
				c0.3-0.4,0.6-0.8,0.9-1.2l0,0c0.1-0.2,0.2-0.3,0.3-0.4l0.1-0.1c0.1-0.1,0.1-0.2,0.2-0.3c0.1-0.1,0.2-0.2,0.2-0.3
				c0.3-0.3,0.5-0.6,0.7-0.9l0.1-0.1l0.1-0.1c0.1-0.2,0.3-0.4,0.4-0.5c0.4-0.5,0.7-0.9,1-1.2c0.2-0.2,0.3-0.4,0.4-0.5
				s0.2-0.2,0.2-0.3l0,0l0,0c0.1-0.1,0.1-0.1,0.1-0.1l0,0c0,0-8,0.1-11,5.7c-2.9,5.6-9.9-0.2-6.5,10.1s5.4,15.7,10.4,22.1
				c2.5,3.3,4.8,5.2,6.5,6.2c3.4-5.5-8.5-26.1-9.2-29.8c0,0,0,0,0-0.1C325.3,86.2,325.3,86.2,325.3,86.1z"/>
			<path class="st9" d="M356.1,54.2c-1.3,0.1-3.2,0.4-5.7,0.8l-12,12.1c0,0,3.2,1.8,9.6,0.1c4.2-1.1,8.2-4.2,10.4-7.2
				C358.3,57.5,357.1,54.5,356.1,54.2z"/>
			<path class="st9" d="M317.8,48.8c0,0,5.4,5.6,7.2,8.5c0.3-2,0.3-4.1,0.1-5.9C323,49.7,320.4,48.2,317.8,48.8z"/>
			<path class="st15" d="M335.4,86.3c-0.7,5.7,3.9,8.3,8.2,12.7c4.3,4.4,4.3,6.8,5.7,9.1c1,1.6,5,3.7,7.8,5.8
				c-1.8-10.1-14.4-23.2-14.7-25c0-0.1,0-0.2,0-0.2l0,0c0-0.1,0-0.2,0.1-0.3l0,0c0-0.1,0.1-0.2,0.1-0.3c0,0,0,0,0-0.1
				c0.1-0.1,0.1-0.2,0.2-0.3c0,0,0,0,0-0.1c0.1-0.1,0.2-0.2,0.3-0.4l0,0c0.1-0.1,0.2-0.3,0.3-0.4c0,0,0,0,0.1-0.1s0.2-0.3,0.3-0.4
				l0.1-0.1c0.1-0.1,0.2-0.3,0.4-0.4l0.1-0.1c0.1-0.1,0.2-0.3,0.4-0.4c0.1-0.1,0.1-0.1,0.2-0.2s0.1-0.2,0.2-0.3
				c4-4.5,11-11.8,12.8-20.1l0,0C352.1,68.9,335.9,81.7,335.4,86.3z"/>
			<path class="st12" d="M340.3,29c-4.8-2.7-8.9-2.8-17.1,0.9s-11.8,8.4-10.9,12.3c1.6,6.6,8.6,7,12.5,11.8
				c5.3,6.5,1.1,9.4,5.9,11.2c17.2,6.5,25-4.5,25.8-10.7C356.6,54.5,351.4,35.2,340.3,29z"/>
			<path class="st16" d="M356.6,54.5c0,0-5.2-19.3-16.3-25.5c-3.9-2.2-7.3-2.7-12.7-0.9c4.3,3.1,11.5,8.7,12.9,12.7
				c1.5,4.3,3,18.5,3.6,26C352.1,65.3,356,58.7,356.6,54.5z"/>
			<path class="st9" d="M315.4,26.4c0,0-2.6-1.3-1.6-3.8c1-2.7,5.3-2.1,7-0.5s3,4.3,1.8,5.1C321.5,27.9,315.6,28.7,315.4,26.4z"/>
			<path class="st9" d="M341.6,50.8l-16,13c-3.1,3.5-6.5,7.6-9.2,11.6c0,0,15.9-6.2,20.5-10.2C341.6,61.2,341.6,50.8,341.6,50.8z"/>
			<path class="st11" d="M321.2,25.7l4.9,4.4c0.5,0.8-1.7,4.1-3.5,3.8c-0.5-0.1-3.2-5-3.2-5L321.2,25.7z"/>
			<path class="st9" d="M321.3,32.2c-0.3-0.5-0.6-1-0.8-1.4l2-1.8C322.5,29,322.7,30.4,321.3,32.2z"/>
			<path class="st11" d="M318.9,24.4l3,2.4c0.9,0.9,1,2.3,0.1,3.2c-0.7,0.7-1.2,1.1-2.3,1.6c-0.9,0.5-1.9-0.1-2.6-1.2
				c-1-1.5-1.4-3.1-1.6-4C314.9,24.4,316.8,22.9,318.9,24.4z"/>
			<path class="st11" d="M320,25.6c0-0.2-0.1-0.5-0.2-0.7c-0.2-0.4-0.3-1.1,0.4-1c1.1,0.1,1.8,2.4,0.8,2.9
				C320.3,27.3,320.1,26.2,320,25.6z"/>
			<path class="st13" d="M321.3,29.7c-0.8,0.9-1.9,1.1-2.5,1.2c-0.4,0-0.7,0.3-0.9,0.5c0.6,0.5,1.2,0.6,1.8,0.3
				c1.1-0.5,1.6-0.9,2.3-1.6c0.6-0.7,0.7-1.6,0.4-2.3C322.3,28.3,321.8,29.1,321.3,29.7z"/>
			<path class="st12" d="M317.1,29.4c0,0,0.9-0.4,1.6-1.1c0,0,0.5,0.7-0.2,1.3C317.9,30.2,317.1,29.4,317.1,29.4z"/>
			<g>
				<g>
					<g>
						<polygon class="st17" points="258.9,80.3 309.3,74.3 315.5,58 264.8,64.6 						"/>
					</g>
				</g>
				<g>
					<path class="st12" d="M212.9,45.1c-4.3-1.6-9.1,0.6-10.8,4.9c-1.6,4.3,0.6,9.1,4.9,10.8l51.9,19.5l5.9-15.6L212.9,45.1z"/>
				</g>
				<g>
					<path class="st9" d="M258.9,81.1l-52.1-19.6c-4.7-1.8-7.1-7-5.3-11.7s7-7.1,11.7-5.3L265.1,64c0.4,0.1,0.6,0.6,0.4,1
						c-0.1,0.4-0.6,0.6-1,0.4l-51.9-19.5c-3.9-1.5-8.3,0.5-9.8,4.4s0.5,8.3,4.4,9.8L259,79.5l50.2-5.9c0.4-0.1,0.8,0.2,0.9,0.6
						s-0.2,0.8-0.6,0.9L258.9,81.1z"/>
				</g>
				<g>
					<polygon class="st9" points="276.1,41 210.5,43.8 265.6,64.9 315.1,57.4 					"/>
				</g>
				<g>
					<g>
						<path class="st9" d="M264.6,65.4c-0.2-0.1-0.4-0.3-0.5-0.6c-0.1-0.4,0.2-0.8,0.6-0.9l50-6.6c0.4-0.1,0.8,0.2,0.9,0.6
							c0.1,0.4-0.2,0.8-0.6,0.9l-50,6.6C264.8,65.4,264.7,65.4,264.6,65.4z"/>
					</g>
				</g>
			</g>
			<path class="st11" d="M335.1,29c-5.5,1.1-3.8,22.6-5.3,25.7c-1.5,3.2-28.4,16.2-27.4,20.3c1.1,4,27.6-3.7,35.2-13.4
				C345.2,52,341.8,27.6,335.1,29z"/>
			<path class="st13" d="M337.4,29.5c0.1,1.4,0.3,3.5,0.4,6.4c0.2,5.8-0.3,19.1-2.4,22.8s-9.9,4.5-13.1,8.4s-10.1,4.8-12.7,5.7
				c-2.6,0.9-5,2-4.7,3c0,0.1,0.2,0.2,0.5,0.2c7.2,0.1,26.2-6.6,32.4-14.4C344.3,53.2,342.5,33.3,337.4,29.5z"/>
			<path class="st11" d="M307,75.2c0.2,1.7-7.7,3.6-9.9,2.4c-2.2-1.1-3.1-1.5-2.3-1.8s2.6,0.3,3.7,0.1s0.8-0.9,0.4-1
				s-1.9-0.1-2.1-0.7c-0.2-0.7,0.2-0.3,1.5-0.8c1.4-0.4,4.5-1.1,6,0.1C305.7,74.7,306.9,74.4,307,75.2z"/>
		</g>
		<path class="st11" d="M189.4,17.8c2.4-2.1,3.4,0.8,4.1,2.1c3.6,7.3,17.9,36.4,17.4,38.7c-0.5,2.6-1.9,4-5.3,0.5
			c-3.4-3.4-19.8-32-18.9-36.8C187.3,19.6,188.5,18.7,189.4,17.8z"/>
		<path class="st13" d="M210.9,58.9c0-0.1,0-0.2,0.1-0.3c0.4-2.3-13.9-31.4-17.4-38.7c-0.6-1.2-1.5-3.9-3.7-2.4
			c0.9,1.8,2.8,5.7,3.9,8.9c1.4,4.2-0.9,3.7,2.9,8.1c3.8,4.4,9.7,19.1,11.5,21.1C208.9,56.6,210,57.8,210.9,58.9z"/>
		<path class="st11" d="M208,57.7c-0.6,0.4-0.8,1.2-0.6,1.8c0.2,1,0.6,1.9,1.1,2.5c0.6,0.8,4.6,3.2,5,2.1s-1.9-3.3-2.1-3.6
			c-0.3-0.5,1.2,0.5,2.1,0.5c0.7,0,0.9-0.7,0.6-0.8C212.3,59.6,209.7,56.5,208,57.7z"/>
	</g>
	<path class="st4" d="M117.1,319.3c0,0-6.4,61.7-3.7,76.6c2.7,14.9,68.7,26.2,107.8,25.6c65.4-1.1,59.4-6.8,65.7-100L117.1,319.3z"
		/>
	<path class="st6" d="M278.3,338.2c0,0-54.4,10.6-85.4,9.9s-75.5-19.4-75.5-19.4s63.8-5,93-2.9C239.7,328,278.3,338.2,278.3,338.2z"
		/>
	<path class="st5" d="M314,158.5c5.4,8.7,19.2,55.6,22.7,72s7.7,32.6,7.7,32.6l4.9,1.9c-9.5-56.3-23.5-107.4-33.4-115.5
		c-21.5-17.5-128.7-18.1-150.2-18c-4.8,0-10.4,1.1-16.2,2.7c5.3,0.4,13.6,1,21.6,1.2c13.1,0.3,98.3,6.1,110.4,9.5
		C294.7,148.6,308.6,149.8,314,158.5z"/>
	<path class="st18" d="M279.4,321.3c-5.3,84.7-1.8,90-65.1,91.1c-32.3,0.6-83-7.1-101.1-18.2c0.1,0.6,0.1,1.2,0.2,1.6
		c2.7,14.9,68.7,26.2,107.8,25.6c65.4-1.1,59.4-6.8,65.7-100L279.4,321.3z"/>
	<polygon class="st4" points="114.1,283.2 115.4,305.4 110.5,329.4 291.6,338.5 292.7,288.7 	"/>
	<path class="st3" d="M132.1,159.4l16.2-1.2c3.3-0.2,6.1,2.1,6.6,5.3l4.4,31.8c0.5,3.6-2.2,6.9-5.8,7l-17.4,0.8
		c-3.3,0.2-6.1-2.3-6.4-5.5l-3.2-31.4C126.1,162.8,128.6,159.7,132.1,159.4z"/>
	<path class="st3" d="M239.9,162.7l16.2,0.7c3.3,0.1,5.8,2.8,5.9,6.1l0.6,32.1c0.1,3.6-3,6.5-6.6,6.3l-17.4-1.3
		c-3.3-0.2-5.8-3-5.7-6.3l0.5-31.6C233.5,165.3,236.4,162.5,239.9,162.7z"/>
	<path class="st5" d="M294.3,167.3c-22.2-21.8-162.7-18-183.1-16.9c-20.3,1.1-6.7,85.2-7.7,116.6c-0.5,17-6.8,64.6-7.7,103.8
		c1.5-7.8,3.4-18.2,3.6-23.3c0.2-8.6,5.6-48.7,7-56.4c1.5-7.7-2-44.9-1-53.4s-3.1-76.3,5.1-80.3c5.8-2.8,15.2-3.6,33.9-3.3
		s83.4,2.9,97.5,6.1c14.1,3.2,42.1,6.2,50.3,13.8c3.8,3.5,9.5,10.3,14.4,16.6C303.3,180.1,299.2,172,294.3,167.3z"/>
	<g>
		<g>
			<g>
				<defs>
					<path id="SVGID_1_" d="M315.9,149.5c7.7,6.3,17.9,38.7,26.5,79.3c4.9-5.7,9.3-11.7,9.8-15.4c1-8.6,15.8-78.4,15.3-93.2
						c-0.5-14.8-32.5-15-71-22.9s-109-7.4-118.3-4.2c-7.1,2.4-4.4,27-2.8,38.5C209.3,131.7,296.7,133.9,315.9,149.5z"/>
				</defs>
				<clipPath id="SVGID_2_">
					<use xlink:href="#SVGID_1_"  style="overflow:visible;"/>
				</clipPath>
				<g class="st19">
					<path class="st0" d="M181.9,101.2c0,0,59.1-5.2,92.2,0c33.2,5.2,66.7,15.7,66.7,15.7l1.6,112l-13.9-11.6l-75.7-96L181.9,101.2z
						"/>
					<path class="st5" d="M333.4,121.3c-3.7-2.6-37.2-12.2-62.9-16.2c-25.6-4-65.9-3.1-65.9-3.1l1.9,6.3l46.2,13.1l75.7,96l7.4,6.2
						C336.1,205.8,336.7,123.6,333.4,121.3z"/>
					<path class="st1" d="M181.5,131.6l0.4-30.4c0,0,99.1,0.8,143.1,20.2l3.5,95.9L181.5,131.6z"/>
				</g>
			</g>
		</g>
	</g>
	<path class="st18" d="M292.2,313.1c-59.6-4-176.8-7.6-176.8-7.6c-0.2,8.6,123.1,9.7,176.8,9.7V313.1z"/>
	<path class="st4" d="M138.9,265.6l120.9,4.5c5.6,0.2,10.2-4.2,10.4-9.8l0.8-35.8c0.1-5.5-4.3-10.1-9.8-10.2l-123.7-2.7
		c-5.9-0.1-10.6,4.8-10.2,10.6c0.6,9.9,1.5,24.3,2,33.8C129.5,261.3,133.7,265.4,138.9,265.6z"/>
	<path class="st9" d="M96.8,83.6l-3.2,10c1.1,2.6,2.6,5.6,4.4,7.8h0.1c1.3-1-0.1-4.6-0.6-8C96.9,89.9,96.8,83.6,96.8,83.6z"/>
	<path class="st18" d="M133.7,330.6c0,0-6,19.1-0.5,22.8c3.8,2.6,9.6,3,12.5,0.3s0.5-22.5,0.5-22.5L133.7,330.6z"/>
	<path class="st7" d="M93.7,75c-1.8-1-3.4-1.7-4.8-2.1c0.8,1.9,3.2,5.9,3.3,8.6c0.1,3.7-0.8,14.1-5.4,22.2c3.7,0.1,7.1-0.6,9.7-3.1
		C92.8,93.3,101.1,79.2,93.7,75z"/>
	<path class="st4" d="M323.1,260.5c0,0,40.2-2.1,56.3-9.2c0,0,2.2,74.5,1.9,91.5l-53.7,11.1C327.5,353.9,329.5,272.3,323.1,260.5z"
		/>
	<path class="st6" d="M128.6,243.4c18.8-1.1,47.7-2.3,80.1-1.6c28.6,0.6,49.4,2.9,61.7,4.8l0.2-7.2c-12.5-1.8-32.8-4.1-60.9-4.7
		c-0.3,0-0.6,0-0.9,0c-32.6-0.7-61.7,0.5-80.7,1.6C128.3,238.7,128.4,241.1,128.6,243.4z"/>
	<g>
		<path class="st4" d="M268.6,430c-28.4,3.2-120.2-1.3-144.5-7.9c-17.4-4.7-24.7-14.8-27.4-20c1.3,13.1,4.1,22.8,9.2,26
			c38.6,24.3,213.5,30.4,216.5,1.3c0.3-2.7,0.6-7,0.8-12.4C310.2,421.2,287.5,427.9,268.6,430z"/>
	</g>
	<g>
		<path class="st20" d="M140.3,178.9c-3.4-0.1-6.5-2.4-7.3-5.9c-0.2-0.7-4.2-16.9-7.3-34.9c-5.9-34.5-3.1-44.3,0.1-49
			c1.9-2.9,4.8-4.7,8-5.2c10.7-1.6,33.7-3.3,55.2-3.6c12.1-0.1,22.3,0.2,30.3,1.1c11.1,1.2,17.8,3.2,21.7,6.5
			c4.3,3.6,9.7,12.2,13.4,46.9c1.9,18.1,2.4,41.9,2.4,42.6c0.1,4.3-3.2,7.8-7.5,8c-4.3,0.1-7.8-3.2-8-7.5c0-0.2-0.4-23.5-2.2-40.7
			c-3.3-31.3-7.7-37-8.1-37.5c-0.5-0.3-7.2-4.3-42.6-3.8c-19.2,0.2-39.4,1.7-50.2,3.1c-0.7,2.9-1.6,12.1,2.7,37.2
			c3,17.2,6.9,33,7,33.1c1,4.1-1.5,8.3-5.6,9.4C141.7,178.8,141,178.9,140.3,178.9z"/>
	</g>
	<path class="st9" d="M82.5,106.3c3.7,2.1,0-8.6,0-8.6s-2.7-3.1-5.1-3.5c-0.5,0.6-1.1,1.3-1.8,2.1C76.8,98.9,79.6,104.7,82.5,106.3z
		"/>
	<g>
		<g>
			<polygon class="st3" points="95,125.4 194.5,75.2 152.8,70.6 53.3,120.8 			"/>
			<polygon class="st10" points="95,125.4 94.4,130.9 52.7,126.3 53.3,120.8 			"/>
			<polygon class="st9" points="95,125.4 194.5,75.2 193.9,80.7 94.4,130.9 			"/>
		</g>
		<g>
			<g>
				<path class="st11" d="M84.8,116.1l11.1-5.6c0.7-0.3,0.5-1.4-0.3-1.4l-8.6-0.9c-1.1-0.1-2.2,0.1-3.1,0.6l-11.1,5.6
					c-0.7,0.3-0.5,1.4,0.3,1.4l8.6,0.9C82.7,116.8,83.8,116.6,84.8,116.1z"/>
				<path class="st10" d="M104.1,118.1l11.1-5.6c0.7-0.3,0.5-1.4-0.3-1.4l-8.6-0.9c-1.1-0.1-2.2,0.1-3.1,0.6l-11.1,5.6
					c-0.7,0.3-0.5,1.4,0.3,1.4l8.6,0.9C102,118.8,103.1,118.6,104.1,118.1z"/>
			</g>
			<g>
				<path class="st21" d="M105.5,105.7l11.1-5.6c0.7-0.3,0.5-1.4-0.3-1.4l-8.6-0.9c-1.1-0.1-2.2,0.1-3.1,0.6L93.5,104
					c-0.7,0.3-0.5,1.4,0.3,1.4l8.6,0.9C103.4,106.4,104.5,106.2,105.5,105.7z"/>
				<path class="st12" d="M124.7,107.6l11.1-5.6c0.7-0.3,0.5-1.4-0.3-1.4l-8.6-0.9c-1.1-0.1-2.2,0.1-3.1,0.6l-11.1,5.6
					c-0.7,0.3-0.5,1.4,0.3,1.4l8.6,0.9C122.7,108.3,123.8,108.1,124.7,107.6z"/>
			</g>
			<g>
				<path class="st22" d="M126.6,94.7l11.1-5.6c0.7-0.3,0.5-1.4-0.3-1.4l-8.6-0.9c-1.1-0.1-2.2,0.1-3.1,0.6L114.6,93
					c-0.7,0.3-0.5,1.4,0.3,1.4l8.6,0.9C124.6,95.4,125.7,95.2,126.6,94.7z"/>
				<path class="st23" d="M145.9,96.7l11.1-5.6c0.7-0.3,0.5-1.4-0.3-1.4l-8.6-0.9c-1.1-0.1-2.2,0.1-3.1,0.6L133.9,95
					c-0.7,0.3-0.5,1.4,0.3,1.4l8.6,0.9C143.9,97.3,145,97.1,145.9,96.7z"/>
			</g>
			<g>
				<path class="st24" d="M147.8,83.7l11.1-5.6c0.7-0.3,0.5-1.4-0.3-1.4l-8.6-0.9c-1.1-0.1-2.2,0.1-3.1,0.6L135.8,82
					c-0.7,0.3-0.5,1.4,0.3,1.4l8.6,0.9C145.8,84.4,146.8,84.2,147.8,83.7z"/>
				<path class="st25" d="M167.1,85.7l11.1-5.6c0.7-0.3,0.5-1.4-0.3-1.4l-8.6-0.9c-1.1-0.1-2.2,0.1-3.1,0.6L155.1,84
					c-0.7,0.3-0.5,1.4,0.3,1.4l8.6,0.9C165.1,86.4,166.1,86.2,167.1,85.7z"/>
			</g>
		</g>
		<g class="st26">
			<polygon class="st27" points="95.6,119.9 195.1,69.7 153.4,65.1 53.9,115.4 			"/>
			<polygon class="st28" points="95.6,119.9 95,125.4 53.3,120.8 53.9,115.4 			"/>
			<polygon class="st29" points="95.6,119.9 195.1,69.7 194.5,75.2 95,125.4 			"/>
		</g>
	</g>
	<g>
		<path class="st8" d="M77.3,77.2c5.5,1.3,8.6,17.3,13.2,21.6c7.4,6.9,18.7,8.7,17.9,15c-0.8,6.5-20.9-1.6-25.5-6.9
			c-5.5-6.3-9.1-18.3-9.4-24.1C73.3,78.7,75.6,76.8,77.3,77.2z"/>
		<path class="st7" d="M76.3,77.2c0.2,1.2,0.5,3.2,0.2,4.7c-0.5,2.3,0.9,4.8,2.7,8.7c1.8,3.9,1.7,6.4,4.1,10.4
			c2.3,4.1,6,3.7,9.2,5.6c2.6,1.6,12.9,4.5,15.8,7.9c-2.3,5-20.9-2.7-25.3-7.7c-5.5-6.3-9.1-18.3-9.4-24.1
			C73.3,79.4,74.9,77.5,76.3,77.2z"/>
		<path class="st11" d="M106.7,111.4c0.3-0.4,2-0.2,2.8,0c1.5,0.3,2.5,0,3.1-0.4s0.5,0.8-0.3,1.3c-0.9,0.4-2.6,0.5-1.8,0.9
			c0.7,0.4,5.1,1.1,4,2.7c-2.4,3.4-6.7,1.1-8.8-0.7C105.6,115.2,104.6,113.9,106.7,111.4z"/>
	</g>
	<g>
		<g>
			<path class="st9" d="M385.4,435.4c-0.8,0-1.6-0.5-1.8-1.4l-52.2-199.2c-0.3-1,0.3-2,1.3-2.2c1-0.3,2,0.3,2.2,1.3l52.2,199.2
				c0.3,1-0.3,2-1.3,2.2C385.7,435.4,385.6,435.4,385.4,435.4z"/>
		</g>
		<g>
			<path class="st9" d="M412.2,435.4c-0.8,0-1.6-0.5-1.8-1.4l-52.2-199.2c-0.3-1,0.3-2,1.3-2.2c1-0.3,2,0.3,2.2,1.3l52.2,199.2
				c0.3,1-0.3,2-1.3,2.2C412.5,435.4,412.3,435.4,412.2,435.4z"/>
		</g>
		<g>
			<path class="st9" d="M365.4,257.1h-26.6c-1,0-1.8-0.8-1.8-1.8c0-1,0.8-1.8,1.8-1.8h26.6c1,0,1.8,0.8,1.8,1.8
				C367.2,256.3,366.4,257.1,365.4,257.1z"/>
		</g>
		<g>
			<path class="st9" d="M372.8,286.4h-26.1c-1,0-1.8-0.8-1.8-1.8s0.8-1.8,1.8-1.8h26.1c1,0,1.8,0.8,1.8,1.8S373.8,286.4,372.8,286.4
				z"/>
		</g>
		<g>
			<path class="st9" d="M381.3,315.7h-26.6c-1,0-1.8-0.8-1.8-1.8s0.8-1.8,1.8-1.8h26.6c1,0,1.8,0.8,1.8,1.8S382.3,315.7,381.3,315.7
				z"/>
		</g>
		<g>
			<path class="st9" d="M388.2,345h-25.7c-1,0-1.8-0.8-1.8-1.8s0.8-1.8,1.8-1.8h25.7c1,0,1.8,0.8,1.8,1.8
				C390.1,344.2,389.2,345,388.2,345z"/>
		</g>
		<g>
			<path class="st9" d="M395.2,374.3h-25.8c-1,0-1.8-0.8-1.8-1.8s0.8-1.8,1.8-1.8h25.8c1,0,1.8,0.8,1.8,1.8S396.2,374.3,395.2,374.3
				z"/>
		</g>
		<g>
			<path class="st9" d="M403.2,403.6h-25.8c-1,0-1.8-0.8-1.8-1.8s0.8-1.8,1.8-1.8h25.8c1,0,1.8,0.8,1.8,1.8
				C405,402.8,404.2,403.6,403.2,403.6z"/>
		</g>
	</g>
</g>
<g>
	<g class="a-hand">
		<path class="st13" d="M144.1,372.9c0,0,16.3-7.1,21.1-10.3c2.8-1.8,10.3-18.8,14.8-19.1c4.4-0.3-1.6,18.5-5,24.5
			c-2.7,4.7-25.7,14.1-28.2,12.9C144.4,379.7,144.1,372.9,144.1,372.9z"/>
		<path class="st16" d="M147.8,371.1c0,0,7-6.6,11.2-5.7s3.8,3.7,4.2,5.1c0.4,1.5,0.9,1,0.7,2.6s0.4,3.9-0.2,4.9
			c-0.6,1.1-10.2,2.9-13.4,2.4C147.2,380.1,144.3,373.9,147.8,371.1z"/>
		<g>
			<path class="st0" d="M210,334c-8.2-14.4-25.7-21.7-42.2-16.6s-26.8,21-25.4,37.5l-8.5,2.6l3.4,14.4l1.3,0.7l84.6-26.2l-4.7-15.1
				l-1.3-0.7L210,334z M172.5,332.5c8.1-2.5,16.6,0.3,21.7,6.4l-36,11.1C159,342.1,164.4,335,172.5,332.5z"/>
			<path class="st1" d="M208.7,333.3c-8.2-14.4-25.7-21.7-42.2-16.6s-26.8,21-25.4,37.5l-8.5,2.6l4.7,15.1l84.6-26.2l-4.7-15.1
				L208.7,333.3z M171.2,331.8c8.1-2.5,16.6,0.3,21.7,6.4l-36,11.1C157.7,341.4,163.1,334.3,171.2,331.8z"/>
			<path class="st30" d="M142.3,353.7c0,0-0.9-12.1,5.6-21.1s10.5-10.7,12.7-11.2s-6.4,12.5-6.6,14.9c-0.2,2.5-3.4,16-6.6,16.6
				C144.1,353.6,142.3,353.7,142.3,353.7z"/>
			<path class="st30" d="M158.2,350.6l36-11.7c0,0,6.7-1,5.8,1.2c-1,2.2-32.4,10.6-34.7,10.8C163.1,351.2,158.2,350.6,158.2,350.6z"
				/>
		</g>
		<path class="st11" d="M154.3,374.6c0,0,16.9-5.6,21.9-8.3c2.9-1.6,12.2-19.1,16.7-18.9s-3.5,19.6-7.4,25.2
			c-3.1,4.4-26.9,11.7-29.2,10.3C153.9,381.5,154.3,374.6,154.3,374.6z"/>
		<path class="st12" d="M154.6,374.3c0,0,7-6.6,11.2-5.7s3.8,3.7,4.2,5.1c0.4,1.5,0.9,1,0.7,2.6s0.4,3.9-0.2,4.9
			c-0.6,1.1-10.2,2.9-13.4,2.4C154,383.3,151.2,377,154.6,374.3z"/>
		<path class="st11" d="M191.3,347.6c0,0,0.3-1.6,0.2-2s-1.1-1.1-0.8-1.4s1.3,0.4,1.6,0.8s2.3-2.9,2.8-2.7c0.5,0.2,0.5,1.4,0.8,1.9
			c0.3,0.4,0.5,1.3-0.5,3.2C194.3,349.3,191.1,350.8,191.3,347.6z"/>
	</g>
	<path class="st11" d="M168.3,485.9c-1.3-1.8-4.5-3.1-4.5-3.1s3.6-26.3,0.9-50.1c-1.4-12.5-7.4-28-8.4-30.3
		c-3.8,0.6-19.5-2.7-21.5-2.9c-1.3,2.1-3.7,5.2-4.6,11.2c-1.4,9.5,4,24.3,4.3,31.9c0.1,2.1,3,39.5,3,39.5c0.1,0.5,0.1,1,0,1.5
		c-0.2,1-0.5,2.8-0.2,3c2.2,1.3,12.1,1,10.8-0.7c-1.3-1.8-4.5-3.1-4.5-3.1s6.5-44.1,2.4-56.6c3,4.3,5.7,13.7,6,17.3
		c0.7,8.8,5.8,38.7,5.8,38.7c0.1,0.5,0.1,1,0,1.5c-0.2,1-0.5,2.8-0.2,3C159.8,487.9,169.6,487.7,168.3,485.9z"/>
	<g>
		<path class="st9" d="M168.5,474.1c0.2-10.3-0.7-24.5-2.4-39.9c-1.4-12.5-8.7-29.5-9.7-31.8c-3.8,0.6-19.5-2.7-21.5-2.9
			c-1.3,2.1-3.7,5.2-4.6,11.2c-1.4,9.5,2.6,52.8,0.2,63.7c6.1,2.3,13.6,2.2,16.1-0.2c1.6-13.5,2.5-38.9-0.5-47.9
			c3,4.3,2.9,13,3.2,16.6c0.5,5.9,2.4,21.4,1.8,32.1C157.4,478.7,167.3,476.4,168.5,474.1z"/>
	</g>
	<g>
		<path class="st9" d="M168.3,485.9c-0.5-0.7-1.3-1.3-2-1.8c-0.7,0.5-6.4-1-7.4-1.1c-0.6-0.1-1,0.2-1.2,0.4c0,0.1,0,0.2,0,0.2
			c-0.2,1-0.5,2.8-0.2,3C159.8,487.9,169.6,487.7,168.3,485.9z"/>
	</g>
	<g>
		<path class="st9" d="M148.1,485.9c-0.5-0.7-1.3-1.3-2-1.8c-0.7,0.5-6.4-1-7.4-1.1c-0.6-0.1-1,0.2-1.2,0.4c0,0.1,0,0.2,0,0.2
			c-0.2,1-0.5,2.8-0.2,3C139.5,487.9,149.4,487.7,148.1,485.9z"/>
	</g>
	<path class="st11" d="M145.5,372.5c0,0,0.5-3.2,0.9-4.5c0.3-1.1,0.7-1.7,1.3-2c1.2-0.6,2,7,1.4,7.3
		C148.5,373.7,145.5,372.5,145.5,372.5z"/>
	<path class="st11" d="M150,362.7c0,0,1.2,2.4,1.5,3.8s-0.3,3-1.6,3.4c-0.9,0.3-3.3-0.9-3.1-2.7C147,365.4,150,362.7,150,362.7z"/>
	<path class="st13" d="M150.2,369.3c-0.9,0.3-3.3-0.9-3.1-2.7c0-0.1,0-0.2,0-0.2c-0.2,0.3-0.3,0.5-0.3,0.8c-0.2,1.8,2.2,3,3.1,2.7
		c0.8-0.3,1.3-0.9,1.5-1.7C151.2,368.7,150.7,369.1,150.2,369.3z"/>
	<path class="st10" d="M156.3,402.4c-0.8,0.1-2.2,0.1-3.8-0.1c-1.3,2.3-2.1,4.7-1.7,6.9c1.1,6.9,7,33.5,8.5,38.1
		c1.4,4.4-3.4,21.3-3.2,29.3c5.6,0.9,11.6-0.8,12.4-2.6c0.2-10.3-0.7-24.5-2.4-39.9C164.6,421.7,157.4,404.7,156.3,402.4z"/>
	<path class="st12" d="M156.9,404l-1.4-5.5c-0.4-2.8,0.1-5.7,1.3-8.2c1.9-3.9,4.1-11.1,0.4-14.5c-5-4.5-16.4-6-18.7,2.7
		c-1.3,4.8,0.1,9.7-3.8,21.3c-0.9,2.6,4.9,5.3,9.9,5.6C153.4,405.8,156.9,404,156.9,404z"/>
	<path class="st9" d="M151.4,361.7c-0.4-1.6-1.7-2-2.4-2c-1.3,0-2.4-0.2-4.8,1.7c-1.8,1.4-1.4,7.4,1.7,8.6c1.4,0.5,3.2-2.1,3.5-2.9
		c0.1-0.3,0.8-2,1-3.6l0.7,0.7C151.1,364.2,151.9,363.2,151.4,361.7z"/>
	<path class="st11" d="M150,367.1c0,0,0.1-0.7-0.4-1c-0.6-0.3-0.9,0.4-0.5,1.4S150,368.2,150,367.1z"/>
	<path class="st10" d="M147.1,365.3c-1.6,0-3-0.9-3.9-1.5c-0.2,2.3,0.7,5.3,2.8,6.2c1.4,0.5,3.2-2.1,3.5-2.9
		c0.1-0.2,0.4-1.1,0.7-2.1C149.4,365.1,148.4,365.3,147.1,365.3z"/>
	<path class="st9" d="M144.1,362.7c0,0-3.1-2-5.6,0s-0.9,2.7-0.9,5.7s-4.7,2-4.6,4.5c0.2,2.5,5.5,2.3,6,4.8c0.4,2.6-4.4,2-2.8,4.3
		s8.3,0.9,9-3.6c0.7-4.4-3.1-5.9-1.7-6.6C144.8,371.2,146.1,363.2,144.1,362.7z"/>
	<g>
		<path class="st10" d="M145.9,426.2c0.1,0.1,0.2,0.3,0.3,0.4C146.1,426.4,146,426.3,145.9,426.2z"/>
		<path class="st10" d="M145.9,426.2c-0.9-1.1-5.3,3.9-4.1,12c1.2,8.2-5.5,22.9-5.9,31.6c-0.1,2.3-0.1,4.3-0.2,6
			c4.5,0.7,8.9,0.1,10.6-1.6C148.1,460.6,148.9,435.2,145.9,426.2z"/>
	</g>
</g>
<g id="b">
	<g id="two">
		<g>
			<path class="st10" d="M388.8,256.8l-14.7-5.6c0,0-13.4-24.7-18.6-22.4s13.7,39.7,22.9,38.6C387.6,266.1,388.8,256.8,388.8,256.8z
				"/>
			<g>
				<path class="st3" d="M379.9,216.7c-9.6,13-64.9,88.7-77.1,103.9c-1.4,1.7-2.8,0.7-1.8-1.2c9.3-17.1,55.7-96.2,64-110
					c5.1-8.5,13.4-15.4,17.5-18.7c5-4,8.8-2.5,7,3.7C388,199.4,385.8,208.8,379.9,216.7z"/>
				<path class="st9" d="M379.9,216.7c-9.6,13-64.9,88.7-77.1,103.9c-0.6,0.7-1.2,0.9-1.6,0.8c0.5-0.8,52.6-82.3,61.7-92.7
					c6.2-7.1,18.8-27.4,26.2-39.6c0.9,0.9,1.2,2.6,0.4,5.2C388,199.4,385.8,208.8,379.9,216.7z"/>
				<g>
					<path class="st31" d="M367.9,205.1c4.9-6.5,11.1-11.7,14.5-14.4c5-4,8.8-2.5,7,3.7c-1.3,4.6-3.3,12.8-8.1,20.2
						C378.2,214.3,372.2,212.7,367.9,205.1z"/>
				</g>
				<path class="st32" d="M374.6,212.3c0,0,9.9-12.9,15.1-22.2c0.4,1,0.3,2.4-0.2,4.3c-1.3,4.6-3.3,12.8-8.1,20.2
					C379.7,214.4,377.2,213.9,374.6,212.3z"/>
				<g>
					<path class="st33" d="M386.2,191.1c0,0,5.9,3.8,9.4-0.4s10.1-19.1,12.8-22.1c1.4-1.5-5,2.1-6.2,1.6s4.5-3.5,2.3-3.1
						C395,168.8,376.6,184.2,386.2,191.1z"/>
					<path class="st34" d="M393.9,172.1l0.9,2.6c0,0,1.3-0.5,3.8-2s1,0.1,1.4,0.5c0.5,0.4-0.5,1.4-1.2,3.6c-0.7,2.1,2.5-1.9,3.6-3
						c0.6-0.6,0.7,1.6,0.7,3.7c-2.7,5.1-5.6,10.8-7.6,13.2c-3.5,4.2-9.4,0.4-9.4,0.4C379.7,186.4,386.1,177.7,393.9,172.1z"/>
				</g>
			</g>
			<g>
				<g>
					<path class="st9" d="M377.7,270.7c-3.1,4.9-19.6,4.6-26.9,4.2c-10-0.5-14.2-16.9-9.1-27.5c5.1-10.7,9.4,17.6,9.4,17.6
						s16.7-2.9,23.1-3.4C381.7,261,378.6,269.2,377.7,270.7z"/>
				</g>
			</g>
			<path class="st11" d="M342.3,245.6c0,0,0.4-3.1,1.8-4.8s3.6-4.3,4.2-3.1c0.2,0.4-1.9,4.9-1.9,4.9s2.1-1.5,2.9-0.8
				c0.8,0.6,0.2,0.8-0.4,1.2c-1.2,0.8-1.8,2.9-2.4,3.7C345.8,247.5,342,247.4,342.3,245.6z"/>
		</g>
		<path class="st9" d="M378.8,367.8c0,0-2,0.4-2.7,0.8c-0.7,0.5-0.5,2.9,4.3,2.8C385.2,371.4,378.8,367.8,378.8,367.8z"/>
		<path class="st9" d="M386.5,336.6c0,0-0.6,1.8-1.3,2.5s-4,2.1-4.1,2.8c0,0.8,8.3,0.8,9.3,0.3c1.1-0.5,0.2-1.7,0-3.3
			C390.2,337.4,388.4,335.7,386.5,336.6z"/>
		<path class="st9" d="M377.8,368.2c-0.6,0.2-0.8,0.9-0.5,1.6c0.5,1.4,8.3,2.1,8.7,0.7s-1.6-4.4-1.6-4.4S379.3,367.6,377.8,368.2z"
			/>
		<g>
			<path class="st11" d="M385.8,248.6l1.4,3.4c0.4,1.2-0.2,2.4-1.4,2.8c-0.9,0.3-1.5,0.4-2.7,0.3c-1,0-1.6-1-1.7-2.3
				c-0.1-1.7,0.2-3.3,0.5-4.2C382.5,246.8,384.8,246.4,385.8,248.6z"/>
			<path class="st13" d="M387.3,252v-0.1c-0.1,0.8-0.6,1.6-1.5,1.8c-0.9,0.3-1.5,0.4-2.7,0.3c-0.8,0-1.4-0.6-1.6-1.5
				c0,0.1,0,0.2,0,0.4c0.1,1.3,0.7,2.2,1.7,2.3c1.2,0,1.8,0,2.7-0.3C387,254.4,387.7,253.1,387.3,252z"/>
			<path class="st11" d="M386.6,251l2.8,5.8c-1.2,2.7-6.5,1.3-6.1,0.4l2.2-5.1L386.6,251z"/>
			<path class="st9" d="M386.4,254c0,0,1.6-0.1,2-1.7s0.8-4.2,0.2-5.3c-0.5-0.9-1.8-2.9-3.9-3c-6.9-0.2-3,6.7-2.4,7
				C383,251.3,384.3,254.3,386.4,254z"/>
			<path class="st10" d="M382.6,244.3c-0.2,1.2-0.4,3.7,0.5,4.3s4.2,1,5.8-0.3c0,1.2-0.3,2.8-0.5,4c-0.4,1.6-2,1.7-2,1.7
				c-2.2,0.2-3.4-2.7-4-3C381.9,250.8,378.9,245.5,382.6,244.3z"/>
			<path class="st11" d="M382.4,251.4c0,0-0.2-1.3,0.5-1c0.7,0.4,0.5,2,0.2,2.2C382.8,252.8,382.5,252,382.4,251.4z"/>
		</g>
		<path class="st3" d="M384,291.1c0,0,14.7,0.1,14.7-0.4c5.6,0.5,7.3-0.5,9.5-0.5c0.2,0.9,1.5,1.5,1.7,6.9
			C410,304.6,386,325,386,325s-2.7,16.4,2.1,41.7c0.3,1.8-2,2.4-7.4,1.2c-1-0.2-1.9-0.6-2.6-0.9c-1.2-0.5-2-1.6-2.2-2.9
			c-1-6.4-4.4-27.8-3.6-35.6C373.4,315.8,384,291.1,384,291.1z"/>
		<path class="st9" d="M381.4,298.3c-1-0.3-1.6-1.3-1.5-2.3c0.7-14.1-10.9-24.8-8.7-29.9c4.7-10.9,19.5-13.1,24.6-10.1
			c6.6,3.9,11.8,18.4,12.9,32.8c0.1,1-0.2,2.1-0.8,2.9C403.3,297.8,387.8,300.6,381.4,298.3z"/>
		<path class="st9" d="M409.9,297.1c-0.1-5.3-1.5-6-1.7-6.9c-0.4,0-0.8,0-1.2,0.1c-0.2,1.5,0.4,4,0.4,6c0,3.1-2.6,9-4.7,10.2
			c-2,1.2-9,4.1-10.6,5.7s-5.1,5.6-7.7,16.2c-2.6,11,5.3,14.7,8.6,7.9c1.3-2.8,4.3-8.2,4.4-11.1C397.7,319.9,410,304.6,409.9,297.1z
			"/>
		<path class="st9" d="M385.9,325.9L385.9,325.9c0,0-1.7,2.9-2.7,6c-0.9,3.1-2.8,8.7-2.1,11.5s2.3,5.9,1.5,7.7
			c-0.7,1.5-1.8,12.9,0.8,17.2c3.4,0.4,4.9-0.2,4.7-1.7C384,344.8,385.4,329.7,385.9,325.9z"/>
		<g>
			<path class="st10" d="M408.7,288.9c-1-14.4-6.3-28.8-12.9-32.8c-1.5-0.9-3.8-1.3-6.4-1.2c0.4,0.6,1.1,1.7,2.4,3.1
				c2.6,2.9,6.8,8,6.1,12.1s-2.7,3.6-1,8s0.5,9.5-0.4,13c-0.4,1.7,0,4.4,0.5,6.6c4.6-1.2,8.8-3.3,10.8-6
				C408.4,290.9,408.7,289.9,408.7,288.9z"/>
		</g>
	</g>
</g>
<g id="c">
	<g>
		<path class="st13" d="M234.8,392.7c0,0,1.9-0.6,2.6-0.8c0.6-0.3,1.1,0.1,1,0.6c-0.2,0.5-1.8,2-2.2,2
			C235.7,394.6,234.5,393.1,234.8,392.7z"/>
		<path class="st13" d="M252.4,398.3c0,0,5.7,5.4,14.1,4.9s13.9-12,13.4-15.7s4-10.1-4.4-6.4C266.9,384.8,249.3,393.5,252.4,398.3z"
			/>
		<path class="st10" d="M326.6,475.2c-1.5-0.3-2.7-1.2-3.5-1.9l-3.1,3c0,0,1.2,0.9,1.5,2.2c0.1,0.6-0.3,1.5-0.8,2.8
			c-0.7,2.1-1.6,4.8-1.2,5.4c0.7,0.9,9.2-7.3,9.9-9.5C329.7,476,328.3,475.6,326.6,475.2z"/>
		<path class="st10" d="M281.5,488.6c-0.9-1.3-1.1-2.7-1.2-3.9l-4.8-3.3c0,0,0.7,4.8,0,5.9c-0.3,0.5-1.2,0.9-2.5,1.4
			c-2,1-4.5,2.3-4.6,3c-0.1,1.1,11.7,1.2,13.7,0.1C283.2,491.3,282.5,490,281.5,488.6z"/>
		<path class="st9" d="M298.9,413.1L298.9,413.1l0.6,4.8c2.2,8.1,4.7,16.7,5.8,26.3c2.1,17.7,26.1,26.9,18.9,32.1
			c-4.2,3.1-4.9,3.5-8.3,3c-18.2-2.7-29.6-46.3-30.3-48.5c-0.2-0.7-0.9-0.2-0.9,0.5c0,0-3.3,15.8-3.2,21.1c0.2,8.4,6.2,30.1,3,33.6
			c-1.3,1.4-6.7,2.2-8.7,0.2c-6.7-6.6-7.9-30.9-7.9-35.8c0-13.4,1.5-33.7,1.5-33.7S289.5,419.1,298.9,413.1z"/>
		<g>
			<path class="st10" d="M305.3,444.2c-1.1-9.6-3.5-18.2-5.8-26.3l-0.6-4.8c-1.2,0.7-2.5,1.4-4,1.9c-0.1,1.3,0.1,2.7,0.6,4.1
				c2.6,7,6.4,15.2,6.9,21.9c0.5,6.8,5.5,21.4,9.5,24.8c2.6,2.2,0.3,7.7-1.7,11.4c1.8,1.1,3.6,1.9,5.5,2.1c3.5,0.5,4.1,0.1,8.3-3
				C331.4,471.1,307.4,462,305.3,444.2z"/>
		</g>
		<path class="st35" d="M269.3,416.7c0-6,0.8-22.4,0.8-22.4s0.2-4.9,0.7-9c0.4-3,1.9-5.5,4.7-6.7c8.1-3.6,21.1-3.3,24.1,4.9
			c1.1,3.2-0.8,9.4-1.7,14.2c0,0-1.2,7.8,1.8,18.9C295.7,419.3,271.9,423.1,269.3,416.7z"/>
		<g class="pen">
			<path class="st10" d="M209.8,440.1l-8.2,3.1l3-7.9C206.2,435,208.6,435.3,209.8,440.1z"/>
			<g>
				<path class="st36" d="M219.6,428.4c-0.1,0.3-0.2,0.4-0.2,0.4S219.4,428.6,219.6,428.4z"/>
				<path class="st37" d="M209.8,440.1c-1.2-4.8-3.6-5.1-5.2-4.7l5.2-14c0.4-1.1,1-2.1,1.7-3.1c1.5,0.1,3,0.5,3.5,2
					c1,3,0.3,7.4,0.3,7.4s2.6-3.4,4-2.3c1.1,0.8,0.6,2.3,0.3,3c-0.2,0.2-0.2,0.4-0.2,0.4s0.1-0.2,0.2-0.4c0.3-0.4,1-0.7,2.6,0.3
					c1.3,0.8,2.1,3.2,2.3,5.6c-0.4,0.2-0.7,0.4-1.1,0.5L209.8,440.1z"/>
			</g>
			<path class="st38" d="M302,327.4l4.6-4.6c2.3-2.3,5.9-2.3,8.2,0l6.8,6.8c2.3,2.3,2.3,5.9,0,8.2l-4.6,4.6L302,327.4z"/>
			<path class="st36" d="M227.5,432.2c-0.9,0.9-1.9,1.6-3,2.2c-0.2-2.4-0.9-4.8-2.3-5.6c-1.7-1-2.4-0.7-2.6-0.3
				c0.3-0.7,0.7-2.2-0.3-3c-1.5-1.1-4,2.3-4,2.3s0.7-4.4-0.3-7.4c-0.5-1.4-2-1.9-3.5-2c0.3-0.4,0.6-0.7,0.9-1.1l87.1-87.3l15.1,15
				L227.5,432.2z"/>
			
				<rect x="306.5" y="325.5" transform="matrix(0.7051 -0.7091 0.7091 0.7051 -147.4207 317.6658)" class="st39" width="3.5" height="21.2"/>
			<g>
				<path class="st40" d="M227.5,432.2c-0.9,0.9-1.9,1.6-3,2.2c-0.2-2.4-0.9-4.8-2.3-5.6c-0.3-0.2-0.6-0.3-0.8-0.4c1-1,2-2,3-3
					c7.2-6.7,36.6-34.9,44.5-42.4s11.8-16.2,21.7-25.5c4.7-4.4,11.9-11.7,18.2-18.2l5.7,5.6L227.5,432.2z"/>
			</g>
			<g>
				<path class="st7" d="M319.6,327.6l2,2c2.3,2.3,2.3,5.9,0,8.2l-4.6,4.6l-5.6-5.6C313.8,334.6,317.2,331,319.6,327.6z"/>
			</g>
			<path class="st41" d="M298.8,332.1l-81.9,83.3c0,0,8.6-2.1,13.3-6.7s70.4-73.5,70.4-73.5L298.8,332.1z"/>
		</g>
		<path class="st32" d="M298,397.8c0.8-4.8,2.8-11,1.7-14.2c-1.6-4.4-6.1-6.6-11.1-7c0.6,3.6,2,12.4,1.4,15.5
			c-0.7,3.9-5.5,15.4-5.5,15.4l4.5,12.1c5-0.7,9.3-1.9,10.8-2.8C296.8,405.6,298,397.8,298,397.8z"/>
		<g>
			<path class="st9" d="M288.7,368.8c0,0,0.7-3.5-1.9-3.8c-1.7-0.2-1.9,0-1.9,0s-0.8-1.1-2.2-1s-1.5,1.2-1.5,1.2s-1.5-0.2-1.9,1.4
				s0.9,3.3,3,3.4c0.4,0,0.8,0,1.2,0.1c0.1,1.9,1.1,4.7,2.8,4.5C288.7,374.3,288.7,368.8,288.7,368.8z"/>
			<path class="st11" d="M286.3,371.1l2,7.3c0,0.9-3.6,2.6-5.1,1.6c-0.4-0.3-0.3-6.9-0.3-6.9L286.3,371.1z"/>
			<path class="st9" d="M282.8,373.2c0,0.6,0,2.2,0,3.7c0.7-0.2,1.3-0.5,1.9-1c1.3-1.2,1.4-2.8,1.4-2.8S284.1,373.1,282.8,373.2z"/>
			<path class="st11" d="M285.2,369.3l1,3.6c0.2,1.2-0.5,2.4-1.7,2.7c-1,0.2-1.6,0.2-2.8,0c-1-0.2-1.5-1.2-1.4-2.5
				c0.1-1.7,0.6-3.3,1-4.1C282,367.1,284.3,367,285.2,369.3z"/>
			<path class="st12" d="M282.8,372.1c0,0-1.9-0.5-2,0c0,0-0.1,0.3,0.5,0.4C281.7,372.6,282.2,372.5,282.8,372.1z"/>
			<path class="st13" d="M281.4,374.2c1.1-0.2,1.9,1.6,4,0c0.4-0.3,0.6-1,0.7-1.4v0.1c0.2,1.2-0.5,2.4-1.7,2.7c-1,0.2-1.6,0.2-2.8,0
				c-0.6-0.1-1-0.5-1.3-1.1C280.6,374.5,281,374.3,281.4,374.2z"/>
			<path class="st9" d="M285.2,368.3c0,0-0.7,2-0.6,2.5s0.9,0.3,1.1-0.4C285.9,369.6,285.9,368.2,285.2,368.3z"/>
			<path class="st11" d="M285.3,370.9c0.1-0.2,0.2-0.4,0.3-0.6c0.2-0.4,0.5-1,1-0.5c0.7,0.8-0.2,2.9-1.3,2.7
				C284.5,372.4,285,371.4,285.3,370.9z"/>
		</g>
		<path class="st13" d="M232.2,398.1c-0.4-0.4-0.7-0.3-0.6-1.5s1.6-4,2.1-4.1c2.1-0.5,3.1,2.6,3.1,3.1c0,0.2-1.4-0.2-1.4-0.2
			s-0.7,0.4-1.1,1.2c-0.2,0.4-0.8,0.4-0.9,0.8C233.2,398.2,232.7,398.6,232.2,398.1z"/>
		<g>
			<path class="st10" d="M278.7,435.7c-0.5,4.6,0.1,11.2-1.2,14.5c-1.2,3.3-1.4,22.2-0.8,26.6c0.3,2-1.6,3.9-3.7,5.3
				c0.8,1.8,1.7,3.2,2.8,4.3c2,1.9,7.4,1.2,8.7-0.2c3.1-3.5-2.8-25.2-3-33.6c-0.1-5.3,3.2-21.1,3.2-21.1c0-0.2,0.1-0.3,0.1-0.5
				C283,431.1,279.1,432.1,278.7,435.7z"/>
		</g>
		<path class="st11" d="M297.2,380.7c-4.7-2.3-13.6,14.4-19.3,17.6c-8.5,4.8-38.1,3.3-38,8.5s33.1,5.6,40.6,2.7
			C293.7,404.3,303.4,383.8,297.2,380.7z"/>
		<g>
			<path class="st35" d="M297.2,380.7c-3.1-1.5-7.9,5.1-12.6,10.8c1.3,2.2,4.2,6.8,7.8,8.4C298.5,392.2,301.2,382.7,297.2,380.7z"/>
		</g>
		<g>
			<path class="st11" d="M242.8,406.1c-1.5-1.6-3.5-2.6-5.6-2.9c-0.9-0.1-1.9-0.3-2.3-0.6c-1.1-1-1.2,1,0.5,1.9
				c0.8,0.4,1.3,1.2,0.5,1s-4.9-3-4.2-1.2c1.3,3.2,4.6,5.1,8.5,4.4C241.9,408.5,243.8,407.2,242.8,406.1z"/>
		</g>
	</g>
</g>
</svg>
