<?xml version="1.0" encoding="utf-8"?>
<!-- Generator: Adobe Illustrator 24.0.1, SVG Export Plug-In . SVG Version: 6.00 Build 0)  -->
<svg version="1.1" id="分離模式" xmlns="http://www.w3.org/2000/svg" xmlns:xlink="http://www.w3.org/1999/xlink" x="0px"
	 y="0px" viewBox="0 0 197.3 410.7" style="enable-background:new 0 0 197.3 410.7;" xml:space="preserve">
<style type="text/css">
	.st0{fill:#52CDFF;}
	.st1, .st3, .st5, .st7, .st9, .st11, .st13, .st15, .st19, .st21, .st23, .st25, .st27, .st29, .st31, .st32, .st35, .st37, .st39, .st41, .st43, .st45, .st47, .st49, .st51, .st53, .st55, .st57, .st59, .st61, .st63, .st65, .st67, .st69, .st71, .st73, .st75, .st77, .st79, .st81, .st83, .st85, .st87, .st89, .st91, .st93, .st95, .st97, .st98{
		transition: all 4s ;
		animation:opacitya 2s  infinite;
		animation-timing-function: ease-in;
	}
	@keyframes opacitya{
		0%{ opacity: .5;}
		100%{ opacity: 0;}
	}
	.st2, .st4, .st6, .st8, .st10, .st12, .st14, .st16, .st18, .st20, .st22, .st24, .st26, .st28, .st30, .st32, .st34, .st36, .st38, .st40, .st42, .st44, .st46, .st48, .st50, .st52, .st54, .st56, .st58, .st60, .st62, .st64, .st66, .st68, .st70, .st72, .st74, .st76, .st78, .st80, .st82, .st84, .st86, .st88, .st90, .st92, .st94, .st96{
		transition: all 4s ;
		animation:opacityb 4s  infinite;
		animation-timing-function: ease-in;
	}
	@keyframes opacityb{
		0%{ opacity: 0;}
		100%{ opacity: .4;}
	}
</style>
<g id="XMLID_8888_">
	<path id="XMLID_10785_" class="st0 st1" d="M42.9,214.5c1,0,1.8,0.8,1.8,1.8c0,1-0.8,1.8-1.8,1.8s-1.8-0.8-1.8-1.8
		C41.2,215.3,42,214.5,42.9,214.5z"/>
	<path id="XMLID_10784_" class="st0" d="M15.1,158c1,0,1.8,0.8,1.8,1.8c0,1-0.8,1.8-1.8,1.8c-1,0-1.8-0.8-1.8-1.8
		C13.3,158.8,14.1,158,15.1,158z"/>
	<path id="XMLID_10783_" class="st0 st2" d="M6.3,129.7c1,0,1.8,0.8,1.8,1.8c0,1-0.8,1.8-1.8,1.8c-1,0-1.8-0.8-1.8-1.8
		C4.5,130.5,5.3,129.7,6.3,129.7z"/>
	<path id="XMLID_10782_" class="st0" d="M44,239.7c1,0,1.8,0.8,1.8,1.8c0,1-0.8,1.8-1.8,1.8c-1,0-1.8-0.8-1.8-1.8
		C42.2,240.5,43,239.7,44,239.7z"/>
	<path id="XMLID_10781_" class="st0" d="M0.9,351.9c1,0,1.8,0.8,1.8,1.8c0,1-0.8,1.8-1.8,1.8c-1,0-1.8-0.8-1.8-1.8
		C-0.8,352.7-0.1,351.9,0.9,351.9z"/>
	<path id="XMLID_10780_" class="st0 st3" d="M58.4,220.7c1,0,1.8,0.8,1.8,1.8c0,1-0.8,1.8-1.8,1.8s-1.8-0.8-1.8-1.8
		C56.7,221.5,57.5,220.7,58.4,220.7z"/>
	<path id="XMLID_10779_" class="st0" d="M41.5,274.7c1,0,1.8,0.8,1.8,1.8c0,1-0.8,1.8-1.8,1.8c-1,0-1.8-0.8-1.8-1.8
		C39.7,275.5,40.5,274.7,41.5,274.7z"/>
	<circle id="XMLID_10778_" class="st0" cx="60.8" cy="290.6" r="1.8"/>
	<path id="XMLID_10777_" class="st0 st4" d="M2.7,170.4c1,0,1.8,0.8,1.8,1.8c0,1-0.8,1.8-1.8,1.8c-1,0-1.8-0.8-1.8-1.8
		C1,171.2,1.7,170.4,2.7,170.4z"/>
	<circle id="XMLID_10776_" class="st0" cx="119.2" cy="264.9" r="1.8"/>
	<path id="XMLID_10775_" class="st0" d="M102.2,211.9c1,0,1.8,0.8,1.8,1.8c0,1-0.8,1.8-1.8,1.8s-1.8-0.8-1.8-1.8
		C100.4,212.7,101.2,211.9,102.2,211.9z"/>
	<path id="XMLID_10774_" class="st0 st5" d="M140,225.9c1,0,1.8,0.8,1.8,1.8c0,1-0.8,1.8-1.8,1.8c-1,0-1.8-0.8-1.8-1.8
		C138.2,226.7,139,225.9,140,225.9z"/>
	<path id="XMLID_10773_" class="st0" d="M74.4,286c1,0,1.8,0.8,1.8,1.8c0,1-0.8,1.8-1.8,1.8c-1,0-1.8-0.8-1.8-1.8
		C72.6,286.8,73.4,286,74.4,286z"/>
	<path id="XMLID_10772_" class="st0 st6" d="M52.9,345c1,0,1.8,0.8,1.8,1.8c0,1-0.8,1.8-1.8,1.8c-1,0-1.8-0.8-1.8-1.8
		C51.2,345.8,52,345,52.9,345z"/>
	<circle id="XMLID_10771_" class="st0" cx="59.1" cy="354" r="1.8"/>
	<path id="XMLID_10770_" class="st0" d="M64.4,226.1c1,0,1.8,0.8,1.8,1.8c0,1-0.8,1.8-1.8,1.8c-1,0-1.8-0.8-1.8-1.8
		C62.6,226.9,63.4,226.1,64.4,226.1z"/>
	<path id="XMLID_10769_" class="st0 st7" d="M141.4,218.2c1,0,1.8,0.8,1.8,1.8c0,1-0.8,1.8-1.8,1.8c-1,0-1.8-0.8-1.8-1.8
		C139.6,219,140.4,218.2,141.4,218.2z"/>
	<circle id="XMLID_10768_" class="st0" cx="71.4" cy="163.2" r="1.8"/>
	<path id="XMLID_10767_" class="st0" d="M52.3,165.8c1,0,1.8,0.8,1.8,1.8c0,1-0.8,1.8-1.8,1.8c-1,0-1.8-0.8-1.8-1.8
		C50.6,166.6,51.3,165.8,52.3,165.8z"/>
	<path id="XMLID_10766_" class="st0 st8" d="M33.1,101.8c1,0,1.8,0.8,1.8,1.8c0,1-0.8,1.8-1.8,1.8c-1,0-1.8-0.8-1.8-1.8
		C31.3,102.6,32.1,101.8,33.1,101.8z"/>
	<path id="XMLID_10765_" class="st0" d="M98.2,253.4c1,0,1.8,0.8,1.8,1.8c0,1-0.8,1.8-1.8,1.8c-1,0-1.8-0.8-1.8-1.8
		C96.4,254.1,97.2,253.4,98.2,253.4z"/>
	<path id="XMLID_10764_" class="st0 st9" d="M139.2,280.8c1,0,1.8,0.8,1.8,1.8c0,1-0.8,1.8-1.8,1.8c-1,0-1.8-0.8-1.8-1.8
		C137.4,281.6,138.2,280.8,139.2,280.8z"/>
	<path id="XMLID_10763_" class="st0" d="M168,265.9c1,0,1.8,0.8,1.8,1.8c0,1-0.8,1.8-1.8,1.8c-1,0-1.8-0.8-1.8-1.8
		C166.2,266.6,167,265.9,168,265.9z"/>
	<circle id="XMLID_10762_" class="st0" cx="23.9" cy="300.9" r="1.8"/>
	<path id="XMLID_10761_" class="st0 st10" d="M29.5,341.2c1,0,1.8,0.8,1.8,1.8c0,1-0.8,1.8-1.8,1.8c-1,0-1.8-0.8-1.8-1.8
		C27.8,342,28.6,341.2,29.5,341.2z"/>
	<path id="XMLID_10760_" class="st0" d="M41,395.8c1,0,1.8,0.8,1.8,1.8c0,1-0.8,1.8-1.8,1.8c-1,0-1.8-0.8-1.8-1.8
		C39.3,396.6,40,395.8,41,395.8z"/>
	<path id="XMLID_10759_" class="st0" d="M2.7,375.2c1,0,1.8,0.8,1.8,1.8c0,1-0.8,1.8-1.8,1.8c-1,0-1.8-0.8-1.8-1.8
		C0.9,376,1.7,375.2,2.7,375.2z"/>
	<path id="XMLID_10758_" class="st0 st11" d="M57.6,119.1c1,0,1.8,0.8,1.8,1.8c0,1-0.8,1.8-1.8,1.8s-1.8-0.8-1.8-1.8
		C55.8,119.9,56.6,119.1,57.6,119.1z"/>
	<circle id="XMLID_10757_" class="st0" cx="29.3" cy="284.3" r="1.8"/>
	<path id="XMLID_10756_" class="st0 st12" d="M27.3,304.4c1,0,1.8,0.8,1.8,1.8c0,1-0.8,1.8-1.8,1.8s-1.8-0.8-1.8-1.8
		C25.6,305.2,26.4,304.4,27.3,304.4z"/>
	<circle id="XMLID_10755_" class="st0" cx="79.5" cy="258.7" r="1.8"/>
	<path id="XMLID_10754_" class="st0" d="M122.9,212.1c1,0,1.8,0.8,1.8,1.8c0,1-0.8,1.8-1.8,1.8c-1,0-1.8-0.8-1.8-1.8
		C121.2,212.8,121.9,212.1,122.9,212.1z"/>
	<path id="XMLID_10753_" class="st0" d="M37.6,345.4c1,0,1.8,0.8,1.8,1.8c0,1-0.8,1.8-1.8,1.8c-1,0-1.8-0.8-1.8-1.8
		C35.8,346.2,36.6,345.4,37.6,345.4z"/>
	<path id="XMLID_10752_" class="st0" d="M40.4,119.4c1,0,1.8,0.8,1.8,1.8c0,1-0.8,1.8-1.8,1.8c-1,0-1.8-0.8-1.8-1.8
		C38.6,120.2,39.4,119.4,40.4,119.4z"/>
	<path id="XMLID_10751_" class="st0 st13" d="M114.3,158.6c1,0,1.8,0.8,1.8,1.8c0,1-0.8,1.8-1.8,1.8c-1,0-1.8-0.8-1.8-1.8
		C112.6,159.4,113.3,158.6,114.3,158.6z"/>
	<path id="XMLID_10750_" class="st0" d="M51.2,184.4c1,0,1.8,0.8,1.8,1.8c0,1-0.8,1.8-1.8,1.8c-1,0-1.8-0.8-1.8-1.8
		C49.5,185.2,50.3,184.4,51.2,184.4z"/>
	<path id="XMLID_10749_" class="st0" d="M35.5,352.8c1,0,1.8,0.8,1.8,1.8c0,1-0.8,1.8-1.8,1.8c-1,0-1.8-0.8-1.8-1.8
		C33.7,353.6,34.5,352.8,35.5,352.8z"/>
	<path id="XMLID_10748_" class="st0 st14" d="M30.7,233.6c1,0,1.8,0.8,1.8,1.8c0,1-0.8,1.8-1.8,1.8c-1,0-1.8-0.8-1.8-1.8
		C28.9,234.4,29.7,233.6,30.7,233.6z"/>
	<path id="XMLID_10747_" class="st0" d="M55.9,140.6c1,0,1.8,0.8,1.8,1.8c0,1-0.8,1.8-1.8,1.8c-1,0-1.8-0.8-1.8-1.8
		C54.1,141.4,54.9,140.6,55.9,140.6z"/>
	<path id="XMLID_10746_" class="st0" d="M121.5,240.6c1,0,1.8,0.8,1.8,1.8c0,1-0.8,1.8-1.8,1.8c-1,0-1.8-0.8-1.8-1.8
		C119.7,241.4,120.5,240.6,121.5,240.6z"/>
	<path id="XMLID_10745_" class="st0 st15" d="M33.7,122.4c1,0,1.8,0.8,1.8,1.8c0,1-0.8,1.8-1.8,1.8s-1.8-0.8-1.8-1.8
		C32,123.2,32.8,122.4,33.7,122.4z"/>
	<path id="XMLID_10744_" class="st0" d="M52.2,175.7c1,0,1.8,0.8,1.8,1.8c0,1-0.8,1.8-1.8,1.8c-1,0-1.8-0.8-1.8-1.8
		C50.4,176.4,51.2,175.7,52.2,175.7z"/>
	<path id="XMLID_10743_" class="st0" d="M40.2,108.8c1,0,1.8,0.8,1.8,1.8c0,1-0.8,1.8-1.8,1.8s-1.8-0.8-1.8-1.8
		C38.5,109.6,39.2,108.8,40.2,108.8z"/>
	<path id="XMLID_10742_" class="st0" d="M20.8,100c1,0,1.8,0.8,1.8,1.8c0,1-0.8,1.8-1.8,1.8c-1,0-1.8-0.8-1.8-1.8
		C19.1,100.8,19.9,100,20.8,100z"/>
	<path id="XMLID_10741_" class="st0 st16" d="M52.4,151.2c1,0,1.8,0.8,1.8,1.8s-0.8,1.8-1.8,1.8c-1,0-1.8-0.8-1.8-1.8
		S51.4,151.2,52.4,151.2z"/>
	<path id="XMLID_10740_" class="st0" d="M40,224.8c1,0,1.8,0.8,1.8,1.8c0,1-0.8,1.8-1.8,1.8c-1,0-1.8-0.8-1.8-1.8
		C38.2,225.6,39,224.8,40,224.8z"/>
	<path id="XMLID_10739_" class="st0" d="M44.3,232.9c1,0,1.8,0.8,1.8,1.8c0,1-0.8,1.8-1.8,1.8c-1,0-1.8-0.8-1.8-1.8
		C42.5,233.7,43.3,232.9,44.3,232.9z"/>
	<path id="XMLID_10738_" class="st0 st17" d="M14.2,277.2c1,0,1.8,0.8,1.8,1.8s-0.8,1.8-1.8,1.8c-1,0-1.8-0.8-1.8-1.8
		S13.2,277.2,14.2,277.2z"/>
	<path id="XMLID_10737_" class="st0" d="M13.7,388.6c1,0,1.8,0.8,1.8,1.8c0,1-0.8,1.8-1.8,1.8c-1,0-1.8-0.8-1.8-1.8
		C12,389.4,12.8,388.6,13.7,388.6z"/>
	<path id="XMLID_10736_" class="st0" d="M54.9,305c1,0,1.8,0.8,1.8,1.8c0,1-0.8,1.8-1.8,1.8c-1,0-1.8-0.8-1.8-1.8
		C53.1,305.8,53.9,305,54.9,305z"/>
	<path id="XMLID_10735_" class="st0" d="M76.4,300.7c1,0,1.8,0.8,1.8,1.8c0,1-0.8,1.8-1.8,1.8c-1,0-1.8-0.8-1.8-1.8
		C74.6,301.5,75.4,300.7,76.4,300.7z"/>
	<path id="XMLID_10734_" class="st0 st18" d="M45.3,324.5c1,0,1.8,0.8,1.8,1.8c0,1-0.8,1.8-1.8,1.8c-1,0-1.8-0.8-1.8-1.8
		C43.6,325.3,44.4,324.5,45.3,324.5z"/>
	<path id="XMLID_10733_" class="st0" d="M70,365.9c1,0,1.8,0.8,1.8,1.8c0,1-0.8,1.8-1.8,1.8c-1,0-1.8-0.8-1.8-1.8
		C68.2,366.7,69,365.9,70,365.9z"/>
	<path id="XMLID_10732_" class="st0" d="M23.1,184c1,0,1.8,0.8,1.8,1.8c0,1-0.8,1.8-1.8,1.8c-1,0-1.8-0.8-1.8-1.8
		C21.4,184.8,22.2,184,23.1,184z"/>
	<path id="XMLID_10731_" class="st0 st19" d="M111.3,249.2c1,0,1.8,0.8,1.8,1.8c0,1-0.8,1.8-1.8,1.8c-1,0-1.8-0.8-1.8-1.8
		C109.6,250,110.4,249.2,111.3,249.2z"/>
	<path id="XMLID_10730_" class="st0" d="M102.2,290c1,0,1.8,0.8,1.8,1.8c0,1-0.8,1.8-1.8,1.8c-1,0-1.8-0.8-1.8-1.8
		C100.5,290.8,101.3,290,102.2,290z"/>
	<circle id="XMLID_10729_" class="st0" cx="64.4" cy="200.6" r="1.8"/>
	<path id="XMLID_10728_" class="st0" d="M46.5,331.7c1,0,1.8,0.8,1.8,1.8c0,1-0.8,1.8-1.8,1.8c-1,0-1.8-0.8-1.8-1.8
		C44.7,332.5,45.5,331.7,46.5,331.7z"/>
	<path id="XMLID_10727_" class="st0 st20" d="M126.3,186.4c1,0,1.8,0.8,1.8,1.8c0,1-0.8,1.8-1.8,1.8c-1,0-1.8-0.8-1.8-1.8
		C124.6,187.2,125.3,186.4,126.3,186.4z"/>
	<path id="XMLID_10726_" class="st0" d="M130.8,251.1c1,0,1.8,0.8,1.8,1.8c0,1-0.8,1.8-1.8,1.8c-1,0-1.8-0.8-1.8-1.8
		C129,251.9,129.8,251.1,130.8,251.1z"/>
	<path id="XMLID_10725_" class="st0" d="M21.9,246.7c1,0,1.8,0.8,1.8,1.8c0,1-0.8,1.8-1.8,1.8c-1,0-1.8-0.8-1.8-1.8
		C20.1,247.5,20.9,246.7,21.9,246.7z"/>
	<path id="XMLID_10724_" class="st0" d="M20.1,322c1,0,1.8,0.8,1.8,1.8c0,1-0.8,1.8-1.8,1.8c-1,0-1.8-0.8-1.8-1.8
		C18.3,322.8,19.1,322,20.1,322z"/>
	<path id="XMLID_10723_" class="st0 st21" d="M185.3,203.6c1,0,1.8,0.8,1.8,1.8c0,1-0.8,1.8-1.8,1.8s-1.8-0.8-1.8-1.8
		C183.6,204.4,184.3,203.6,185.3,203.6z"/>
	<path id="XMLID_10722_" class="st0" d="M11.6,324.6c1,0,1.8,0.8,1.8,1.8c0,1-0.8,1.8-1.8,1.8c-1,0-1.8-0.8-1.8-1.8
		C9.8,325.4,10.6,324.6,11.6,324.6z"/>
	<circle id="XMLID_10721_" class="st0" cx="30.9" cy="319.8" r="1.8"/>
	<path id="XMLID_10720_" class="st0" d="M47,170c1,0,1.8,0.8,1.8,1.8c0,1-0.8,1.8-1.8,1.8c-1,0-1.8-0.8-1.8-1.8
		C45.3,170.7,46.1,170,47,170z"/>
	<path id="XMLID_10719_" class="st0 st22" d="M5,394.2c1,0,1.8,0.8,1.8,1.8c0,1-0.8,1.8-1.8,1.8s-1.8-0.8-1.8-1.8
		C3.2,395,4,394.2,5,394.2z"/>
	<path id="XMLID_10718_" class="st0" d="M50,126.8c1,0,1.8,0.8,1.8,1.8c0,1-0.8,1.8-1.8,1.8s-1.8-0.8-1.8-1.8
		C48.2,127.6,49,126.8,50,126.8z"/>
	<path id="XMLID_10717_" class="st0 st23" d="M12.5,355.4c1,0,1.8,0.8,1.8,1.8c0,1-0.8,1.8-1.8,1.8c-1,0-1.8-0.8-1.8-1.8
		C10.7,356.2,11.5,355.4,12.5,355.4z"/>
	<path id="XMLID_10716_" class="st0" d="M22.9,291.6c1,0,1.8,0.8,1.8,1.8c0,1-0.8,1.8-1.8,1.8c-1,0-1.8-0.8-1.8-1.8
		C21.2,292.4,21.9,291.6,22.9,291.6z"/>
	<path id="XMLID_10715_" class="st0" d="M85.6,172.9c1,0,1.8,0.8,1.8,1.8c0,1-0.8,1.8-1.8,1.8c-1,0-1.8-0.8-1.8-1.8
		C83.8,173.7,84.6,172.9,85.6,172.9z"/>
	<path id="XMLID_10714_" class="st0" d="M127.3,220.8c1,0,1.8,0.8,1.8,1.8c0,1-0.8,1.8-1.8,1.8c-1,0-1.8-0.8-1.8-1.8
		C125.5,221.6,126.3,220.8,127.3,220.8z"/>
	<path id="XMLID_10713_" class="st0 st24" d="M127.2,240.3c1,0,1.8,0.8,1.8,1.8c0,1-0.8,1.8-1.8,1.8c-1,0-1.8-0.8-1.8-1.8
		C125.4,241.1,126.2,240.3,127.2,240.3z"/>
	<path id="XMLID_10712_" class="st0" d="M16.8,216.3c1,0,1.8,0.8,1.8,1.8c0,1-0.8,1.8-1.8,1.8c-1,0-1.8-0.8-1.8-1.8
		C15.1,217.1,15.9,216.3,16.8,216.3z"/>
	<path id="XMLID_10711_" class="st0 st25" d="M8.4,163.4c1,0,1.8,0.8,1.8,1.8c0,1-0.8,1.8-1.8,1.8c-1,0-1.8-0.8-1.8-1.8
		C6.7,164.2,7.4,163.4,8.4,163.4z"/>
	<path id="XMLID_10710_" class="st0" d="M59.3,358.9c1,0,1.8,0.8,1.8,1.8c0,1-0.8,1.8-1.8,1.8s-1.8-0.8-1.8-1.8
		C57.5,359.7,58.3,358.9,59.3,358.9z"/>
	<path id="XMLID_10709_" class="st0 st26" d="M50.5,281.9c1,0,1.8,0.8,1.8,1.8c0,1-0.8,1.8-1.8,1.8c-1,0-1.8-0.8-1.8-1.8
		C48.8,282.7,49.6,281.9,50.5,281.9z"/>
	<path id="XMLID_10708_" class="st0" d="M17.3,263.9c1,0,1.8,0.8,1.8,1.8c0,1-0.8,1.8-1.8,1.8c-1,0-1.8-0.8-1.8-1.8
		C15.5,264.7,16.3,263.9,17.3,263.9z"/>
	<path id="XMLID_10707_" class="st0" d="M126.8,261.3c1,0,1.8,0.8,1.8,1.8c0,1-0.8,1.8-1.8,1.8c-1,0-1.8-0.8-1.8-1.8
		C125.1,262.1,125.9,261.3,126.8,261.3z"/>
	<path id="XMLID_10706_" class="st0 st27" d="M59.5,132.1c1,0,1.8,0.8,1.8,1.8c0,1-0.8,1.8-1.8,1.8c-1,0-1.8-0.8-1.8-1.8
		C57.8,132.9,58.6,132.1,59.5,132.1z"/>
	<path id="XMLID_10705_" class="st0 st28" d="M60.7,251.5c1,0,1.8,0.8,1.8,1.8c0,1-0.8,1.8-1.8,1.8s-1.8-0.8-1.8-1.8
		C59,252.3,59.8,251.5,60.7,251.5z"/>
	<path id="XMLID_10704_" class="st0" d="M132.8,200.9c1,0,1.8,0.8,1.8,1.8c0,1-0.8,1.8-1.8,1.8c-1,0-1.8-0.8-1.8-1.8
		C131.1,201.7,131.9,200.9,132.8,200.9z"/>
	<circle id="XMLID_10703_" class="st0" cx="44.3" cy="183.2" r="1.8"/>
	<circle id="XMLID_10702_" class="st0" cx="59.3" cy="193.6" r="1.8"/>
	<path id="XMLID_10701_" class="st0" d="M104.8,150.9c1,0,1.8,0.8,1.8,1.8c0,1-0.8,1.8-1.8,1.8c-1,0-1.8-0.8-1.8-1.8
		C103.1,151.7,103.9,150.9,104.8,150.9z"/>
	<circle id="XMLID_10700_" class="st0" cx="37.3" cy="372.7" r="1.8"/>
	<path id="XMLID_10699_" class="st0" d="M112.8,180.6c1,0,1.8,0.8,1.8,1.8c0,1-0.8,1.8-1.8,1.8c-1,0-1.8-0.8-1.8-1.8
		C111.1,181.4,111.9,180.6,112.8,180.6z"/>
	<path id="XMLID_10698_" class="st0 st29" d="M49.9,270c1,0,1.8,0.8,1.8,1.8c0,1-0.8,1.8-1.8,1.8c-1,0-1.8-0.8-1.8-1.8
		C48.1,270.8,48.9,270,49.9,270z"/>
	<path id="XMLID_10697_" class="st0" d="M79.7,235.5c1,0,1.8,0.8,1.8,1.8c0,1-0.8,1.8-1.8,1.8c-1,0-1.8-0.8-1.8-1.8
		C78,236.3,78.8,235.5,79.7,235.5z"/>
	<path id="XMLID_10696_" class="st0 st30" d="M70.5,346.1c1,0,1.8,0.8,1.8,1.8c0,1-0.8,1.8-1.8,1.8c-1,0-1.8-0.8-1.8-1.8
		C68.8,346.9,69.6,346.1,70.5,346.1z"/>
	<circle id="XMLID_10695_" class="st0" cx="59.4" cy="127" r="1.8"/>
	<path id="XMLID_10694_" class="st0" d="M90.6,310.5c1,0,1.8,0.8,1.8,1.8c0,1-0.8,1.8-1.8,1.8c-1,0-1.8-0.8-1.8-1.8
		C88.8,311.3,89.6,310.5,90.6,310.5z"/>
	<path id="XMLID_10693_" class="st0" d="M56.5,269.3c1,0,1.8,0.8,1.8,1.8c0,1-0.8,1.8-1.8,1.8s-1.8-0.8-1.8-1.8
		C54.7,270.1,55.5,269.3,56.5,269.3z"/>
	<path id="XMLID_10692_" class="st0" d="M51.7,321.5c1,0,1.8,0.8,1.8,1.8c0,1-0.8,1.8-1.8,1.8c-1,0-1.8-0.8-1.8-1.8
		C50,322.3,50.8,321.5,51.7,321.5z"/>
	<path id="XMLID_10691_" class="st0" d="M70.9,388.7c1,0,1.8,0.8,1.8,1.8c0,1-0.8,1.8-1.8,1.8c-1,0-1.8-0.8-1.8-1.8
		C69.1,389.5,69.9,388.7,70.9,388.7z"/>
	<path id="XMLID_10690_" class="st0 st31" d="M90.2,351.9c1,0,1.8,0.8,1.8,1.8c0,1-0.8,1.8-1.8,1.8c-1,0-1.8-0.8-1.8-1.8
		C88.4,352.7,89.2,351.9,90.2,351.9z"/>
	<path id="XMLID_10689_" class="st0" d="M48.4,246.3c1,0,1.8,0.8,1.8,1.8c0,1-0.8,1.8-1.8,1.8c-1,0-1.8-0.8-1.8-1.8
		C46.6,247.1,47.4,246.3,48.4,246.3z"/>
	<path id="XMLID_10688_" class="st0" d="M107,258.5c1,0,1.8,0.8,1.8,1.8c0,1-0.8,1.8-1.8,1.8c-1,0-1.8-0.8-1.8-1.8
		C105.3,259.3,106.1,258.5,107,258.5z"/>
	<path id="XMLID_10687_" class="st0" d="M141.8,266.9c1,0,1.8,0.8,1.8,1.8c0,1-0.8,1.8-1.8,1.8c-1,0-1.8-0.8-1.8-1.8
		C140.1,267.6,140.9,266.9,141.8,266.9z"/>
	<path id="XMLID_10686_" class="st0" d="M67.4,146.6c1,0,1.8,0.8,1.8,1.8c0,1-0.8,1.8-1.8,1.8c-1,0-1.8-0.8-1.8-1.8
		C65.6,147.3,66.4,146.6,67.4,146.6z"/>
	<circle id="XMLID_10685_" class="st0" cx="3.6" cy="369.8" r="1.8"/>
	<circle id="XMLID_10684_" class="st0 st32" cx="67" cy="220.7" r="1.8"/>
	<path id="XMLID_10683_" class="st0" d="M117.3,113.3c1,0,1.8,0.8,1.8,1.8c0,1-0.8,1.8-1.8,1.8c-1,0-1.8-0.8-1.8-1.8
		C115.6,114,116.4,113.3,117.3,113.3z"/>
	<path id="XMLID_10682_" class="st0" d="M75,308.9c1,0,1.8,0.8,1.8,1.8c0,1-0.8,1.8-1.8,1.8c-1,0-1.8-0.8-1.8-1.8
		C73.3,309.7,74.1,308.9,75,308.9z"/>
	<path id="XMLID_10681_" class="st0" d="M89,152c1,0,1.8,0.8,1.8,1.8s-0.8,1.8-1.8,1.8c-1,0-1.8-0.8-1.8-1.8S88,152,89,152z"/>
	<path id="XMLID_10680_" class="st0 st33" d="M2.8,161.1c1,0,1.8,0.8,1.8,1.8c0,1-0.8,1.8-1.8,1.8c-1,0-1.8-0.8-1.8-1.8
		C1,161.9,1.8,161.1,2.8,161.1z"/>
	<path id="XMLID_10679_" class="st0" d="M7.6,156c1,0,1.8,0.8,1.8,1.8c0,1-0.8,1.8-1.8,1.8c-1,0-1.8-0.8-1.8-1.8
		C5.8,156.8,6.6,156,7.6,156z"/>
	<path id="XMLID_10678_" class="st0" d="M20,337.9c1,0,1.8,0.8,1.8,1.8c0,1-0.8,1.8-1.8,1.8c-1,0-1.8-0.8-1.8-1.8
		C18.3,338.7,19.1,337.9,20,337.9z"/>
	<path id="XMLID_10677_" class="st0" d="M68.5,331.2c1,0,1.8,0.8,1.8,1.8c0,1-0.8,1.8-1.8,1.8c-1,0-1.8-0.8-1.8-1.8
		C66.8,331.9,67.6,331.2,68.5,331.2z"/>
	<path id="XMLID_10676_" class="st0 st34" d="M37.5,336.4c1,0,1.8,0.8,1.8,1.8c0,1-0.8,1.8-1.8,1.8c-1,0-1.8-0.8-1.8-1.8
		C35.7,337.2,36.5,336.4,37.5,336.4z"/>
	<path id="XMLID_10675_" class="st0" d="M44.7,153.8c1,0,1.8,0.8,1.8,1.8c0,1-0.8,1.8-1.8,1.8c-1,0-1.8-0.8-1.8-1.8
		C43,154.6,43.8,153.8,44.7,153.8z"/>
	<path id="XMLID_10674_" class="st0" d="M114.4,165.9c1,0,1.8,0.8,1.8,1.8s-0.8,1.8-1.8,1.8c-1,0-1.8-0.8-1.8-1.8
		S113.5,165.9,114.4,165.9z"/>
	<path id="XMLID_10673_" class="st0" d="M11.8,241.8c1,0,1.8,0.8,1.8,1.8c0,1-0.8,1.8-1.8,1.8s-1.8-0.8-1.8-1.8
		C10.1,242.6,10.8,241.8,11.8,241.8z"/>
	<path id="XMLID_10672_" class="st0 st35" d="M147.8,213.4c1,0,1.8,0.8,1.8,1.8c0,1-0.8,1.8-1.8,1.8c-1,0-1.8-0.8-1.8-1.8
		C146.1,214.2,146.8,213.4,147.8,213.4z"/>
	<circle id="XMLID_10671_" class="st0" cx="62.3" cy="305.6" r="1.8"/>
	<path id="XMLID_10670_" class="st0" d="M25.9,118.7c1,0,1.8,0.8,1.8,1.8c0,1-0.8,1.8-1.8,1.8c-1,0-1.8-0.8-1.8-1.8
		C24.2,119.5,24.9,118.7,25.9,118.7z"/>
	<path id="XMLID_10669_" class="st0" d="M38.6,293.6c1,0,1.8,0.8,1.8,1.8c0,1-0.8,1.8-1.8,1.8s-1.8-0.8-1.8-1.8
		C36.8,294.3,37.6,293.6,38.6,293.6z"/>
	<circle id="XMLID_10668_" class="st0 st36" cx="53.5" cy="251.9" r="1.8"/>
	<path id="XMLID_10667_" class="st0" d="M124.7,144c1,0,1.8,0.8,1.8,1.8c0,1-0.8,1.8-1.8,1.8c-1,0-1.8-0.8-1.8-1.8
		C123,144.8,123.7,144,124.7,144z"/>
	<path id="XMLID_10666_" class="st0" d="M36.3,325.4c1,0,1.8,0.8,1.8,1.8c0,1-0.8,1.8-1.8,1.8c-1,0-1.8-0.8-1.8-1.8
		C34.5,326.1,35.3,325.4,36.3,325.4z"/>
	<path id="XMLID_10665_" class="st0" d="M98.8,205.6c1,0,1.8,0.8,1.8,1.8c0,1-0.8,1.8-1.8,1.8c-1,0-1.8-0.8-1.8-1.8
		C97,206.4,97.8,205.6,98.8,205.6z"/>
	<path id="XMLID_10664_" class="st0" d="M131.2,173.1c1,0,1.8,0.8,1.8,1.8c0,1-0.8,1.8-1.8,1.8c-1,0-1.8-0.8-1.8-1.8
		C129.4,173.9,130.2,173.1,131.2,173.1z"/>
	<path id="XMLID_10663_" class="st0 st37" d="M120.4,149.2c1,0,1.8,0.8,1.8,1.8c0,1-0.8,1.8-1.8,1.8c-1,0-1.8-0.8-1.8-1.8
		C118.6,150,119.4,149.2,120.4,149.2z"/>
	<path id="XMLID_10662_" class="st0" d="M138.3,178.4c1,0,1.8,0.8,1.8,1.8c0,1-0.8,1.8-1.8,1.8c-1,0-1.8-0.8-1.8-1.8
		C136.6,179.2,137.3,178.4,138.3,178.4z"/>
	<path id="XMLID_10661_" class="st0" d="M34.6,163.6c1,0,1.8,0.8,1.8,1.8c0,1-0.8,1.8-1.8,1.8c-1,0-1.8-0.8-1.8-1.8
		C32.8,164.4,33.6,163.6,34.6,163.6z"/>
	<path id="XMLID_10660_" class="st0" d="M62.3,326.7c1,0,1.8,0.8,1.8,1.8c0,1-0.8,1.8-1.8,1.8c-1,0-1.8-0.8-1.8-1.8
		C60.5,327.4,61.3,326.7,62.3,326.7z"/>
	<path id="XMLID_10659_" class="st0" d="M40.4,311.7c1,0,1.8,0.8,1.8,1.8c0,1-0.8,1.8-1.8,1.8s-1.8-0.8-1.8-1.8
		C38.6,312.5,39.4,311.7,40.4,311.7z"/>
	<path id="XMLID_10658_" class="st0 st38" d="M37.2,305.3c1,0,1.8,0.8,1.8,1.8c0,1-0.8,1.8-1.8,1.8c-1,0-1.8-0.8-1.8-1.8
		C35.4,306.1,36.2,305.3,37.2,305.3z"/>
	<path id="XMLID_10657_" class="st0" d="M125.3,359.7c1,0,1.8,0.8,1.8,1.8c0,1-0.8,1.8-1.8,1.8c-1,0-1.8-0.8-1.8-1.8
		C123.5,360.5,124.3,359.7,125.3,359.7z"/>
	<path id="XMLID_10656_" class="st0 st39" d="M7.5,400.4c1,0,1.8,0.8,1.8,1.8s-0.8,1.8-1.8,1.8c-1,0-1.8-0.8-1.8-1.8S6.5,400.4,7.5,400.4
		z"/>
	<path id="XMLID_10655_" class="st0" d="M57.6,204c1,0,1.8,0.8,1.8,1.8s-0.8,1.8-1.8,1.8c-1,0-1.8-0.8-1.8-1.8S56.6,204,57.6,204z"
		/>
	<path id="XMLID_10654_" class="st0" d="M111,303.5c1,0,1.8,0.8,1.8,1.8c0,1-0.8,1.8-1.8,1.8c-1,0-1.8-0.8-1.8-1.8
		C109.2,304.3,110,303.5,111,303.5z"/>
	<circle id="XMLID_10653_" class="st0" cx="7.3" cy="361.6" r="1.8"/>
	<path id="XMLID_10652_" class="st0 st40" d="M146.9,224.3c1,0,1.8,0.8,1.8,1.8c0,1-0.8,1.8-1.8,1.8s-1.8-0.8-1.8-1.8
		C145.1,225.1,145.9,224.3,146.9,224.3z"/>
	<path id="XMLID_10651_" class="st0" d="M22.2,153.3c1,0,1.8,0.8,1.8,1.8c0,1-0.8,1.8-1.8,1.8c-1,0-1.8-0.8-1.8-1.8
		C20.4,154.1,21.2,153.3,22.2,153.3z"/>
	<path id="XMLID_10650_" class="st0" d="M72.7,189.3c1,0,1.8,0.8,1.8,1.8s-0.8,1.8-1.8,1.8c-1,0-1.8-0.8-1.8-1.8
		S71.7,189.3,72.7,189.3z"/>
	<path id="XMLID_10649_" class="st0" d="M48,105.3c1,0,1.8,0.8,1.8,1.8c0,1-0.8,1.8-1.8,1.8c-1,0-1.8-0.8-1.8-1.8
		C46.3,106.1,47,105.3,48,105.3z"/>
	<path id="XMLID_10648_" class="st0 st41" d="M60.4,45.6c1,0,1.8,0.8,1.8,1.8c0,1-0.8,1.8-1.8,1.8c-1,0-1.8-0.8-1.8-1.8
		C58.6,46.4,59.4,45.6,60.4,45.6z"/>
	<path id="XMLID_10647_" class="st0" d="M81.9,147.8c1,0,1.8,0.8,1.8,1.8c0,1-0.8,1.8-1.8,1.8c-1,0-1.8-0.8-1.8-1.8
		C80.2,148.6,80.9,147.8,81.9,147.8z"/>
	<path id="XMLID_10646_" class="st0" d="M5.2,264c1,0,1.8,0.8,1.8,1.8c0,1-0.8,1.8-1.8,1.8c-1,0-1.8-0.8-1.8-1.8
		C3.4,264.8,4.2,264,5.2,264z"/>
	<path id="XMLID_10645_" class="st0 st42" d="M11.1,312.5c1,0,1.8,0.8,1.8,1.8c0,1-0.8,1.8-1.8,1.8c-1,0-1.8-0.8-1.8-1.8
		C9.3,313.3,10.1,312.5,11.1,312.5z"/>
	<path id="XMLID_10644_" class="st0" d="M28.6,273.2c1,0,1.8,0.8,1.8,1.8c0,1-0.8,1.8-1.8,1.8c-1,0-1.8-0.8-1.8-1.8
		C26.9,274,27.6,273.2,28.6,273.2z"/>
	<circle id="XMLID_10643_" class="st0" cx="89.2" cy="132.8" r="1.8"/>
	<path id="XMLID_10642_" class="st0" d="M74.1,148.3c1,0,1.8,0.8,1.8,1.8c0,1-0.8,1.8-1.8,1.8c-1,0-1.8-0.8-1.8-1.8
		C72.3,149.1,73.1,148.3,74.1,148.3z"/>
	<path id="XMLID_10641_" class="st0" d="M18.8,239.2c1,0,1.8,0.8,1.8,1.8c0,1-0.8,1.8-1.8,1.8c-1,0-1.8-0.8-1.8-1.8
		C17,240,17.8,239.2,18.8,239.2z"/>
	<path id="XMLID_10640_" class="st0 st43" d="M16.5,250.9c1,0,1.8,0.8,1.8,1.8c0,1-0.8,1.8-1.8,1.8c-1,0-1.8-0.8-1.8-1.8
		C14.7,251.7,15.5,250.9,16.5,250.9z"/>
	<path id="XMLID_10639_" class="st0" d="M55.8,197c1,0,1.8,0.8,1.8,1.8c0,1-0.8,1.8-1.8,1.8s-1.8-0.8-1.8-1.8
		C54,197.8,54.8,197,55.8,197z"/>
	<circle id="XMLID_10638_" class="st0" cx="63" cy="273.5" r="1.8"/>
	<path id="XMLID_10637_" class="st0" d="M86.3,219.9c1,0,1.8,0.8,1.8,1.8c0,1-0.8,1.8-1.8,1.8c-1,0-1.8-0.8-1.8-1.8
		C84.5,220.7,85.3,219.9,86.3,219.9z"/>
	<path id="XMLID_10636_" class="st0" d="M66.6,205.5c1,0,1.8,0.8,1.8,1.8s-0.8,1.8-1.8,1.8c-1,0-1.8-0.8-1.8-1.8
		S65.6,205.5,66.6,205.5z"/>
	<circle id="XMLID_10635_" class="st0" cx="118.3" cy="273.1" r="1.8"/>
	<circle id="XMLID_10634_" class="st0" cx="93.1" cy="278.5" r="1.8"/>
	<path id="XMLID_10633_" class="st0 st44" d="M99.9,237.6c1,0,1.8,0.8,1.8,1.8s-0.8,1.8-1.8,1.8c-1,0-1.8-0.8-1.8-1.8
		S98.9,237.6,99.9,237.6z"/>
	<path id="XMLID_10632_" class="st0" d="M90.7,259.2c1,0,1.8,0.8,1.8,1.8s-0.8,1.8-1.8,1.8c-1,0-1.8-0.8-1.8-1.8
		S89.8,259.2,90.7,259.2z"/>
	<path id="XMLID_10631_" class="st0" d="M68.2,308.1c1,0,1.8,0.8,1.8,1.8c0,1-0.8,1.8-1.8,1.8c-1,0-1.8-0.8-1.8-1.8
		C66.5,308.9,67.3,308.1,68.2,308.1z"/>
	<circle id="XMLID_10630_" class="st0" cx="111.2" cy="372.9" r="1.8"/>
	<path id="XMLID_10629_" class="st0" d="M114.6,276.5c1,0,1.8,0.8,1.8,1.8c0,1-0.8,1.8-1.8,1.8c-1,0-1.8-0.8-1.8-1.8
		C112.9,277.3,113.7,276.5,114.6,276.5z"/>
	<path id="XMLID_10628_" class="st0 st45" d="M86.8,185.2c1,0,1.8,0.8,1.8,1.8c0,1-0.8,1.8-1.8,1.8c-1,0-1.8-0.8-1.8-1.8
		C85.1,186,85.8,185.2,86.8,185.2z"/>
	<path id="XMLID_10627_" class="st0" d="M33.8,204.5c1,0,1.8,0.8,1.8,1.8s-0.8,1.8-1.8,1.8c-1,0-1.8-0.8-1.8-1.8
		S32.8,204.5,33.8,204.5z"/>
	<path id="XMLID_10626_" class="st0" d="M82.1,195.4c1,0,1.8,0.8,1.8,1.8c0,1-0.8,1.8-1.8,1.8c-1,0-1.8-0.8-1.8-1.8
		C80.3,196.2,81.1,195.4,82.1,195.4z"/>
	<path id="XMLID_10625_" class="st0" d="M62.9,107c1,0,1.8,0.8,1.8,1.8c0,1-0.8,1.8-1.8,1.8c-1,0-1.8-0.8-1.8-1.8
		C61.2,107.8,62,107,62.9,107z"/>
	<path id="XMLID_10624_" class="st0" d="M26.4,239.9c1,0,1.8,0.8,1.8,1.8c0,1-0.8,1.8-1.8,1.8c-1,0-1.8-0.8-1.8-1.8
		C24.6,240.7,25.4,239.9,26.4,239.9z"/>
	<path id="XMLID_10623_" class="st0 st46" d="M96.3,269.8c1,0,1.8,0.8,1.8,1.8c0,1-0.8,1.8-1.8,1.8c-1,0-1.8-0.8-1.8-1.8
		C94.5,270.6,95.3,269.8,96.3,269.8z"/>
	<path id="XMLID_10622_" class="st0" d="M130.3,161.5c1,0,1.8,0.8,1.8,1.8c0,1-0.8,1.8-1.8,1.8c-1,0-1.8-0.8-1.8-1.8
		C128.6,162.3,129.4,161.5,130.3,161.5z"/>
	<path id="XMLID_10621_" class="st0" d="M75,181.3c1,0,1.8,0.8,1.8,1.8c0,1-0.8,1.8-1.8,1.8c-1,0-1.8-0.8-1.8-1.8
		C73.2,182.1,74,181.3,75,181.3z"/>
	<path id="XMLID_10620_" class="st0" d="M86.7,124.3c1,0,1.8,0.8,1.8,1.8c0,1-0.8,1.8-1.8,1.8c-1,0-1.8-0.8-1.8-1.8
		C84.9,125.1,85.7,124.3,86.7,124.3z"/>
	<circle id="XMLID_10619_" class="st0" cx="9.4" cy="259.1" r="1.8"/>
	<circle id="XMLID_10618_" class="st0" cx="46.6" cy="226.8" r="1.8"/>
	<path id="XMLID_10617_" class="st0 st47" d="M28.3,350.8c1,0,1.8,0.8,1.8,1.8c0,1-0.8,1.8-1.8,1.8c-1,0-1.8-0.8-1.8-1.8
		C26.5,351.5,27.3,350.8,28.3,350.8z"/>
	<path id="XMLID_10616_" class="st0" d="M14.9,333.9c1,0,1.8,0.8,1.8,1.8c0,1-0.8,1.8-1.8,1.8c-1,0-1.8-0.8-1.8-1.8
		C13.1,334.7,13.9,333.9,14.9,333.9z"/>
	<path id="XMLID_10615_" class="st0" d="M57.2,262.8c1,0,1.8,0.8,1.8,1.8c0,1-0.8,1.8-1.8,1.8s-1.8-0.8-1.8-1.8
		C55.4,263.6,56.2,262.8,57.2,262.8z"/>
	<path id="XMLID_10614_" class="st0 st48" d="M29.5,195.1c1,0,1.8,0.8,1.8,1.8s-0.8,1.8-1.8,1.8c-1,0-1.8-0.8-1.8-1.8
		S28.6,195.1,29.5,195.1z"/>
	<path id="XMLID_10613_" class="st0" d="M96,157.6c1,0,1.8,0.8,1.8,1.8c0,1-0.8,1.8-1.8,1.8c-1,0-1.8-0.8-1.8-1.8
		C94.3,158.4,95,157.6,96,157.6z"/>
	<path id="XMLID_10612_" class="st0" d="M42.9,133.9c1,0,1.8,0.8,1.8,1.8c0,1-0.8,1.8-1.8,1.8c-1,0-1.8-0.8-1.8-1.8
		C41.2,134.7,41.9,133.9,42.9,133.9z"/>
	<path id="XMLID_10611_" class="st0" d="M13,318c1,0,1.8,0.8,1.8,1.8c0,1-0.8,1.8-1.8,1.8c-1,0-1.8-0.8-1.8-1.8
		C11.2,318.8,12,318,13,318z"/>
	<path id="XMLID_10610_" class="st0" d="M14,301.3c1,0,1.8,0.8,1.8,1.8c0,1-0.8,1.8-1.8,1.8c-1,0-1.8-0.8-1.8-1.8
		C12.3,302.1,13.1,301.3,14,301.3z"/>
	<path id="XMLID_10609_" class="st0 st49" d="M84.5,332.3c1,0,1.8,0.8,1.8,1.8c0,1-0.8,1.8-1.8,1.8c-1,0-1.8-0.8-1.8-1.8
		C82.7,333.1,83.5,332.3,84.5,332.3z"/>
	<path id="XMLID_10608_" class="st0" d="M22.1,161.4c1,0,1.8,0.8,1.8,1.8c0,1-0.8,1.8-1.8,1.8c-1,0-1.8-0.8-1.8-1.8
		C20.3,162.2,21.1,161.4,22.1,161.4z"/>
	<path id="XMLID_10607_" class="st0 st50" d="M17.3,346.8c1,0,1.8,0.8,1.8,1.8c0,1-0.8,1.8-1.8,1.8c-1,0-1.8-0.8-1.8-1.8
		C15.6,347.6,16.4,346.8,17.3,346.8z"/>
	<path id="XMLID_10606_" class="st0" d="M38.6,208.7c1,0,1.8,0.8,1.8,1.8c0,1-0.8,1.8-1.8,1.8s-1.8-0.8-1.8-1.8
		C36.8,209.5,37.6,208.7,38.6,208.7z"/>
	<path id="XMLID_10605_" class="st0" d="M25.3,358.3c1,0,1.8,0.8,1.8,1.8s-0.8,1.8-1.8,1.8c-1,0-1.8-0.8-1.8-1.8
		S24.3,358.3,25.3,358.3z"/>
	<path id="XMLID_10604_" class="st0 st51" d="M124.3,154.5c1,0,1.8,0.8,1.8,1.8s-0.8,1.8-1.8,1.8c-1,0-1.8-0.8-1.8-1.8
		S123.3,154.5,124.3,154.5z"/>
	<path id="XMLID_10603_" class="st0" d="M40.3,360.6c1,0,1.8,0.8,1.8,1.8c0,1-0.8,1.8-1.8,1.8c-1,0-1.8-0.8-1.8-1.8
		C38.6,361.4,39.4,360.6,40.3,360.6z"/>
	<path id="XMLID_10602_" class="st0 st52" d="M81.3,306.8c1,0,1.8,0.8,1.8,1.8c0,1-0.8,1.8-1.8,1.8c-1,0-1.8-0.8-1.8-1.8
		C79.5,307.6,80.3,306.8,81.3,306.8z"/>
	<path id="XMLID_10601_" class="st0" d="M19.6,198.2c1,0,1.8,0.8,1.8,1.8c0,1-0.8,1.8-1.8,1.8c-1,0-1.8-0.8-1.8-1.8
		C17.9,198.9,18.6,198.2,19.6,198.2z"/>
	<path id="XMLID_10600_" class="st0" d="M117.5,246.1c1,0,1.8,0.8,1.8,1.8c0,1-0.8,1.8-1.8,1.8c-1,0-1.8-0.8-1.8-1.8
		C115.8,246.9,116.6,246.1,117.5,246.1z"/>
	<path id="XMLID_10599_" class="st0 st53" d="M140.5,186.1c1,0,1.8,0.8,1.8,1.8c0,1-0.8,1.8-1.8,1.8c-1,0-1.8-0.8-1.8-1.8
		C138.8,186.9,139.5,186.1,140.5,186.1z"/>
	<path id="XMLID_10598_" class="st0" d="M37.7,178.5c1,0,1.8,0.8,1.8,1.8c0,1-0.8,1.8-1.8,1.8c-1,0-1.8-0.8-1.8-1.8
		C36,179.3,36.8,178.5,37.7,178.5z"/>
	<path id="XMLID_10597_" class="st0 st54" d="M3.7,339c1,0,1.8,0.8,1.8,1.8c0,1-0.8,1.8-1.8,1.8c-1,0-1.8-0.8-1.8-1.8
		C1.9,339.8,2.7,339,3.7,339z"/>
	<path id="XMLID_10596_" class="st0" d="M121.7,291.7c1,0,1.8,0.8,1.8,1.8c0,1-0.8,1.8-1.8,1.8c-1,0-1.8-0.8-1.8-1.8
		C119.9,292.5,120.7,291.7,121.7,291.7z"/>
	<path id="XMLID_10595_" class="st0" d="M93,333.6c1,0,1.8,0.8,1.8,1.8c0,1-0.8,1.8-1.8,1.8c-1,0-1.8-0.8-1.8-1.8
		C91.3,334.4,92.1,333.6,93,333.6z"/>
	<path id="XMLID_10594_" class="st0" d="M27,321.7c1,0,1.8,0.8,1.8,1.8c0,1-0.8,1.8-1.8,1.8s-1.8-0.8-1.8-1.8
		C25.2,322.5,26,321.7,27,321.7z"/>
	<path id="XMLID_10593_" class="st0" d="M42.1,340.6c1,0,1.8,0.8,1.8,1.8c0,1-0.8,1.8-1.8,1.8c-1,0-1.8-0.8-1.8-1.8
		C40.4,341.4,41.1,340.6,42.1,340.6z"/>
	<circle id="XMLID_10592_" class="st0 st55" cx="118.7" cy="234.5" r="1.8"/>
	<path id="XMLID_10591_" class="st0" d="M19.2,328c1,0,1.8,0.8,1.8,1.8c0,1-0.8,1.8-1.8,1.8c-1,0-1.8-0.8-1.8-1.8
		C17.4,328.8,18.2,328,19.2,328z"/>
	<path id="XMLID_10590_" class="st0" d="M58.8,151.5c1,0,1.8,0.8,1.8,1.8s-0.8,1.8-1.8,1.8c-1,0-1.8-0.8-1.8-1.8
		S57.8,151.5,58.8,151.5z"/>
	<path id="XMLID_10589_" class="st0" d="M49.5,159.2c1,0,1.8,0.8,1.8,1.8c0,1-0.8,1.8-1.8,1.8c-1,0-1.8-0.8-1.8-1.8
		C47.8,160,48.6,159.2,49.5,159.2z"/>
	<path id="XMLID_10588_" class="st0" d="M3.2,307.2c1,0,1.8,0.8,1.8,1.8c0,1-0.8,1.8-1.8,1.8c-1,0-1.8-0.8-1.8-1.8
		C1.4,307.9,2.2,307.2,3.2,307.2z"/>
	<path id="XMLID_10587_" class="st0 st56" d="M11,185c1,0,1.8,0.8,1.8,1.8c0,1-0.8,1.8-1.8,1.8c-1,0-1.8-0.8-1.8-1.8
		C9.3,185.8,10.1,185,11,185z"/>
	<path id="XMLID_10586_" class="st0" d="M84.8,202.6c1,0,1.8,0.8,1.8,1.8c0,1-0.8,1.8-1.8,1.8c-1,0-1.8-0.8-1.8-1.8
		C83,203.4,83.8,202.6,84.8,202.6z"/>
	<path id="XMLID_10585_" class="st0" d="M48.3,293.3c1,0,1.8,0.8,1.8,1.8c0,1-0.8,1.8-1.8,1.8c-1,0-1.8-0.8-1.8-1.8
		C46.5,294.1,47.3,293.3,48.3,293.3z"/>
	<path id="XMLID_10584_" class="st0" d="M119.1,219.2c1,0,1.8,0.8,1.8,1.8c0,1-0.8,1.8-1.8,1.8c-1,0-1.8-0.8-1.8-1.8
		C117.4,220,118.2,219.2,119.1,219.2z"/>
	<path id="XMLID_10583_" class="st0 st57" d="M34.9,240.9c1,0,1.8,0.8,1.8,1.8c0,1-0.8,1.8-1.8,1.8s-1.8-0.8-1.8-1.8
		C33.2,241.7,34,240.9,34.9,240.9z"/>
	<path id="XMLID_10582_" class="st0" d="M131.5,152.8c1,0,1.8,0.8,1.8,1.8s-0.8,1.8-1.8,1.8s-1.8-0.8-1.8-1.8
		S130.5,152.8,131.5,152.8z"/>
	<path id="XMLID_10581_" class="st0" d="M58.7,167.7c1,0,1.8,0.8,1.8,1.8s-0.8,1.8-1.8,1.8c-1,0-1.8-0.8-1.8-1.8
		S57.8,167.7,58.7,167.7z"/>
	<path id="XMLID_10580_" class="st0 st58" d="M14.5,129.5c1,0,1.8,0.8,1.8,1.8c0,1-0.8,1.8-1.8,1.8c-1,0-1.8-0.8-1.8-1.8
		C12.7,130.3,13.5,129.5,14.5,129.5z"/>
	<path id="XMLID_10579_" class="st0" d="M126.2,286.7c1,0,1.8,0.8,1.8,1.8c0,1-0.8,1.8-1.8,1.8c-1,0-1.8-0.8-1.8-1.8
		C124.4,287.5,125.2,286.7,126.2,286.7z"/>
	<path id="XMLID_10578_" class="st0" d="M10.9,176.3c1,0,1.8,0.8,1.8,1.8c0,1-0.8,1.8-1.8,1.8c-1,0-1.8-0.8-1.8-1.8
		C9.2,177.1,10,176.3,10.9,176.3z"/>
	<path id="XMLID_10577_" class="st0" d="M2.3,146.2c1,0,1.8,0.8,1.8,1.8c0,1-0.8,1.8-1.8,1.8c-1,0-1.8-0.8-1.8-1.8
		C0.5,146.9,1.3,146.2,2.3,146.2z"/>
	<path id="XMLID_10576_" class="st0 st59" d="M70.1,195.1c1,0,1.8,0.8,1.8,1.8s-0.8,1.8-1.8,1.8c-1,0-1.8-0.8-1.8-1.8
		S69.2,195.1,70.1,195.1z"/>
	<path id="XMLID_10575_" class="st0" d="M23.5,113.3c1,0,1.8,0.8,1.8,1.8c0,1-0.8,1.8-1.8,1.8c-1,0-1.8-0.8-1.8-1.8
		C21.7,114,22.5,113.3,23.5,113.3z"/>
	<path id="XMLID_10574_" class="st0" d="M135.6,168.5c1,0,1.8,0.8,1.8,1.8s-0.8,1.8-1.8,1.8c-1,0-1.8-0.8-1.8-1.8
		S134.7,168.5,135.6,168.5z"/>
	<circle id="XMLID_10573_" class="st0" cx="145.6" cy="185" r="1.8"/>
	<path id="XMLID_10572_" class="st0" d="M63,210.7c1,0,1.8,0.8,1.8,1.8c0,1-0.8,1.8-1.8,1.8c-1,0-1.8-0.8-1.8-1.8
		C61.2,211.5,62,210.7,63,210.7z"/>
	<path id="XMLID_10571_" class="st0 st60" d="M62.9,83.5c1,0,1.8,0.8,1.8,1.8c0,1-0.8,1.8-1.8,1.8c-1,0-1.8-0.8-1.8-1.8
		C61.2,84.3,62,83.5,62.9,83.5z"/>
	<path id="XMLID_10570_" class="st0" d="M83.2,314c1,0,1.8,0.8,1.8,1.8c0,1-0.8,1.8-1.8,1.8c-1,0-1.8-0.8-1.8-1.8
		C81.4,314.8,82.2,314,83.2,314z"/>
	<path id="XMLID_10569_" class="st0" d="M98.2,151.3c1,0,1.8,0.8,1.8,1.8c0,1-0.8,1.8-1.8,1.8c-1,0-1.8-0.8-1.8-1.8
		C96.4,152.1,97.2,151.3,98.2,151.3z"/>
	<path id="XMLID_10568_" class="st0 st61" d="M53,222.5c1,0,1.8,0.8,1.8,1.8c0,1-0.8,1.8-1.8,1.8c-1,0-1.8-0.8-1.8-1.8
		C51.3,223.3,52.1,222.5,53,222.5z"/>
	<path id="XMLID_10567_" class="st0" d="M67.3,282.7c1,0,1.8,0.8,1.8,1.8c0,1-0.8,1.8-1.8,1.8c-1,0-1.8-0.8-1.8-1.8
		C65.5,283.4,66.3,282.7,67.3,282.7z"/>
	<path id="XMLID_10566_" class="st0 st62" d="M87.4,228.7c1,0,1.8,0.8,1.8,1.8c0,1-0.8,1.8-1.8,1.8c-1,0-1.8-0.8-1.8-1.8
		C85.7,229.5,86.5,228.7,87.4,228.7z"/>
	<path id="XMLID_10565_" class="st0" d="M49.6,207.1c1,0,1.8,0.8,1.8,1.8c0,1-0.8,1.8-1.8,1.8c-1,0-1.8-0.8-1.8-1.8
		C47.9,207.9,48.7,207.1,49.6,207.1z"/>
	<path id="XMLID_10564_" class="st0" d="M128.9,280.2c1,0,1.8,0.8,1.8,1.8c0,1-0.8,1.8-1.8,1.8c-1,0-1.8-0.8-1.8-1.8
		C127.2,281,128,280.2,128.9,280.2z"/>
	<path id="XMLID_10563_" class="st0 st62" d="M21.9,314.1c1,0,1.8,0.8,1.8,1.8c0,1-0.8,1.8-1.8,1.8c-1,0-1.8-0.8-1.8-1.8
		C20.2,314.9,21,314.1,21.9,314.1z"/>
	<path id="XMLID_10562_" class="st0" d="M105.3,161.7c1,0,1.8,0.8,1.8,1.8c0,1-0.8,1.8-1.8,1.8c-1,0-1.8-0.8-1.8-1.8
		C103.6,162.5,104.4,161.7,105.3,161.7z"/>
	<path id="XMLID_10561_" class="st0" d="M110.5,154.5c1,0,1.8,0.8,1.8,1.8c0,1-0.8,1.8-1.8,1.8c-1,0-1.8-0.8-1.8-1.8
		C108.8,155.3,109.6,154.5,110.5,154.5z"/>
	<path id="XMLID_10560_" class="st0" d="M30,262.3c1,0,1.8,0.8,1.8,1.8c0,1-0.8,1.8-1.8,1.8s-1.8-0.8-1.8-1.8
		C28.2,263.1,29,262.3,30,262.3z"/>
	<circle id="XMLID_10559_" class="st0 st64" cx="28.7" cy="249" r="1.8"/>
	<path id="XMLID_10558_" class="st0" d="M103.9,283.9c1,0,1.8,0.8,1.8,1.8c0,1-0.8,1.8-1.8,1.8c-1,0-1.8-0.8-1.8-1.8
		C102.2,284.7,102.9,283.9,103.9,283.9z"/>
	<circle id="XMLID_10557_" class="st0" cx="39.1" cy="174.3" r="1.8"/>
	<path id="XMLID_10556_" class="st0" d="M47.1,301.8c1,0,1.8,0.8,1.8,1.8c0,1-0.8,1.8-1.8,1.8c-1,0-1.8-0.8-1.8-1.8
		C45.4,302.6,46.2,301.8,47.1,301.8z"/>
	<path id="XMLID_10555_" class="st0" d="M105.6,219.7c1,0,1.8,0.8,1.8,1.8s-0.8,1.8-1.8,1.8c-1,0-1.8-0.8-1.8-1.8
		S104.6,219.7,105.6,219.7z"/>
	<path id="XMLID_10554_" class="st0" d="M61.9,189c1,0,1.8,0.8,1.8,1.8c0,1-0.8,1.8-1.8,1.8c-1,0-1.8-0.8-1.8-1.8
		C60.2,189.7,60.9,189,61.9,189z"/>
	<path id="XMLID_10553_" class="st0 st65" d="M54.4,329.5c1,0,1.8,0.8,1.8,1.8c0,1-0.8,1.8-1.8,1.8c-1,0-1.8-0.8-1.8-1.8
		C52.7,330.3,53.5,329.5,54.4,329.5z"/>
	<path id="XMLID_10552_" class="st0" d="M133.5,246.1c1,0,1.8,0.8,1.8,1.8c0,1-0.8,1.8-1.8,1.8c-1,0-1.8-0.8-1.8-1.8
		C131.7,246.9,132.5,246.1,133.5,246.1z"/>
	<path id="XMLID_10551_" class="st0" d="M40.7,301c1,0,1.8,0.8,1.8,1.8c0,1-0.8,1.8-1.8,1.8s-1.8-0.8-1.8-1.8
		C39,301.8,39.8,301,40.7,301z"/>
	<path id="XMLID_10550_" class="st0 st66" d="M30.4,144.5c1,0,1.8,0.8,1.8,1.8c0,1-0.8,1.8-1.8,1.8c-1,0-1.8-0.8-1.8-1.8
		C28.6,145.3,29.4,144.5,30.4,144.5z"/>
	<circle id="XMLID_10549_" class="st0" cx="86.7" cy="280.3" r="1.8"/>
	<path id="XMLID_10548_" class="st0" d="M21,351.3c1,0,1.8,0.8,1.8,1.8c0,1-0.8,1.8-1.8,1.8c-1,0-1.8-0.8-1.8-1.8
		C19.2,352.1,20,351.3,21,351.3z"/>
	<path id="XMLID_10547_" class="st0" d="M94.6,227.4c1,0,1.8,0.8,1.8,1.8c0,1-0.8,1.8-1.8,1.8c-1,0-1.8-0.8-1.8-1.8
		C92.8,228.2,93.6,227.4,94.6,227.4z"/>
	<path id="XMLID_10546_" class="st0" d="M94.2,163.6c1,0,1.8,0.8,1.8,1.8c0,1-0.8,1.8-1.8,1.8c-1,0-1.8-0.8-1.8-1.8
		C92.4,164.4,93.2,163.6,94.2,163.6z"/>
	<path id="XMLID_10545_" class="st0 st67" d="M65.8,156.2c1,0,1.8,0.8,1.8,1.8c0,1-0.8,1.8-1.8,1.8c-1,0-1.8-0.8-1.8-1.8
		C64.1,157,64.9,156.2,65.8,156.2z"/>
	<path id="XMLID_10544_" class="st0" d="M58.1,319c1,0,1.8,0.8,1.8,1.8c0,1-0.8,1.8-1.8,1.8c-1,0-1.8-0.8-1.8-1.8
		C56.3,319.8,57.1,319,58.1,319z"/>
	<path id="XMLID_10543_" class="st0" d="M30.1,309.4c1,0,1.8,0.8,1.8,1.8c0,1-0.8,1.8-1.8,1.8c-1,0-1.8-0.8-1.8-1.8
		C28.3,310.2,29.1,309.4,30.1,309.4z"/>
	<path id="XMLID_10542_" class="st0 st68" d="M136.3,192.8c1,0,1.8,0.8,1.8,1.8s-0.8,1.8-1.8,1.8c-1,0-1.8-0.8-1.8-1.8
		S135.4,192.8,136.3,192.8z"/>
	<path id="XMLID_10541_" class="st0" d="M78.7,202.6c1,0,1.8,0.8,1.8,1.8c0,1-0.8,1.8-1.8,1.8c-1,0-1.8-0.8-1.8-1.8
		C76.9,203.3,77.7,202.6,78.7,202.6z"/>
	<path id="XMLID_10540_" class="st0" d="M18.2,179.8c1,0,1.8,0.8,1.8,1.8c0,1-0.8,1.8-1.8,1.8c-1,0-1.8-0.8-1.8-1.8
		C16.4,180.6,17.2,179.8,18.2,179.8z"/>
	<path id="XMLID_10539_" class="st0 st69" d="M73.3,252.7c1,0,1.8,0.8,1.8,1.8c0,1-0.8,1.8-1.8,1.8c-1,0-1.8-0.8-1.8-1.8
		C71.6,253.5,72.4,252.7,73.3,252.7z"/>
	<path id="XMLID_10538_" class="st0" d="M124.8,167.5c1,0,1.8,0.8,1.8,1.8s-0.8,1.8-1.8,1.8c-1,0-1.8-0.8-1.8-1.8
		S123.9,167.5,124.8,167.5z"/>
	<path id="XMLID_10537_" class="st0" d="M61.5,333.8c1,0,1.8,0.8,1.8,1.8c0,1-0.8,1.8-1.8,1.8s-1.8-0.8-1.8-1.8
		C59.7,334.5,60.5,333.8,61.5,333.8z"/>
	<path id="XMLID_10536_" class="st0" d="M28.8,213.1c1,0,1.8,0.8,1.8,1.8s-0.8,1.8-1.8,1.8s-1.8-0.8-1.8-1.8S27.8,213.1,28.8,213.1z
		"/>
	<circle id="XMLID_10535_" class="st0 st70" cx="33.4" cy="187.3" r="1.8"/>
	<path id="XMLID_10534_" class="st0" d="M121,161.5c1,0,1.8,0.8,1.8,1.8c0,1-0.8,1.8-1.8,1.8c-1,0-1.8-0.8-1.8-1.8
		C119.2,162.3,120,161.5,121,161.5z"/>
	<path id="XMLID_10533_" class="st0" d="M1.6,381.5c1,0,1.8,0.8,1.8,1.8c0,1-0.8,1.8-1.8,1.8c-1,0-1.8-0.8-1.8-1.8
		C-0.2,382.3,0.6,381.5,1.6,381.5z"/>
	<circle id="XMLID_10532_" class="st0" cx="15.6" cy="167.6" r="1.8"/>
	<path id="XMLID_10531_" class="st0" d="M84.3,263c1,0,1.8,0.8,1.8,1.8c0,1-0.8,1.8-1.8,1.8c-1,0-1.8-0.8-1.8-1.8
		C82.6,263.8,83.4,263,84.3,263z"/>
	<path id="XMLID_10530_" class="st0 st71" d="M40.4,251.5c1,0,1.8,0.8,1.8,1.8c0,1-0.8,1.8-1.8,1.8c-1,0-1.8-0.8-1.8-1.8
		C38.7,252.2,39.4,251.5,40.4,251.5z"/>
	<path id="XMLID_10529_" class="st0" d="M2.6,152c1,0,1.8,0.8,1.8,1.8c0,1-0.8,1.8-1.8,1.8c-1,0-1.8-0.8-1.8-1.8
		C0.9,152.8,1.7,152,2.6,152z"/>
	<path id="XMLID_10528_" class="st0" d="M91,170.4c1,0,1.8,0.8,1.8,1.8c0,1-0.8,1.8-1.8,1.8c-1,0-1.8-0.8-1.8-1.8
		C89.2,171.1,90,170.4,91,170.4z"/>
	<path id="XMLID_10527_" class="st0" d="M135.2,240.4c1,0,1.8,0.8,1.8,1.8c0,1-0.8,1.8-1.8,1.8c-1,0-1.8-0.8-1.8-1.8
		C133.5,241.2,134.3,240.4,135.2,240.4z"/>
	<path id="XMLID_10526_" class="st0 st72" d="M69.1,257.4c1,0,1.8,0.8,1.8,1.8c0,1-0.8,1.8-1.8,1.8c-1,0-1.8-0.8-1.8-1.8
		C67.4,258.2,68.1,257.4,69.1,257.4z"/>
	<path id="XMLID_10525_" class="st0" d="M96.8,287.1c1,0,1.8,0.8,1.8,1.8c0,1-0.8,1.8-1.8,1.8c-1,0-1.8-0.8-1.8-1.8
		C95,287.9,95.8,287.1,96.8,287.1z"/>
	<path id="XMLID_10524_" class="st0" d="M42,189c1,0,1.8,0.8,1.8,1.8c0,1-0.8,1.8-1.8,1.8c-1,0-1.8-0.8-1.8-1.8
		C40.3,189.8,41.1,189,42,189z"/>
	<circle id="XMLID_10523_" class="st0" cx="3.5" cy="242.8" r="1.8"/>
	<path id="XMLID_10522_" class="st0" d="M102.6,226.8c1,0,1.8,0.8,1.8,1.8c0,1-0.8,1.8-1.8,1.8c-1,0-1.8-0.8-1.8-1.8
		C100.8,227.6,101.6,226.8,102.6,226.8z"/>
	<path id="XMLID_10521_" class="st0 st72" d="M33.1,359.6c1,0,1.8,0.8,1.8,1.8s-0.8,1.8-1.8,1.8c-1,0-1.8-0.8-1.8-1.8
		S32.1,359.6,33.1,359.6z"/>
	<path id="XMLID_10520_" class="st0" d="M75.7,316.7c1,0,1.8,0.8,1.8,1.8c0,1-0.8,1.8-1.8,1.8c-1,0-1.8-0.8-1.8-1.8
		C73.9,317.4,74.7,316.7,75.7,316.7z"/>
	<path id="XMLID_10519_" class="st0" d="M28.1,126.9c1,0,1.8,0.8,1.8,1.8c0,1-0.8,1.8-1.8,1.8c-1,0-1.8-0.8-1.8-1.8
		C26.3,127.7,27.1,126.9,28.1,126.9z"/>
	<path id="XMLID_10518_" class="st0 st73" d="M74.5,124c1,0,1.8,0.8,1.8,1.8c0,1-0.8,1.8-1.8,1.8c-1,0-1.8-0.8-1.8-1.8
		C72.7,124.8,73.5,124,74.5,124z"/>
	<circle id="XMLID_10517_" class="st0" cx="101.4" cy="168.6" r="1.8"/>
	<circle id="XMLID_10516_" class="st0 st74" cx="27.9" cy="330.6" r="1.8"/>
	<path id="XMLID_10515_" class="st0" d="M43,126.9c1,0,1.8,0.8,1.8,1.8c0,1-0.8,1.8-1.8,1.8c-1,0-1.8-0.8-1.8-1.8
		C41.2,127.7,42,126.9,43,126.9z"/>
	<path id="XMLID_10514_" class="st0" d="M33.4,378.4c1,0,1.8,0.8,1.8,1.8c0,1-0.8,1.8-1.8,1.8c-1,0-1.8-0.8-1.8-1.8
		C31.6,379.2,32.4,378.4,33.4,378.4z"/>
	<circle id="XMLID_10513_" class="st0" cx="82.8" cy="137.1" r="1.8"/>
	<path id="XMLID_10512_" class="st0 st74" d="M68.1,120.1c1,0,1.8,0.8,1.8,1.8c0,1-0.8,1.8-1.8,1.8c-1,0-1.8-0.8-1.8-1.8
		C66.4,120.9,67.2,120.1,68.1,120.1z"/>
	<path id="XMLID_10511_" class="st0" d="M143.1,244.7c1,0,1.8,0.8,1.8,1.8c0,1-0.8,1.8-1.8,1.8c-1,0-1.8-0.8-1.8-1.8
		C141.3,245.5,142.1,244.7,143.1,244.7z"/>
	<path id="XMLID_10510_" class="st0" d="M5,181.1c1,0,1.8,0.8,1.8,1.8S6,184.6,5,184.6c-1,0-1.8-0.8-1.8-1.8S4.1,181.1,5,181.1z"/>
	<path id="XMLID_10509_" class="st0" d="M31.6,391.8c1,0,1.8,0.8,1.8,1.8c0,1-0.8,1.8-1.8,1.8c-1,0-1.8-0.8-1.8-1.8
		C29.8,392.6,30.6,391.8,31.6,391.8z"/>
	<circle id="XMLID_10508_" class="st0 st75" cx="85.5" cy="164.6" r="1.8"/>
	<path id="XMLID_10507_" class="st0" d="M38.5,330.2c1,0,1.8,0.8,1.8,1.8c0,1-0.8,1.8-1.8,1.8c-1,0-1.8-0.8-1.8-1.8
		C36.7,330.9,37.5,330.2,38.5,330.2z"/>
	<path id="XMLID_10506_" class="st0" d="M43.1,318.5c1,0,1.8,0.8,1.8,1.8c0,1-0.8,1.8-1.8,1.8s-1.8-0.8-1.8-1.8
		C41.3,319.3,42.1,318.5,43.1,318.5z"/>
	<path id="XMLID_10505_" class="st0" d="M3.4,273.3c1,0,1.8,0.8,1.8,1.8c0,1-0.8,1.8-1.8,1.8c-1,0-1.8-0.8-1.8-1.8
		C1.6,274.1,2.4,273.3,3.4,273.3z"/>
	<path id="XMLID_10504_" class="st0" d="M54.9,297.1c1,0,1.8,0.8,1.8,1.8c0,1-0.8,1.8-1.8,1.8c-1,0-1.8-0.8-1.8-1.8
		C53.2,297.9,54,297.1,54.9,297.1z"/>
	<path id="XMLID_10503_" class="st0 st76" d="M27,402.7c1,0,1.8,0.8,1.8,1.8c0,1-0.8,1.8-1.8,1.8c-1,0-1.8-0.8-1.8-1.8
		C25.2,403.5,26,402.7,27,402.7z"/>
	<path id="XMLID_10502_" class="st0" d="M48.4,192.9c1,0,1.8,0.8,1.8,1.8s-0.8,1.8-1.8,1.8s-1.8-0.8-1.8-1.8S47.5,192.9,48.4,192.9z
		"/>
	<path id="XMLID_10501_" class="st0" d="M48,119.5c1,0,1.8,0.8,1.8,1.8c0,1-0.8,1.8-1.8,1.8c-1,0-1.8-0.8-1.8-1.8
		C46.3,120.3,47,119.5,48,119.5z"/>
	<path id="XMLID_10500_" class="st0" d="M72,236.8c1,0,1.8,0.8,1.8,1.8c0,1-0.8,1.8-1.8,1.8c-1,0-1.8-0.8-1.8-1.8
		C70.3,237.6,71.1,236.8,72,236.8z"/>
	<circle id="XMLID_10499_" class="st0" cx="28.7" cy="10.5" r="1.8"/>
	<path id="XMLID_10498_" class="st0" d="M134.1,183.7c1,0,1.8,0.8,1.8,1.8c0,1-0.8,1.8-1.8,1.8c-1,0-1.8-0.8-1.8-1.8
		C132.4,184.5,133.2,183.7,134.1,183.7z"/>
	<path id="XMLID_10497_" class="st0" d="M90.8,317.1c1,0,1.8,0.8,1.8,1.8c0,1-0.8,1.8-1.8,1.8c-1,0-1.8-0.8-1.8-1.8
		C89,317.9,89.8,317.1,90.8,317.1z"/>
	<circle id="XMLID_10496_" class="st0 st77" cx="35.4" cy="279.9" r="1.8"/>
	<path id="XMLID_10495_" class="st0" d="M23.1,229.8c1,0,1.8,0.8,1.8,1.8s-0.8,1.8-1.8,1.8c-1,0-1.8-0.8-1.8-1.8
		S22.1,229.8,23.1,229.8z"/>
	<circle id="XMLID_10494_" class="st0" cx="136.2" cy="163.1" r="1.8"/>
	<path id="XMLID_10493_" class="st0" d="M145,205.2c1,0,1.8,0.8,1.8,1.8s-0.8,1.8-1.8,1.8c-1,0-1.8-0.8-1.8-1.8S144,205.2,145,205.2
		z"/>
	<path id="XMLID_10492_" class="st0" d="M11.9,170.9c1,0,1.8,0.8,1.8,1.8c0,1-0.8,1.8-1.8,1.8c-1,0-1.8-0.8-1.8-1.8
		C10.1,171.7,10.9,170.9,11.9,170.9z"/>
	<path id="XMLID_10491_" class="st0 st78" d="M58.6,370.2c1,0,1.8,0.8,1.8,1.8c0,1-0.8,1.8-1.8,1.8c-1,0-1.8-0.8-1.8-1.8
		C56.9,371,57.7,370.2,58.6,370.2z"/>
	<path id="XMLID_10490_" class="st0" d="M101.5,267.7c1,0,1.8,0.8,1.8,1.8c0,1-0.8,1.8-1.8,1.8c-1,0-1.8-0.8-1.8-1.8
		C99.7,268.5,100.5,267.7,101.5,267.7z"/>
	<path id="XMLID_10489_" class="st0" d="M46.6,368.7c1,0,1.8,0.8,1.8,1.8c0,1-0.8,1.8-1.8,1.8c-1,0-1.8-0.8-1.8-1.8
		C44.8,369.4,45.6,368.7,46.6,368.7z"/>
	<path id="XMLID_10488_" class="st0" d="M96.8,319.7c1,0,1.8,0.8,1.8,1.8c0,1-0.8,1.8-1.8,1.8c-1,0-1.8-0.8-1.8-1.8
		C95,320.5,95.8,319.7,96.8,319.7z"/>
	<path id="XMLID_10487_" class="st0" d="M18.4,307.1c1,0,1.8,0.8,1.8,1.8c0,1-0.8,1.8-1.8,1.8c-1,0-1.8-0.8-1.8-1.8
		C16.6,307.9,17.4,307.1,18.4,307.1z"/>
	<path id="XMLID_10486_" class="st0" d="M68.6,316.2c1,0,1.8,0.8,1.8,1.8c0,1-0.8,1.8-1.8,1.8s-1.8-0.8-1.8-1.8
		C66.8,316.9,67.6,316.2,68.6,316.2z"/>
	<path id="XMLID_10485_" class="st0 st79" d="M18.8,376.5c1,0,1.8,0.8,1.8,1.8c0,1-0.8,1.8-1.8,1.8c-1,0-1.8-0.8-1.8-1.8
		C17,377.3,17.8,376.5,18.8,376.5z"/>
	<path id="XMLID_10484_" class="st0" d="M13.6,121.1c1,0,1.8,0.8,1.8,1.8c0,1-0.8,1.8-1.8,1.8c-1,0-1.8-0.8-1.8-1.8
		C11.8,121.8,12.6,121.1,13.6,121.1z"/>
	<path id="XMLID_10483_" class="st0" d="M127.5,178.2c1,0,1.8,0.8,1.8,1.8c0,1-0.8,1.8-1.8,1.8c-1,0-1.8-0.8-1.8-1.8
		C125.8,179,126.6,178.2,127.5,178.2z"/>
	<path id="XMLID_10482_" class="st0" d="M28.6,334.4c1,0,1.8,0.8,1.8,1.8c0,1-0.8,1.8-1.8,1.8c-1,0-1.8-0.8-1.8-1.8
		C26.8,335.2,27.6,334.4,28.6,334.4z"/>
	<path id="XMLID_10481_" class="st0" d="M16.7,257.9c1,0,1.8,0.8,1.8,1.8c0,1-0.8,1.8-1.8,1.8c-1,0-1.8-0.8-1.8-1.8
		C15,258.7,15.8,257.9,16.7,257.9z"/>
	<path id="XMLID_10480_" class="st0" d="M22.7,209.4c1,0,1.8,0.8,1.8,1.8c0,1-0.8,1.8-1.8,1.8c-1,0-1.8-0.8-1.8-1.8
		C20.9,210.1,21.7,209.4,22.7,209.4z"/>
	<path id="XMLID_10479_" class="st0" d="M31.3,296.8c1,0,1.8,0.8,1.8,1.8c0,1-0.8,1.8-1.8,1.8c-1,0-1.8-0.8-1.8-1.8
		C29.6,297.5,30.4,296.8,31.3,296.8z"/>
	<path id="XMLID_10478_" class="st0" d="M140.9,171.8c1,0,1.8,0.8,1.8,1.8c0,1-0.8,1.8-1.8,1.8c-1,0-1.8-0.8-1.8-1.8
		C139.2,172.6,140,171.8,140.9,171.8z"/>
	<circle id="XMLID_10477_" class="st0" cx="57.2" cy="232.2" r="1.8"/>
	<path id="XMLID_10476_" class="st0" d="M63.2,278.1c1,0,1.8,0.8,1.8,1.8c0,1-0.8,1.8-1.8,1.8c-1,0-1.8-0.8-1.8-1.8
		C61.5,278.9,62.3,278.1,63.2,278.1z"/>
	<circle id="XMLID_10475_" class="st0" cx="41" cy="168.1" r="1.8"/>
	<path id="XMLID_10474_" class="st0" d="M35.4,192.3c1,0,1.8,0.8,1.8,1.8c0,1-0.8,1.8-1.8,1.8s-1.8-0.8-1.8-1.8
		C33.7,193,34.4,192.3,35.4,192.3z"/>
	<path id="XMLID_10473_" class="st0" d="M6.7,234.8c1,0,1.8,0.8,1.8,1.8c0,1-0.8,1.8-1.8,1.8c-1,0-1.8-0.8-1.8-1.8
		C5,235.6,5.8,234.8,6.7,234.8z"/>
	<path id="XMLID_10472_" class="st0" d="M107.2,172.8c1,0,1.8,0.8,1.8,1.8c0,1-0.8,1.8-1.8,1.8c-1,0-1.8-0.8-1.8-1.8
		C105.5,173.6,106.3,172.8,107.2,172.8z"/>
	<path id="XMLID_10471_" class="st0" d="M21.4,383c1,0,1.8,0.8,1.8,1.8c0,1-0.8,1.8-1.8,1.8c-1,0-1.8-0.8-1.8-1.8
		C19.6,383.8,20.4,383,21.4,383z"/>
	<path id="XMLID_10470_" class="st0 st80" d="M94.7,299.8c1,0,1.8,0.8,1.8,1.8c0,1-0.8,1.8-1.8,1.8c-1,0-1.8-0.8-1.8-1.8
		C92.9,300.6,93.7,299.8,94.7,299.8z"/>
	<path id="XMLID_10469_" class="st0" d="M98.7,187.8c1,0,1.8,0.8,1.8,1.8c0,1-0.8,1.8-1.8,1.8c-1,0-1.8-0.8-1.8-1.8
		C97,188.6,97.7,187.8,98.7,187.8z"/>
	<path id="XMLID_9805_" class="st0" d="M21.1,127.3c1,0,1.8,0.8,1.8,1.8c0,1-0.8,1.8-1.8,1.8c-1,0-1.8-0.8-1.8-1.8
		C19.4,128.1,20.2,127.3,21.1,127.3z"/>
	<path id="XMLID_9804_" class="st0" d="M110.5,240.9c1,0,1.8,0.8,1.8,1.8c0,1-0.8,1.8-1.8,1.8c-1,0-1.8-0.8-1.8-1.8
		C108.8,241.7,109.6,240.9,110.5,240.9z"/>
	<path id="XMLID_9803_" class="st0" d="M119.5,203.6c1,0,1.8,0.8,1.8,1.8c0,1-0.8,1.8-1.8,1.8c-1,0-1.8-0.8-1.8-1.8
		C117.7,204.4,118.5,203.6,119.5,203.6z"/>
	<path id="XMLID_9802_" class="st0" d="M67.8,289.9c1,0,1.8,0.8,1.8,1.8c0,1-0.8,1.8-1.8,1.8c-1,0-1.8-0.8-1.8-1.8
		C66,290.7,66.8,289.9,67.8,289.9z"/>
	<path id="XMLID_9801_" class="st0" d="M66.4,137.4c1,0,1.8,0.8,1.8,1.8c0,1-0.8,1.8-1.8,1.8c-1,0-1.8-0.8-1.8-1.8
		C64.6,138.1,65.4,137.4,66.4,137.4z"/>
	<path id="XMLID_9800_" class="st0" d="M105.9,204.4c1,0,1.8,0.8,1.8,1.8c0,1-0.8,1.8-1.8,1.8c-1,0-1.8-0.8-1.8-1.8
		C104.2,205.2,105,204.4,105.9,204.4z"/>
	<circle id="XMLID_9799_" class="st0" cx="55.8" cy="278.9" r="1.8"/>
	<path id="XMLID_9798_" class="st0 st81" d="M16.6,225.4c1,0,1.8,0.8,1.8,1.8c0,1-0.8,1.8-1.8,1.8s-1.8-0.8-1.8-1.8
		C14.8,226.2,15.6,225.4,16.6,225.4z"/>
	<path id="XMLID_9797_" class="st0" d="M82.2,157.5c1,0,1.8,0.8,1.8,1.8c0,1-0.8,1.8-1.8,1.8c-1,0-1.8-0.8-1.8-1.8
		C80.4,158.3,81.2,157.5,82.2,157.5z"/>
	<path id="XMLID_9796_" class="st0" d="M123.5,276.5c1,0,1.8,0.8,1.8,1.8c0,1-0.8,1.8-1.8,1.8c-1,0-1.8-0.8-1.8-1.8
		C121.8,277.3,122.6,276.5,123.5,276.5z"/>
	<path id="XMLID_9795_" class="st0" d="M26.3,136.6c1,0,1.8,0.8,1.8,1.8c0,1-0.8,1.8-1.8,1.8c-1,0-1.8-0.8-1.8-1.8
		C24.6,137.4,25.4,136.6,26.3,136.6z"/>
	<path id="XMLID_9794_" class="st0" d="M35.9,317.4c1,0,1.8,0.8,1.8,1.8c0,1-0.8,1.8-1.8,1.8s-1.8-0.8-1.8-1.8
		C34.1,318.1,34.9,317.4,35.9,317.4z"/>
	<path id="XMLID_9793_" class="st0 st82" d="M64.7,239.8c1,0,1.8,0.8,1.8,1.8s-0.8,1.8-1.8,1.8c-1,0-1.8-0.8-1.8-1.8
		S63.7,239.8,64.7,239.8z"/>
	<path id="XMLID_9792_" class="st0" d="M99.8,247.7c1,0,1.8,0.8,1.8,1.8c0,1-0.8,1.8-1.8,1.8c-1,0-1.8-0.8-1.8-1.8
		C98,248.5,98.8,247.7,99.8,247.7z"/>
	<path id="XMLID_9791_" class="st0" d="M94.1,139c1,0,1.8,0.8,1.8,1.8c0,1-0.8,1.8-1.8,1.8c-1,0-1.8-0.8-1.8-1.8
		C92.4,139.8,93.2,139,94.1,139z"/>
	<path id="XMLID_9790_" class="st0" d="M46.8,309.7c1,0,1.8,0.8,1.8,1.8c0,1-0.8,1.8-1.8,1.8c-1,0-1.8-0.8-1.8-1.8
		C45,310.4,45.8,309.7,46.8,309.7z"/>
	<path id="XMLID_9789_" class="st0" d="M37.1,284.8c1,0,1.8,0.8,1.8,1.8c0,1-0.8,1.8-1.8,1.8c-1,0-1.8-0.8-1.8-1.8
		C35.3,285.6,36.1,284.8,37.1,284.8z"/>
	<circle id="XMLID_9788_" class="st0" cx="14.5" cy="234.5" r="1.8"/>
	<path id="XMLID_9787_" class="st0" d="M37,217.4c1,0,1.8,0.8,1.8,1.8c0,1-0.8,1.8-1.8,1.8c-1,0-1.8-0.8-1.8-1.8
		C35.2,218.2,36,217.4,37,217.4z"/>
	<path id="XMLID_9786_" class="st0" d="M138.3,234.2c1,0,1.8,0.8,1.8,1.8c0,1-0.8,1.8-1.8,1.8c-1,0-1.8-0.8-1.8-1.8
		C136.5,235,137.3,234.2,138.3,234.2z"/>
	<path id="XMLID_9785_" class="st0" d="M81.4,347.4c1,0,1.8,0.8,1.8,1.8c0,1-0.8,1.8-1.8,1.8c-1,0-1.8-0.8-1.8-1.8
		C79.7,348.2,80.5,347.4,81.4,347.4z"/>
	<path id="XMLID_9784_" class="st0" d="M56.1,212.9c1,0,1.8,0.8,1.8,1.8c0,1-0.8,1.8-1.8,1.8c-1,0-1.8-0.8-1.8-1.8
		C54.4,213.7,55.1,212.9,56.1,212.9z"/>
	<path id="XMLID_9783_" class="st0 st83" d="M48.9,337.6c1,0,1.8,0.8,1.8,1.8c0,1-0.8,1.8-1.8,1.8c-1,0-1.8-0.8-1.8-1.8
		C47.2,338.4,48,337.6,48.9,337.6z"/>
	<path id="XMLID_9782_" class="st0" d="M24.3,373c1,0,1.8,0.8,1.8,1.8c0,1-0.8,1.8-1.8,1.8c-1,0-1.8-0.8-1.8-1.8
		C22.6,373.8,23.4,373,24.3,373z"/>
	<path id="XMLID_9781_" class="st0" d="M77.8,334.9c1,0,1.8,0.8,1.8,1.8c0,1-0.8,1.8-1.8,1.8c-1,0-1.8-0.8-1.8-1.8
		C76.1,335.7,76.8,334.9,77.8,334.9z"/>
	<path id="XMLID_9780_" class="st0" d="M85.4,301.7c1,0,1.8,0.8,1.8,1.8c0,1-0.8,1.8-1.8,1.8s-1.8-0.8-1.8-1.8
		C83.6,302.5,84.4,301.7,85.4,301.7z"/>
	<path id="XMLID_9779_" class="st0 st84" d="M91.9,201.3c1,0,1.8,0.8,1.8,1.8c0,1-0.8,1.8-1.8,1.8c-1,0-1.8-0.8-1.8-1.8
		C90.2,202,90.9,201.3,91.9,201.3z"/>
	<path id="XMLID_9778_" class="st0" d="M42,85.2c1,0,1.8,0.8,1.8,1.8c0,1-0.8,1.8-1.8,1.8c-1,0-1.8-0.8-1.8-1.8
		C40.3,86,41.1,85.2,42,85.2z"/>
	<path id="XMLID_9777_" class="st0" d="M147.5,198.3c1,0,1.8,0.8,1.8,1.8c0,1-0.8,1.8-1.8,1.8c-1,0-1.8-0.8-1.8-1.8
		C145.7,199.1,146.5,198.3,147.5,198.3z"/>
	<path id="XMLID_9776_" class="st0" d="M37.5,232.4c1,0,1.8,0.8,1.8,1.8c0,1-0.8,1.8-1.8,1.8c-1,0-1.8-0.8-1.8-1.8
		C35.8,233.2,36.6,232.4,37.5,232.4z"/>
	<path id="XMLID_9775_" class="st0" d="M4.4,123c1,0,1.8,0.8,1.8,1.8c0,1-0.8,1.8-1.8,1.8c-1,0-1.8-0.8-1.8-1.8
		C2.6,123.8,3.4,123,4.4,123z"/>
	<path id="XMLID_9774_" class="st0" d="M113.4,174c1,0,1.8,0.8,1.8,1.8c0,1-0.8,1.8-1.8,1.8c-1,0-1.8-0.8-1.8-1.8
		C111.7,174.8,112.5,174,113.4,174z"/>
	<path id="XMLID_9773_" class="st0 st84" d="M46.6,362.9c1,0,1.8,0.8,1.8,1.8c0,1-0.8,1.8-1.8,1.8c-1,0-1.8-0.8-1.8-1.8
		C44.8,363.7,45.6,362.9,46.6,362.9z"/>
	<path id="XMLID_9772_" class="st0" d="M70.6,229.5c1,0,1.8,0.8,1.8,1.8c0,1-0.8,1.8-1.8,1.8c-1,0-1.8-0.8-1.8-1.8
		C68.9,230.3,69.6,229.5,70.6,229.5z"/>
	<path id="XMLID_9771_" class="st0" d="M109.3,292.4c1,0,1.8,0.8,1.8,1.8c0,1-0.8,1.8-1.8,1.8c-1,0-1.8-0.8-1.8-1.8
		C107.5,293.1,108.3,292.4,109.3,292.4z"/>
	<path id="XMLID_9770_" class="st0" d="M96.5,327.1c1,0,1.8,0.8,1.8,1.8s-0.8,1.8-1.8,1.8c-1,0-1.8-0.8-1.8-1.8
		S95.5,327.1,96.5,327.1z"/>
	<path id="XMLID_9769_" class="st0" d="M62.2,257.4c1,0,1.8,0.8,1.8,1.8c0,1-0.8,1.8-1.8,1.8c-1,0-1.8-0.8-1.8-1.8
		C60.4,258.2,61.2,257.4,62.2,257.4z"/>
	<path id="XMLID_9768_" class="st0" d="M118.7,299.6c1,0,1.8,0.8,1.8,1.8c0,1-0.8,1.8-1.8,1.8c-1,0-1.8-0.8-1.8-1.8
		C116.9,300.4,117.7,299.6,118.7,299.6z"/>
	<path id="XMLID_9767_" class="st0" d="M50.8,352.7c1,0,1.8,0.8,1.8,1.8c0,1-0.8,1.8-1.8,1.8s-1.8-0.8-1.8-1.8
		C49,353.5,49.8,352.7,50.8,352.7z"/>
	<path id="XMLID_9766_" class="st0 st86" d="M96.8,131.6c1,0,1.8,0.8,1.8,1.8c0,1-0.8,1.8-1.8,1.8c-1,0-1.8-0.8-1.8-1.8
		C95,132.4,95.8,131.6,96.8,131.6z"/>
	<path id="XMLID_9765_" class="st0" d="M14.2,190c1,0,1.8,0.8,1.8,1.8c0,1-0.8,1.8-1.8,1.8c-1,0-1.8-0.8-1.8-1.8
		C12.5,190.8,13.2,190,14.2,190z"/>
	<path id="XMLID_9764_" class="st0" d="M52.1,313c1,0,1.8,0.8,1.8,1.8c0,1-0.8,1.8-1.8,1.8c-1,0-1.8-0.8-1.8-1.8
		C50.4,313.8,51.2,313,52.1,313z"/>
	<path id="XMLID_9763_" class="st0" d="M73.6,222.5c1,0,1.8,0.8,1.8,1.8c0,1-0.8,1.8-1.8,1.8c-1,0-1.8-0.8-1.8-1.8
		C71.9,223.3,72.6,222.5,73.6,222.5z"/>
	<path id="XMLID_9762_" class="st0" d="M140.9,138.6c1,0,1.8,0.8,1.8,1.8s-0.8,1.8-1.8,1.8c-1,0-1.8-0.8-1.8-1.8
		S140,138.6,140.9,138.6z"/>
	<path id="XMLID_9761_" class="st0" d="M119.1,71.1c1,0,1.8,0.8,1.8,1.8c0,1-0.8,1.8-1.8,1.8c-1,0-1.8-0.8-1.8-1.8
		C117.3,71.9,118.1,71.1,119.1,71.1z"/>
	<path id="XMLID_9760_" class="st0" d="M114.3,147.6c1,0,1.8,0.8,1.8,1.8c0,1-0.8,1.8-1.8,1.8c-1,0-1.8-0.8-1.8-1.8
		C112.6,148.4,113.3,147.6,114.3,147.6z"/>
	<path id="XMLID_9759_" class="st0" d="M120.4,282.4c1,0,1.8,0.8,1.8,1.8c0,1-0.8,1.8-1.8,1.8c-1,0-1.8-0.8-1.8-1.8
		C118.6,283.1,119.4,282.4,120.4,282.4z"/>
	<path id="XMLID_9758_" class="st0" d="M16.6,393.5c1,0,1.8,0.8,1.8,1.8c0,1-0.8,1.8-1.8,1.8c-1,0-1.8-0.8-1.8-1.8
		C14.9,394.3,15.7,393.5,16.6,393.5z"/>
	<path id="XMLID_9757_" class="st0" d="M22.7,191.8c1,0,1.8,0.8,1.8,1.8c0,1-0.8,1.8-1.8,1.8c-1,0-1.8-0.8-1.8-1.8
		C21,192.6,21.7,191.8,22.7,191.8z"/>
	<circle id="XMLID_9756_" class="st0 st85" cx="58.7" cy="181.5" r="1.8"/>
	<path id="XMLID_9755_" class="st0" d="M91.5,239c1,0,1.8,0.8,1.8,1.8c0,1-0.8,1.8-1.8,1.8c-1,0-1.8-0.8-1.8-1.8
		C89.7,239.8,90.5,239,91.5,239z"/>
	<path id="XMLID_9754_" class="st0" d="M72.8,201.1c1,0,1.8,0.8,1.8,1.8c0,1-0.8,1.8-1.8,1.8c-1,0-1.8-0.8-1.8-1.8
		C71,201.9,71.8,201.1,72.8,201.1z"/>
	<path id="XMLID_9753_" class="st0" d="M30.5,87c1,0,1.8,0.8,1.8,1.8c0,1-0.8,1.8-1.8,1.8c-1,0-1.8-0.8-1.8-1.8
		C28.7,87.8,29.5,87,30.5,87z"/>
	<path id="XMLID_9752_" class="st0" d="M99.1,173.6c1,0,1.8,0.8,1.8,1.8c0,1-0.8,1.8-1.8,1.8c-1,0-1.8-0.8-1.8-1.8
		C97.4,174.4,98.1,173.6,99.1,173.6z"/>
	<path id="XMLID_9751_" class="st0" d="M70.4,131.2c1,0,1.8,0.8,1.8,1.8c0,1-0.8,1.8-1.8,1.8c-1,0-1.8-0.8-1.8-1.8
		C68.6,132,69.4,131.2,70.4,131.2z"/>
	<path id="XMLID_9750_" class="st0" d="M138.9,213.2c1,0,1.8,0.8,1.8,1.8c0,1-0.8,1.8-1.8,1.8c-1,0-1.8-0.8-1.8-1.8
		C137.2,213.9,137.9,213.2,138.9,213.2z"/>
	<path id="XMLID_9749_" class="st0" d="M86.8,235.5c1,0,1.8,0.8,1.8,1.8c0,1-0.8,1.8-1.8,1.8c-1,0-1.8-0.8-1.8-1.8
		C85,236.3,85.8,235.5,86.8,235.5z"/>
	<path id="XMLID_9748_" class="st0" d="M92.2,305.1c1,0,1.8,0.8,1.8,1.8c0,1-0.8,1.8-1.8,1.8c-1,0-1.8-0.8-1.8-1.8
		C90.4,305.9,91.2,305.1,92.2,305.1z"/>
	<circle id="XMLID_9747_" class="st0" cx="43.4" cy="354.8" r="1.8"/>
	<path id="XMLID_9746_" class="st0" d="M49.3,215.8c1,0,1.8,0.8,1.8,1.8c0,1-0.8,1.8-1.8,1.8c-1,0-1.8-0.8-1.8-1.8
		C47.6,216.6,48.4,215.8,49.3,215.8z"/>
	<path id="XMLID_9745_" class="st0" d="M68.1,246.9c1,0,1.8,0.8,1.8,1.8c0,1-0.8,1.8-1.8,1.8c-1,0-1.8-0.8-1.8-1.8
		C66.3,247.7,67.1,246.9,68.1,246.9z"/>
	<path id="XMLID_9744_" class="st0 st90" d="M84.9,212.5c1,0,1.8,0.8,1.8,1.8c0,1-0.8,1.8-1.8,1.8c-1,0-1.8-0.8-1.8-1.8
		C83.2,213.3,84,212.5,84.9,212.5z"/>
	<path id="XMLID_9743_" class="st0" d="M89.7,294.9c1,0,1.8,0.8,1.8,1.8c0,1-0.8,1.8-1.8,1.8c-1,0-1.8-0.8-1.8-1.8
		C88,295.6,88.7,294.9,89.7,294.9z"/>
	<path id="XMLID_9742_" class="st0" d="M103.5,305.7c1,0,1.8,0.8,1.8,1.8c0,1-0.8,1.8-1.8,1.8c-1,0-1.8-0.8-1.8-1.8
		C101.8,306.5,102.6,305.7,103.5,305.7z"/>
	<path id="XMLID_9741_" class="st0" d="M31.6,220.6c1,0,1.8,0.8,1.8,1.8c0,1-0.8,1.8-1.8,1.8c-1,0-1.8-0.8-1.8-1.8
		C29.8,221.4,30.6,220.6,31.6,220.6z"/>
	<circle id="XMLID_9740_" class="st0" cx="46.2" cy="348" r="1.8"/>
	<path id="XMLID_9739_" class="st0" d="M98.5,218.2c1,0,1.8,0.8,1.8,1.8c0,1-0.8,1.8-1.8,1.8c-1,0-1.8-0.8-1.8-1.8
		C96.8,219,97.6,218.2,98.5,218.2z"/>
	<path id="XMLID_9738_" class="st0" d="M78.5,343.3c1,0,1.8,0.8,1.8,1.8c0,1-0.8,1.8-1.8,1.8c-1,0-1.8-0.8-1.8-1.8
		C76.7,344.1,77.5,343.3,78.5,343.3z"/>
	<path id="XMLID_9737_" class="st0" d="M128.9,192.5c1,0,1.8,0.8,1.8,1.8c0,1-0.8,1.8-1.8,1.8c-1,0-1.8-0.8-1.8-1.8
		C127.1,193.3,127.9,192.5,128.9,192.5z"/>
	<circle id="XMLID_9736_" class="st0" cx="30.6" cy="290.7" r="1.8"/>
	<path id="XMLID_9735_" class="st0 st91" d="M1.4,360.1c1,0,1.8,0.8,1.8,1.8c0,1-0.8,1.8-1.8,1.8c-1,0-1.8-0.8-1.8-1.8
		C-0.3,360.9,0.4,360.1,1.4,360.1z"/>
	<circle id="XMLID_9734_" class="st0" cx="65.7" cy="323.2" r="1.8"/>
	<path id="XMLID_9733_" class="st0" d="M145.6,231.9c1,0,1.8,0.8,1.8,1.8c0,1-0.8,1.8-1.8,1.8s-1.8-0.8-1.8-1.8
		C143.8,232.7,144.6,231.9,145.6,231.9z"/>
	<path id="XMLID_9732_" class="st0" d="M39.9,147.1c1,0,1.8,0.8,1.8,1.8c0,1-0.8,1.8-1.8,1.8c-1,0-1.8-0.8-1.8-1.8
		C38.2,147.8,39,147.1,39.9,147.1z"/>
	<circle id="XMLID_9731_" class="st0" cx="83.2" cy="251.1" r="1.8"/>
	<path id="XMLID_9730_" class="st0" d="M42.8,203.3c1,0,1.8,0.8,1.8,1.8s-0.8,1.8-1.8,1.8c-1,0-1.8-0.8-1.8-1.8
		S41.8,203.3,42.8,203.3z"/>
	<path id="XMLID_9729_" class="st0" d="M116.8,139.9c1,0,1.8,0.8,1.8,1.8c0,1-0.8,1.8-1.8,1.8c-1,0-1.8-0.8-1.8-1.8
		C115.1,140.7,115.9,139.9,116.8,139.9z"/>
	<path id="XMLID_9728_" class="st0 st87" d="M113.3,256.2c1,0,1.8,0.8,1.8,1.8c0,1-0.8,1.8-1.8,1.8c-1,0-1.8-0.8-1.8-1.8
		C111.6,256.9,112.4,256.2,113.3,256.2z"/>
	<path id="XMLID_9727_" class="st0" d="M7.8,228.6c1,0,1.8,0.8,1.8,1.8c0,1-0.8,1.8-1.8,1.8c-1,0-1.8-0.8-1.8-1.8
		C6,229.4,6.8,228.6,7.8,228.6z"/>
	<path id="XMLID_9726_" class="st0" d="M44.2,290c1,0,1.8,0.8,1.8,1.8c0,1-0.8,1.8-1.8,1.8s-1.8-0.8-1.8-1.8
		C42.5,290.8,43.3,290,44.2,290z"/>
	<path id="XMLID_9725_" class="st0" d="M107.3,144.1c1,0,1.8,0.8,1.8,1.8c0,1-0.8,1.8-1.8,1.8c-1,0-1.8-0.8-1.8-1.8
		C105.6,144.8,106.4,144.1,107.3,144.1z"/>
	<path id="XMLID_9724_" class="st0" d="M19.6,359.2c1,0,1.8,0.8,1.8,1.8c0,1-0.8,1.8-1.8,1.8c-1,0-1.8-0.8-1.8-1.8
		C17.8,359.9,18.6,359.2,19.6,359.2z"/>
	<path id="XMLID_9723_" class="st0" d="M1.3,256c1,0,1.8,0.8,1.8,1.8c0,1-0.8,1.8-1.8,1.8c-1,0-1.8-0.8-1.8-1.8
		C-0.5,256.8,0.3,256,1.3,256z"/>
	<path id="XMLID_9722_" class="st0 st88" d="M77.1,173c1,0,1.8,0.8,1.8,1.8c0,1-0.8,1.8-1.8,1.8c-1,0-1.8-0.8-1.8-1.8
		C75.3,173.8,76.1,173,77.1,173z"/>
	<path id="XMLID_9721_" class="st0" d="M102.7,316.1c1,0,1.8,0.8,1.8,1.8c0,1-0.8,1.8-1.8,1.8c-1,0-1.8-0.8-1.8-1.8
		C100.9,316.9,101.7,316.1,102.7,316.1z"/>
	<path id="XMLID_9720_" class="st0" d="M61.1,311c1,0,1.8,0.8,1.8,1.8s-0.8,1.8-1.8,1.8c-1,0-1.8-0.8-1.8-1.8S60.1,311,61.1,311z"/>
	<path id="XMLID_9719_" class="st0" d="M90.6,145.8c1,0,1.8,0.8,1.8,1.8s-0.8,1.8-1.8,1.8c-1,0-1.8-0.8-1.8-1.8
		S89.6,145.8,90.6,145.8z"/>
	<path id="XMLID_9718_" class="st0" d="M4.3,191.8c1,0,1.8,0.8,1.8,1.8c0,1-0.8,1.8-1.8,1.8c-1,0-1.8-0.8-1.8-1.8
		C2.5,192.6,3.3,191.8,4.3,191.8z"/>
	<circle id="XMLID_9717_" class="st0" cx="48.9" cy="201.5" r="1.8"/>
	<path id="XMLID_9716_" class="st0" d="M57.7,158.8c1,0,1.8,0.8,1.8,1.8c0,1-0.8,1.8-1.8,1.8c-1,0-1.8-0.8-1.8-1.8
		C56,159.6,56.8,158.8,57.7,158.8z"/>
	<path id="XMLID_9715_" class="st0 st89" d="M108.6,265.5c1,0,1.8,0.8,1.8,1.8c0,1-0.8,1.8-1.8,1.8c-1,0-1.8-0.8-1.8-1.8
		C106.8,266.3,107.6,265.5,108.6,265.5z"/>
	<path id="XMLID_9714_" class="st0" d="M3.9,330.2c1,0,1.8,0.8,1.8,1.8c0,1-0.8,1.8-1.8,1.8c-1,0-1.8-0.8-1.8-1.8
		C2.2,331,2.9,330.2,3.9,330.2z"/>
	<path id="XMLID_9713_" class="st0" d="M73.2,278.1c1,0,1.8,0.8,1.8,1.8c0,1-0.8,1.8-1.8,1.8c-1,0-1.8-0.8-1.8-1.8
		C71.5,278.9,72.2,278.1,73.2,278.1z"/>
	<path id="XMLID_9712_" class="st0" d="M184.5,322c1,0,1.8,0.8,1.8,1.8c0,1-0.8,1.8-1.8,1.8c-1,0-1.8-0.8-1.8-1.8
		C182.7,322.8,183.5,322,184.5,322z"/>
	<path id="XMLID_9711_" class="st0" d="M63.4,173.2c1,0,1.8,0.8,1.8,1.8c0,1-0.8,1.8-1.8,1.8c-1,0-1.8-0.8-1.8-1.8
		C61.6,174,62.4,173.2,63.4,173.2z"/>
	<circle id="XMLID_9710_" class="st0 st91" cx="100" cy="298.5" r="1.8"/>
	<path id="XMLID_9709_" class="st0" d="M62.3,233.7c1,0,1.8,0.8,1.8,1.8c0,1-0.8,1.8-1.8,1.8c-1,0-1.8-0.8-1.8-1.8
		C60.6,234.5,61.4,233.7,62.3,233.7z"/>
	<path id="XMLID_9708_" class="st0" d="M65.2,264.5c1,0,1.8,0.8,1.8,1.8c0,1-0.8,1.8-1.8,1.8c-1,0-1.8-0.8-1.8-1.8
		C63.4,265.3,64.2,264.5,65.2,264.5z"/>
	<path id="XMLID_9707_" class="st0" d="M24.5,257.3c1,0,1.8,0.8,1.8,1.8c0,1-0.8,1.8-1.8,1.8c-1,0-1.8-0.8-1.8-1.8
		C22.7,258.1,23.5,257.3,24.5,257.3z"/>
	<path id="XMLID_9706_" class="st0" d="M132,275.3c1,0,1.8,0.8,1.8,1.8c0,1-0.8,1.8-1.8,1.8s-1.8-0.8-1.8-1.8
		C130.3,276.1,131.1,275.3,132,275.3z"/>
	<path id="XMLID_9705_" class="st0" d="M88.3,252.5c1,0,1.8,0.8,1.8,1.8c0,1-0.8,1.8-1.8,1.8c-1,0-1.8-0.8-1.8-1.8
		C86.5,253.3,87.3,252.5,88.3,252.5z"/>
	<path id="XMLID_9704_" class="st0" d="M112.9,134.1c1,0,1.8,0.8,1.8,1.8c0,1-0.8,1.8-1.8,1.8c-1,0-1.8-0.8-1.8-1.8
		C111.1,134.9,111.9,134.1,112.9,134.1z"/>
	<path id="XMLID_9703_" class="st0" d="M90.5,286.1c1,0,1.8,0.8,1.8,1.8c0,1-0.8,1.8-1.8,1.8c-1,0-1.8-0.8-1.8-1.8
		C88.7,286.8,89.5,286.1,90.5,286.1z"/>
	<path id="XMLID_9702_" class="st0" d="M27.5,163.7c1,0,1.8,0.8,1.8,1.8s-0.8,1.8-1.8,1.8c-1,0-1.8-0.8-1.8-1.8
		S26.5,163.7,27.5,163.7z"/>
	<path id="XMLID_9701_" class="st0" d="M33.9,268.8c1,0,1.8,0.8,1.8,1.8c0,1-0.8,1.8-1.8,1.8c-1,0-1.8-0.8-1.8-1.8
		C32.1,269.6,32.9,268.8,33.9,268.8z"/>
	<path id="XMLID_9700_" class="st0" d="M24,344.4c1,0,1.8,0.8,1.8,1.8c0,1-0.8,1.8-1.8,1.8c-1,0-1.8-0.8-1.8-1.8
		C22.3,345.2,23.1,344.4,24,344.4z"/>
	<path id="XMLID_9699_" class="st0" d="M51.1,233.8c1,0,1.8,0.8,1.8,1.8c0,1-0.8,1.8-1.8,1.8c-1,0-1.8-0.8-1.8-1.8
		C49.4,234.5,50.2,233.8,51.1,233.8z"/>
	<path id="XMLID_9698_" class="st0" d="M49.6,145.1c1,0,1.8,0.8,1.8,1.8c0,1-0.8,1.8-1.8,1.8c-1,0-1.8-0.8-1.8-1.8
		C47.8,145.9,48.6,145.1,49.6,145.1z"/>
	<path id="XMLID_9697_" class="st0" d="M87.7,244.4c1,0,1.8,0.8,1.8,1.8c0,1-0.8,1.8-1.8,1.8c-1,0-1.8-0.8-1.8-1.8
		C85.9,245.2,86.7,244.4,87.7,244.4z"/>
	<path id="XMLID_9696_" class="st0" d="M78.5,210.1c1,0,1.8,0.8,1.8,1.8c0,1-0.8,1.8-1.8,1.8c-1,0-1.8-0.8-1.8-1.8
		C76.8,210.9,77.6,210.1,78.5,210.1z"/>
	<circle id="XMLID_9695_" class="st0" cx="79.5" cy="328.1" r="1.8"/>
	<path id="XMLID_9694_" class="st0 st93" d="M10.8,147.1c1,0,1.8,0.8,1.8,1.8c0,1-0.8,1.8-1.8,1.8c-1,0-1.8-0.8-1.8-1.8
		C9.1,147.9,9.9,147.1,10.8,147.1z"/>
	<circle id="XMLID_9693_" class="st0" cx="107.7" cy="274.6" r="1.8"/>
	<path id="XMLID_9692_" class="st0" d="M84.7,141c1,0,1.8,0.8,1.8,1.8c0,1-0.8,1.8-1.8,1.8c-1,0-1.8-0.8-1.8-1.8
		C83,141.7,83.8,141,84.7,141z"/>
	<path id="XMLID_9691_" class="st0" d="M20,136.6c1,0,1.8,0.8,1.8,1.8c0,1-0.8,1.8-1.8,1.8c-1,0-1.8-0.8-1.8-1.8
		C18.3,137.3,19,136.6,20,136.6z"/>
	<path id="XMLID_9690_" class="st0" d="M135.5,208.6c1,0,1.8,0.8,1.8,1.8c0,1-0.8,1.8-1.8,1.8c-1,0-1.8-0.8-1.8-1.8
		C133.8,209.4,134.6,208.6,135.5,208.6z"/>
	<path id="XMLID_9689_" class="st0" d="M16.3,141.3c1,0,1.8,0.8,1.8,1.8s-0.8,1.8-1.8,1.8s-1.8-0.8-1.8-1.8S15.3,141.3,16.3,141.3z"
		/>
	<path id="XMLID_9688_" class="st0" d="M53.7,240.9c1,0,1.8,0.8,1.8,1.8c0,1-0.8,1.8-1.8,1.8c-1,0-1.8-0.8-1.8-1.8
		C51.9,241.7,52.7,240.9,53.7,240.9z"/>
	<circle id="XMLID_9687_" class="st0" cx="28.9" cy="181.5" r="1.8"/>
	<path id="XMLID_9686_" class="st0" d="M76.4,154.9c1,0,1.8,0.8,1.8,1.8c0,1-0.8,1.8-1.8,1.8c-1,0-1.8-0.8-1.8-1.8
		C74.6,155.7,75.4,154.9,76.4,154.9z"/>
	<path id="XMLID_9685_" class="st0" d="M99.1,142.6c1,0,1.8,0.8,1.8,1.8s-0.8,1.8-1.8,1.8c-1,0-1.8-0.8-1.8-1.8
		S98.2,142.6,99.1,142.6z"/>
	<path id="XMLID_9684_" class="st0" d="M31.9,253.3c1,0,1.8,0.8,1.8,1.8s-0.8,1.8-1.8,1.8c-1,0-1.8-0.8-1.8-1.8
		S30.9,253.3,31.9,253.3z"/>
	<path id="XMLID_9683_" class="st0" d="M56.2,337.2c1,0,1.8,0.8,1.8,1.8c0,1-0.8,1.8-1.8,1.8c-1,0-1.8-0.8-1.8-1.8
		C54.4,338,55.2,337.2,56.2,337.2z"/>
	<path id="XMLID_9682_" class="st0" d="M111.4,200.4c1,0,1.8,0.8,1.8,1.8c0,1-0.8,1.8-1.8,1.8c-1,0-1.8-0.8-1.8-1.8
		C109.7,201.2,110.4,200.4,111.4,200.4z"/>
	<path id="XMLID_9681_" class="st0" d="M61.8,346.3c1,0,1.8,0.8,1.8,1.8c0,1-0.8,1.8-1.8,1.8S60,349,60,348
		C60,347,60.8,346.3,61.8,346.3z"/>
	<path id="XMLID_9680_" class="st0" d="M126.3,254.3c1,0,1.8,0.8,1.8,1.8c0,1-0.8,1.8-1.8,1.8c-1,0-1.8-0.8-1.8-1.8
		C124.6,255.1,125.4,254.3,126.3,254.3z"/>
	<path id="XMLID_9679_" class="st0" d="M38.5,158.2c1,0,1.8,0.8,1.8,1.8c0,1-0.8,1.8-1.8,1.8c-1,0-1.8-0.8-1.8-1.8
		C36.8,159,37.6,158.2,38.5,158.2z"/>
	<path id="XMLID_9678_" class="st0" d="M76.3,293.3c1,0,1.8,0.8,1.8,1.8c0,1-0.8,1.8-1.8,1.8c-1,0-1.8-0.8-1.8-1.8
		C74.6,294.1,75.4,293.3,76.3,293.3z"/>
	<path id="XMLID_9677_" class="st0" d="M107.1,137.7c1,0,1.8,0.8,1.8,1.8c0,1-0.8,1.8-1.8,1.8s-1.8-0.8-1.8-1.8
		C105.4,138.5,106.1,137.7,107.1,137.7z"/>
	<path id="XMLID_9676_" class="st0" d="M8.4,280.3c1,0,1.8,0.8,1.8,1.8c0,1-0.8,1.8-1.8,1.8c-1,0-1.8-0.8-1.8-1.8
		C6.6,281,7.4,280.3,8.4,280.3z"/>
	<path id="XMLID_9675_" class="st0" d="M74,140.8c1,0,1.8,0.8,1.8,1.8c0,1-0.8,1.8-1.8,1.8c-1,0-1.8-0.8-1.8-1.8
		C72.3,141.6,73.1,140.8,74,140.8z"/>
	<path id="XMLID_9674_" class="st0" d="M6.8,348.1c1,0,1.8,0.8,1.8,1.8c0,1-0.8,1.8-1.8,1.8c-1,0-1.8-0.8-1.8-1.8
		C5,348.9,5.8,348.1,6.8,348.1z"/>
	<path id="XMLID_9673_" class="st0" d="M81.6,180.8c1,0,1.8,0.8,1.8,1.8c0,1-0.8,1.8-1.8,1.8c-1,0-1.8-0.8-1.8-1.8
		C79.9,181.6,80.7,180.8,81.6,180.8z"/>
	<path id="XMLID_9672_" class="st0" d="M99.6,196.8c1,0,1.8,0.8,1.8,1.8c0,1-0.8,1.8-1.8,1.8c-1,0-1.8-0.8-1.8-1.8
		C97.8,197.6,98.6,196.8,99.6,196.8z"/>
	<circle id="XMLID_9671_" class="st0" cx="65.7" cy="187.3" r="1.8"/>
	<path id="XMLID_9670_" class="st0" d="M120.1,225.6c1,0,1.8,0.8,1.8,1.8c0,1-0.8,1.8-1.8,1.8c-1,0-1.8-0.8-1.8-1.8
		C118.4,226.4,119.2,225.6,120.1,225.6z"/>
	<path id="XMLID_9669_" class="st0" d="M81.2,284.8c1,0,1.8,0.8,1.8,1.8c0,1-0.8,1.8-1.8,1.8c-1,0-1.8-0.8-1.8-1.8
		C79.5,285.6,80.2,284.8,81.2,284.8z"/>
	<path id="XMLID_9668_" class="st0" d="M74.3,324.8c1,0,1.8,0.8,1.8,1.8c0,1-0.8,1.8-1.8,1.8c-1,0-1.8-0.8-1.8-1.8
		C72.5,325.6,73.3,324.8,74.3,324.8z"/>
	<path id="XMLID_9667_" class="st0" d="M84.9,364.2c1,0,1.8,0.8,1.8,1.8c0,1-0.8,1.8-1.8,1.8c-1,0-1.8-0.8-1.8-1.8
		C83.2,365,83.9,364.2,84.9,364.2z"/>
	<path id="XMLID_9666_" class="st0" d="M35.4,130.9c1,0,1.8,0.8,1.8,1.8c0,1-0.8,1.8-1.8,1.8c-1,0-1.8-0.8-1.8-1.8
		C33.6,131.7,34.4,130.9,35.4,130.9z"/>
	<circle id="XMLID_9665_" class="st0" cx="99.3" cy="261.7" r="1.8"/>
	<path id="XMLID_9664_" class="st0" d="M149.6,316.8c1,0,1.8,0.8,1.8,1.8c0,1-0.8,1.8-1.8,1.8s-1.8-0.8-1.8-1.8
		C147.8,317.5,148.6,316.8,149.6,316.8z"/>
	<path id="XMLID_9663_" class="st0" d="M134.9,288.6c1,0,1.8,0.8,1.8,1.8c0,1-0.8,1.8-1.8,1.8c-1,0-1.8-0.8-1.8-1.8
		C133.2,289.4,133.9,288.6,134.9,288.6z"/>
	<path id="XMLID_9662_" class="st0" d="M64.7,164.5c1,0,1.8,0.8,1.8,1.8s-0.8,1.8-1.8,1.8c-1,0-1.8-0.8-1.8-1.8
		S63.7,164.5,64.7,164.5z"/>
	<path id="XMLID_9661_" class="st0" d="M40.8,195.8c1,0,1.8,0.8,1.8,1.8c0,1-0.8,1.8-1.8,1.8c-1,0-1.8-0.8-1.8-1.8
		C39.1,196.6,39.8,195.8,40.8,195.8z"/>
	<path id="XMLID_9660_" class="st0" d="M109,314.9c1,0,1.8,0.8,1.8,1.8c0,1-0.8,1.8-1.8,1.8c-1,0-1.8-0.8-1.8-1.8
		C107.2,315.7,108,314.9,109,314.9z"/>
	<path id="XMLID_9659_" class="st0" d="M73.9,352.4c1,0,1.8,0.8,1.8,1.8c0,1-0.8,1.8-1.8,1.8c-1,0-1.8-0.8-1.8-1.8
		C72.1,353.2,72.9,352.4,73.9,352.4z"/>
	<path id="XMLID_9658_" class="st0" d="M68.8,179.1c1,0,1.8,0.8,1.8,1.8c0,1-0.8,1.8-1.8,1.8c-1,0-1.8-0.8-1.8-1.8
		C67,179.9,67.8,179.1,68.8,179.1z"/>
	<path id="XMLID_9657_" class="st0" d="M10.4,221.2c1,0,1.8,0.8,1.8,1.8c0,1-0.8,1.8-1.8,1.8c-1,0-1.8-0.8-1.8-1.8
		C8.6,222,9.4,221.2,10.4,221.2z"/>
	<path id="XMLID_9656_" class="st0" d="M70.6,169c1,0,1.8,0.8,1.8,1.8c0,1-0.8,1.8-1.8,1.8c-1,0-1.8-0.8-1.8-1.8
		C68.9,169.8,69.6,169,70.6,169z"/>
	<path id="XMLID_9655_" class="st0" d="M24.6,394.5c1,0,1.8,0.8,1.8,1.8c0,1-0.8,1.8-1.8,1.8c-1,0-1.8-0.8-1.8-1.8
		C22.8,395.2,23.6,394.5,24.6,394.5z"/>
	<path id="XMLID_9654_" class="st0" d="M24,218.1c1,0,1.8,0.8,1.8,1.8c0,1-0.8,1.8-1.8,1.8c-1,0-1.8-0.8-1.8-1.8
		C22.3,218.9,23.1,218.1,24,218.1z"/>
	<path id="XMLID_9653_" class="st0" d="M32.6,365.2c1,0,1.8,0.8,1.8,1.8c0,1-0.8,1.8-1.8,1.8c-1,0-1.8-0.8-1.8-1.8
		C30.9,366,31.6,365.2,32.6,365.2z"/>
	<path id="XMLID_9652_" class="st0" d="M9.4,306c1,0,1.8,0.8,1.8,1.8c0,1-0.8,1.8-1.8,1.8c-1,0-1.8-0.8-1.8-1.8
		C7.6,306.8,8.4,306,9.4,306z"/>
	<path id="XMLID_9651_" class="st0" d="M83.3,293.1c1,0,1.8,0.8,1.8,1.8c0,1-0.8,1.8-1.8,1.8c-1,0-1.8-0.8-1.8-1.8
		C81.6,293.9,82.3,293.1,83.3,293.1z"/>
	<circle id="XMLID_9650_" class="st0" cx="78.9" cy="220.4" r="1.8"/>
	<path id="XMLID_9649_" class="st0" d="M92.8,186.8c1,0,1.8,0.8,1.8,1.8c0,1-0.8,1.8-1.8,1.8c-1,0-1.8-0.8-1.8-1.8
		C91,187.6,91.8,186.8,92.8,186.8z"/>
	<path id="XMLID_9648_" class="st0" d="M46.5,261.8c1,0,1.8,0.8,1.8,1.8c0,1-0.8,1.8-1.8,1.8c-1,0-1.8-0.8-1.8-1.8
		C44.8,262.6,45.6,261.8,46.5,261.8z"/>
	<path id="XMLID_9647_" class="st0" d="M10.4,204c1,0,1.8,0.8,1.8,1.8c0,1-0.8,1.8-1.8,1.8c-1,0-1.8-0.8-1.8-1.8
		C8.6,204.7,9.4,204,10.4,204z"/>
	<circle id="XMLID_9646_" class="st0" cx="64.6" cy="363.4" r="1.8"/>
	<path id="XMLID_9645_" class="st0" d="M71.4,211.6c1,0,1.8,0.8,1.8,1.8c0,1-0.8,1.8-1.8,1.8c-1,0-1.8-0.8-1.8-1.8
		C69.7,212.4,70.5,211.6,71.4,211.6z"/>
	<path id="XMLID_9644_" class="st0" d="M31.3,115c1,0,1.8,0.8,1.8,1.8c0,1-0.8,1.8-1.8,1.8c-1,0-1.8-0.8-1.8-1.8
		C29.6,115.8,30.4,115,31.3,115z"/>
	<path id="XMLID_9643_" class="st0" d="M11.6,343.5c1,0,1.8,0.8,1.8,1.8c0,1-0.8,1.8-1.8,1.8s-1.8-0.8-1.8-1.8
		C9.8,344.3,10.6,343.5,11.6,343.5z"/>
	<path id="XMLID_9642_" class="st0" d="M9.8,137.9c1,0,1.8,0.8,1.8,1.8c0,1-0.8,1.8-1.8,1.8S8,140.6,8,139.7
		C8,138.7,8.8,137.9,9.8,137.9z"/>
	<path id="XMLID_9641_" class="st0" d="M17.6,284.7c1,0,1.8,0.8,1.8,1.8c0,1-0.8,1.8-1.8,1.8c-1,0-1.8-0.8-1.8-1.8
		C15.8,285.5,16.6,284.7,17.6,284.7z"/>
	<path id="XMLID_9640_" class="st0" d="M83.4,321.4c1,0,1.8,0.8,1.8,1.8c0,1-0.8,1.8-1.8,1.8c-1,0-1.8-0.8-1.8-1.8
		C81.6,322.2,82.4,321.4,83.4,321.4z"/>
	<path id="XMLID_9639_" class="st0" d="M39.9,245.7c1,0,1.8,0.8,1.8,1.8c0,1-0.8,1.8-1.8,1.8s-1.8-0.8-1.8-1.8
		C38.2,246.5,39,245.7,39.9,245.7z"/>
	<circle id="XMLID_9638_" class="st0" cx="68.9" cy="300.8" r="1.8"/>
	<path id="XMLID_9637_" class="st0" d="M105.1,130.5c1,0,1.8,0.8,1.8,1.8c0,1-0.8,1.8-1.8,1.8c-1,0-1.8-0.8-1.8-1.8
		C103.3,131.3,104.1,130.5,105.1,130.5z"/>
	<path id="XMLID_9636_" class="st0" d="M105.7,248.3c1,0,1.8,0.8,1.8,1.8c0,1-0.8,1.8-1.8,1.8c-1,0-1.8-0.8-1.8-1.8
		C104,249.1,104.8,248.3,105.7,248.3z"/>
	<path id="XMLID_9635_" class="st0" d="M79.9,227.8c1,0,1.8,0.8,1.8,1.8c0,1-0.8,1.8-1.8,1.8c-1,0-1.8-0.8-1.8-1.8
		C78.2,228.6,79,227.8,79.9,227.8z"/>
	<path id="XMLID_9634_" class="st0" d="M102.2,98.3c1,0,1.8,0.8,1.8,1.8c0,1-0.8,1.8-1.8,1.8c-1,0-1.8-0.8-1.8-1.8
		C100.5,99.1,101.3,98.3,102.2,98.3z"/>
	<path id="XMLID_9633_" class="st0" d="M26.9,201.8c1,0,1.8,0.8,1.8,1.8c0,1-0.8,1.8-1.8,1.8c-1,0-1.8-0.8-1.8-1.8
		C25.1,202.5,25.9,201.8,26.9,201.8z"/>
	<circle id="XMLID_9632_" class="st0" cx="59.6" cy="245.7" r="1.8"/>
	<circle id="XMLID_9631_" class="st0" cx="9.4" cy="335.7" r="1.8"/>
	<path id="XMLID_9630_" class="st0" d="M15.3,293.1c1,0,1.8,0.8,1.8,1.8c0,1-0.8,1.8-1.8,1.8c-1,0-1.8-0.8-1.8-1.8
		C13.5,293.8,14.3,293.1,15.3,293.1z"/>
	<path id="XMLID_9629_" class="st0" d="M24.1,146c1,0,1.8,0.8,1.8,1.8c0,1-0.8,1.8-1.8,1.8c-1,0-1.8-0.8-1.8-1.8
		C22.4,146.8,23.2,146,24.1,146z"/>
	<path id="XMLID_9628_" class="st0" d="M14.9,150.7c1,0,1.8,0.8,1.8,1.8c0,1-0.8,1.8-1.8,1.8c-1,0-1.8-0.8-1.8-1.8
		C13.2,151.5,14,150.7,14.9,150.7z"/>
	<path id="XMLID_9627_" class="st0" d="M108.4,194c1,0,1.8,0.8,1.8,1.8s-0.8,1.8-1.8,1.8s-1.8-0.8-1.8-1.8S107.4,194,108.4,194z"/>
	<path id="XMLID_9626_" class="st0" d="M134.9,264.1c1,0,1.8,0.8,1.8,1.8c0,1-0.8,1.8-1.8,1.8c-1,0-1.8-0.8-1.8-1.8
		C133.2,264.9,133.9,264.1,134.9,264.1z"/>
	<path id="XMLID_9625_" class="st0" d="M6.5,216c1,0,1.8,0.8,1.8,1.8c0,1-0.8,1.8-1.8,1.8c-1,0-1.8-0.8-1.8-1.8
		C4.7,216.8,5.5,216,6.5,216z"/>
	<path id="XMLID_9624_" class="st0" d="M72.1,270.6c1,0,1.8,0.8,1.8,1.8c0,1-0.8,1.8-1.8,1.8c-1,0-1.8-0.8-1.8-1.8
		C70.4,271.4,71.2,270.6,72.1,270.6z"/>
	<circle id="XMLID_9623_" class="st0" cx="125.3" cy="311.5" r="1.8"/>
	<path id="XMLID_9622_" class="st0" d="M63.1,295.9c1,0,1.8,0.8,1.8,1.8c0,1-0.8,1.8-1.8,1.8c-1,0-1.8-0.8-1.8-1.8
		C61.4,296.7,62.2,295.9,63.1,295.9z"/>
	<path id="XMLID_9621_" class="st0" d="M3,222.7c1,0,1.8,0.8,1.8,1.8c0,1-0.8,1.8-1.8,1.8c-1,0-1.8-0.8-1.8-1.8
		C1.2,223.5,2,222.7,3,222.7z"/>
	<path id="XMLID_9620_" class="st0" d="M51.8,359.3c1,0,1.8,0.8,1.8,1.8c0,1-0.8,1.8-1.8,1.8c-1,0-1.8-0.8-1.8-1.8
		C50.1,360.1,50.9,359.3,51.8,359.3z"/>
	<path id="XMLID_9619_" class="st0" d="M106.6,300c1,0,1.8,0.8,1.8,1.8c0,1-0.8,1.8-1.8,1.8c-1,0-1.8-0.8-1.8-1.8
		C104.9,300.8,105.6,300,106.6,300z"/>
	<path id="XMLID_9618_" class="st0" d="M3,323.9c1,0,1.8,0.8,1.8,1.8c0,1-0.8,1.8-1.8,1.8c-1,0-1.8-0.8-1.8-1.8
		C1.3,324.7,2.1,323.9,3,323.9z"/>
	<path id="XMLID_9617_" class="st0" d="M10.5,268.8c1,0,1.8,0.8,1.8,1.8c0,1-0.8,1.8-1.8,1.8c-1,0-1.8-0.8-1.8-1.8
		C8.7,269.6,9.5,268.8,10.5,268.8z"/>
	<path id="XMLID_9616_" class="st0" d="M76.1,241.6c1,0,1.8,0.8,1.8,1.8c0,1-0.8,1.8-1.8,1.8c-1,0-1.8-0.8-1.8-1.8
		C74.4,242.4,75.2,241.6,76.1,241.6z"/>
	<path id="XMLID_9615_" class="st0" d="M92.5,210.1c1,0,1.8,0.8,1.8,1.8c0,1-0.8,1.8-1.8,1.8c-1,0-1.8-0.8-1.8-1.8
		C90.7,210.9,91.5,210.1,92.5,210.1z"/>
	<path id="XMLID_9614_" class="st0" d="M1.8,389.1c1,0,1.8,0.8,1.8,1.8c0,1-0.8,1.8-1.8,1.8c-1,0-1.8-0.8-1.8-1.8
		C0,389.9,0.8,389.1,1.8,389.1z"/>
	<circle id="XMLID_9613_" class="st0" cx="109.4" cy="237.2" r="1.8"/>
	<path id="XMLID_9612_" class="st0" d="M71.8,337.3c1,0,1.8,0.8,1.8,1.8c0,1-0.8,1.8-1.8,1.8c-1,0-1.8-0.8-1.8-1.8
		C70.1,338.1,70.8,337.3,71.8,337.3z"/>
	<circle id="XMLID_9611_" class="st0" cx="78" cy="167.6" r="1.8"/>
	<path id="XMLID_9610_" class="st0" d="M73.3,103.5c1,0,1.8,0.8,1.8,1.8c0,1-0.8,1.8-1.8,1.8c-1,0-1.8-0.8-1.8-1.8
		C71.6,104.3,72.4,103.5,73.3,103.5z"/>
	<path id="XMLID_9609_" class="st0" d="M115.5,210.3c1,0,1.8,0.8,1.8,1.8c0,1-0.8,1.8-1.8,1.8c-1,0-1.8-0.8-1.8-1.8
		C113.7,211.1,114.5,210.3,115.5,210.3z"/>
	<path id="XMLID_9608_" class="st0" d="M80.9,189.8c1,0,1.8,0.8,1.8,1.8c0,1-0.8,1.8-1.8,1.8c-1,0-1.8-0.8-1.8-1.8
		C79.1,190.5,79.9,189.8,80.9,189.8z"/>
	<path id="XMLID_9607_" class="st0" d="M101.5,179.3c1,0,1.8,0.8,1.8,1.8c0,1-0.8,1.8-1.8,1.8c-1,0-1.8-0.8-1.8-1.8
		C99.7,180.1,100.5,179.3,101.5,179.3z"/>
	<path id="XMLID_9606_" class="st0" d="M99.8,277.1c1,0,1.8,0.8,1.8,1.8c0,1-0.8,1.8-1.8,1.8c-1,0-1.8-0.8-1.8-1.8
		C98.1,277.9,98.9,277.1,99.8,277.1z"/>
	<path id="XMLID_9605_" class="st0" d="M102.9,323.7c1,0,1.8,0.8,1.8,1.8c0,1-0.8,1.8-1.8,1.8c-1,0-1.8-0.8-1.8-1.8
		C101.2,324.5,101.9,323.7,102.9,323.7z"/>
	<path id="XMLID_9604_" class="st0" d="M79.5,268c1,0,1.8,0.8,1.8,1.8c0,1-0.8,1.8-1.8,1.8c-1,0-1.8-0.8-1.8-1.8
		C77.8,268.7,78.6,268,79.5,268z"/>
	<path id="XMLID_9603_" class="st0" d="M79.9,275.4c1,0,1.8,0.8,1.8,1.8c0,1-0.8,1.8-1.8,1.8c-1,0-1.8-0.8-1.8-1.8
		C78.2,276.2,79,275.4,79.9,275.4z"/>
	<path id="XMLID_9602_" class="st0" d="M92.5,220c1,0,1.8,0.8,1.8,1.8c0,1-0.8,1.8-1.8,1.8s-1.8-0.8-1.8-1.8
		C90.8,220.7,91.6,220,92.5,220z"/>
	<path id="XMLID_9601_" class="st0" d="M140.1,160.5c1,0,1.8,0.8,1.8,1.8s-0.8,1.8-1.8,1.8c-1,0-1.8-0.8-1.8-1.8
		S139.1,160.5,140.1,160.5z"/>
	<path id="XMLID_9600_" class="st0" d="M1.3,138.6c1,0,1.8,0.8,1.8,1.8s-0.8,1.8-1.8,1.8c-1,0-1.8-0.8-1.8-1.8S0.4,138.6,1.3,138.6z
		"/>
	<path id="XMLID_9599_" class="st0" d="M14,363.5c1,0,1.8,0.8,1.8,1.8c0,1-0.8,1.8-1.8,1.8s-1.8-0.8-1.8-1.8
		C12.3,364.3,13.1,363.5,14,363.5z"/>
	<path id="XMLID_9598_" class="st0" d="M109,279.5c1,0,1.8,0.8,1.8,1.8c0,1-0.8,1.8-1.8,1.8c-1,0-1.8-0.8-1.8-1.8
		C107.3,280.3,108.1,279.5,109,279.5z"/>
	<path id="XMLID_9597_" class="st0" d="M9,407.2c1,0,1.8,0.8,1.8,1.8c0,1-0.8,1.8-1.8,1.8c-1,0-1.8-0.8-1.8-1.8
		C7.2,407.9,8,407.2,9,407.2z"/>
	<path id="XMLID_9596_" class="st0" d="M133.8,223.5c1,0,1.8,0.8,1.8,1.8c0,1-0.8,1.8-1.8,1.8s-1.8-0.8-1.8-1.8
		C132.1,224.2,132.8,223.5,133.8,223.5z"/>
	<path id="XMLID_9595_" class="st0" d="M55.7,286c1,0,1.8,0.8,1.8,1.8c0,1-0.8,1.8-1.8,1.8c-1,0-1.8-0.8-1.8-1.8
		C53.9,286.8,54.7,286,55.7,286z"/>
	<path id="XMLID_9594_" class="st0" d="M88.5,326.6c1,0,1.8,0.8,1.8,1.8c0,1-0.8,1.8-1.8,1.8c-1,0-1.8-0.8-1.8-1.8
		C86.8,327.3,87.6,326.6,88.5,326.6z"/>
	<path id="XMLID_9593_" class="st0" d="M29.9,171.5c1,0,1.8,0.8,1.8,1.8c0,1-0.8,1.8-1.8,1.8s-1.8-0.8-1.8-1.8
		C28.1,172.2,28.9,171.5,29.9,171.5z"/>
	<path id="XMLID_9592_" class="st0" d="M124.8,268.8c1,0,1.8,0.8,1.8,1.8c0,1-0.8,1.8-1.8,1.8c-1,0-1.8-0.8-1.8-1.8
		C123.1,269.6,123.8,268.8,124.8,268.8z"/>
	<path id="XMLID_9591_" class="st0" d="M65.5,340.9c1,0,1.8,0.8,1.8,1.8s-0.8,1.8-1.8,1.8c-1,0-1.8-0.8-1.8-1.8
		S64.5,340.9,65.5,340.9z"/>
	<circle id="XMLID_9590_" class="st0" cx="10.2" cy="372" r="1.8"/>
	<path id="XMLID_9589_" class="st0" d="M38.2,385.1c1,0,1.8,0.8,1.8,1.8c0,1-0.8,1.8-1.8,1.8c-1,0-1.8-0.8-1.8-1.8
		C36.5,385.9,37.3,385.1,38.2,385.1z"/>
	<path id="XMLID_9588_" class="st0" d="M17.2,206.1c1,0,1.8,0.8,1.8,1.8c0,1-0.8,1.8-1.8,1.8c-1,0-1.8-0.8-1.8-1.8
		C15.5,206.9,16.2,206.1,17.2,206.1z"/>
	<path id="XMLID_9587_" class="st0" d="M118.9,190.6c1,0,1.8,0.8,1.8,1.8c0,1-0.8,1.8-1.8,1.8c-1,0-1.8-0.8-1.8-1.8
		C117.2,191.3,118,190.6,118.9,190.6z"/>
	<path id="XMLID_9586_" class="st0" d="M117.3,196.4c1,0,1.8,0.8,1.8,1.8c0,1-0.8,1.8-1.8,1.8c-1,0-1.8-0.8-1.8-1.8
		C115.6,197.1,116.4,196.4,117.3,196.4z"/>
	<path id="XMLID_9585_" class="st0" d="M91.6,193.5c1,0,1.8,0.8,1.8,1.8c0,1-0.8,1.8-1.8,1.8c-1,0-1.8-0.8-1.8-1.8
		C89.8,194.3,90.6,193.5,91.6,193.5z"/>
	<path id="XMLID_9584_" class="st0" d="M95.7,124.7c1,0,1.8,0.8,1.8,1.8c0,1-0.8,1.8-1.8,1.8c-1,0-1.8-0.8-1.8-1.8
		C93.9,125.4,94.7,124.7,95.7,124.7z"/>
	<path id="XMLID_9583_" class="st0" d="M18.4,368.4c1,0,1.8,0.8,1.8,1.8c0,1-0.8,1.8-1.8,1.8c-1,0-1.8-0.8-1.8-1.8
		C16.7,369.2,17.4,368.4,18.4,368.4z"/>
	<path id="XMLID_9582_" class="st0" d="M113.6,285.8c1,0,1.8,0.8,1.8,1.8c0,1-0.8,1.8-1.8,1.8c-1,0-1.8-0.8-1.8-1.8
		C111.9,286.6,112.7,285.8,113.6,285.8z"/>
	<path id="XMLID_9581_" class="st0" d="M23.3,279.1c1,0,1.8,0.8,1.8,1.8c0,1-0.8,1.8-1.8,1.8c-1,0-1.8-0.8-1.8-1.8
		C21.5,279.9,22.3,279.1,23.3,279.1z"/>
	<path id="XMLID_9580_" class="st0" d="M120.5,174c1,0,1.8,0.8,1.8,1.8c0,1-0.8,1.8-1.8,1.8c-1,0-1.8-0.8-1.8-1.8
		C118.8,174.8,119.6,174,120.5,174z"/>
	<path id="XMLID_9579_" class="st0" d="M92.8,178.5c1,0,1.8,0.8,1.8,1.8c0,1-0.8,1.8-1.8,1.8c-1,0-1.8-0.8-1.8-1.8
		C91,179.3,91.8,178.5,92.8,178.5z"/>
	<path id="XMLID_9578_" class="st0" d="M98.2,243.3c1,0,1.8,0.8,1.8,1.8c0,1-0.8,1.8-1.8,1.8c-1,0-1.8-0.8-1.8-1.8
		C96.4,244.1,97.2,243.3,98.2,243.3z"/>
	<path id="XMLID_9577_" class="st0" d="M109.7,212.9c1,0,1.8,0.8,1.8,1.8c0,1-0.8,1.8-1.8,1.8c-1,0-1.8-0.8-1.8-1.8
		C108,213.7,108.7,212.9,109.7,212.9z"/>
	<path id="XMLID_9576_" class="st0" d="M140.1,199.4c1,0,1.8,0.8,1.8,1.8c0,1-0.8,1.8-1.8,1.8c-1,0-1.8-0.8-1.8-1.8
		C138.3,200.2,139.1,199.4,140.1,199.4z"/>
	<circle id="XMLID_9575_" class="st0" cx="27.5" cy="388.8" r="1.8"/>
	<path id="XMLID_9574_" class="st0" d="M31.3,227.6c1,0,1.8,0.8,1.8,1.8c0,1-0.8,1.8-1.8,1.8c-1,0-1.8-0.8-1.8-1.8
		C29.5,228.4,30.3,227.6,31.3,227.6z"/>
	<path id="XMLID_9573_" class="st0" d="M51.2,255.6c1,0,1.8,0.8,1.8,1.8c0,1-0.8,1.8-1.8,1.8s-1.8-0.8-1.8-1.8
		C49.4,256.4,50.2,255.6,51.2,255.6z"/>
	<path id="XMLID_9572_" class="st0" d="M29.2,369.5c1,0,1.8,0.8,1.8,1.8c0,1-0.8,1.8-1.8,1.8c-1,0-1.8-0.8-1.8-1.8
		C27.4,370.3,28.2,369.5,29.2,369.5z"/>
	<path id="XMLID_9571_" class="st0" d="M38.9,265.7c1,0,1.8,0.8,1.8,1.8c0,1-0.8,1.8-1.8,1.8c-1,0-1.8-0.8-1.8-1.8
		C37.2,266.5,38,265.7,38.9,265.7z"/>
	<path id="XMLID_9570_" class="st0" d="M101.2,232.1c1,0,1.8,0.8,1.8,1.8c0,1-0.8,1.8-1.8,1.8c-1,0-1.8-0.8-1.8-1.8
		C99.5,232.9,100.2,232.1,101.2,232.1z"/>
	<path id="XMLID_9569_" class="st0" d="M169.7,221.2c1,0,1.8,0.8,1.8,1.8c0,1-0.8,1.8-1.8,1.8c-1,0-1.8-0.8-1.8-1.8
		C168,222,168.7,221.2,169.7,221.2z"/>
	<circle id="XMLID_9568_" class="st0" cx="52" cy="136.3" r="1.8"/>
	<path id="XMLID_9567_" class="st0" d="M24.5,268c1,0,1.8,0.8,1.8,1.8c0,1-0.8,1.8-1.8,1.8c-1,0-1.8-0.8-1.8-1.8
		C22.7,268.7,23.5,268,24.5,268z"/>
	<path id="XMLID_9566_" class="st0" d="M36.2,151.7c1,0,1.8,0.8,1.8,1.8c0,1-0.8,1.8-1.8,1.8c-1,0-1.8-0.8-1.8-1.8
		C34.5,152.4,35.2,151.7,36.2,151.7z"/>
	<path id="XMLID_9565_" class="st0" d="M111.4,187.6c1,0,1.8,0.8,1.8,1.8c0,1-0.8,1.8-1.8,1.8c-1,0-1.8-0.8-1.8-1.8
		C109.7,188.4,110.5,187.6,111.4,187.6z"/>
	<path id="XMLID_9564_" class="st0" d="M4.6,198.9c1,0,1.8,0.8,1.8,1.8s-0.8,1.8-1.8,1.8c-1,0-1.8-0.8-1.8-1.8S3.6,198.9,4.6,198.9z
		"/>
	<path id="XMLID_9563_" class="st0" d="M18.5,271.9c1,0,1.8,0.8,1.8,1.8c0,1-0.8,1.8-1.8,1.8c-1,0-1.8-0.8-1.8-1.8
		C16.7,272.7,17.5,271.9,18.5,271.9z"/>
	<path id="XMLID_9562_" class="st0" d="M76.2,247c1,0,1.8,0.8,1.8,1.8c0,1-0.8,1.8-1.8,1.8c-1,0-1.8-0.8-1.8-1.8
		C74.5,247.8,75.2,247,76.2,247z"/>
	<path id="XMLID_9561_" class="st0" d="M43.8,141c1,0,1.8,0.8,1.8,1.8c0,1-0.8,1.8-1.8,1.8c-1,0-1.8-0.8-1.8-1.8
		C42.1,141.8,42.8,141,43.8,141z"/>
	<path id="XMLID_9560_" class="st0" d="M65.1,128.5c1,0,1.8,0.8,1.8,1.8c0,1-0.8,1.8-1.8,1.8c-1,0-1.8-0.8-1.8-1.8
		C63.3,129.3,64.1,128.5,65.1,128.5z"/>
	<path id="XMLID_9559_" class="st0" d="M110.8,222.1c1,0,1.8,0.8,1.8,1.8c0,1-0.8,1.8-1.8,1.8c-1,0-1.8-0.8-1.8-1.8
		C109.1,222.9,109.8,222.1,110.8,222.1z"/>
	<path id="XMLID_9558_" class="st0" d="M5.2,286.4c1,0,1.8,0.8,1.8,1.8s-0.8,1.8-1.8,1.8c-1,0-1.8-0.8-1.8-1.8S4.3,286.4,5.2,286.4z
		"/>
	<path id="XMLID_9557_" class="st0" d="M12,377.2c1,0,1.8,0.8,1.8,1.8c0,1-0.8,1.8-1.8,1.8s-1.8-0.8-1.8-1.8
		C10.2,378,11,377.2,12,377.2z"/>
	<path id="XMLID_9556_" class="st0" d="M44,281.3c1,0,1.8,0.8,1.8,1.8c0,1-0.8,1.8-1.8,1.8c-1,0-1.8-0.8-1.8-1.8
		C42.2,282.1,43,281.3,44,281.3z"/>
	<path id="XMLID_9555_" class="st0" d="M11.8,197.6c1,0,1.8,0.8,1.8,1.8c0,1-0.8,1.8-1.8,1.8c-1,0-1.8-0.8-1.8-1.8
		C10.1,198.4,10.8,197.6,11.8,197.6z"/>
	<path id="XMLID_9554_" class="st0" d="M10,290.6c1,0,1.8,0.8,1.8,1.8c0,1-0.8,1.8-1.8,1.8c-1,0-1.8-0.8-1.8-1.8
		C8.2,291.4,9,290.6,10,290.6z"/>
	<path id="XMLID_9553_" class="st0" d="M44.7,269.7c1,0,1.8,0.8,1.8,1.8c0,1-0.8,1.8-1.8,1.8c-1,0-1.8-0.8-1.8-1.8
		C43,270.4,43.8,269.7,44.7,269.7z"/>
	<path id="XMLID_9552_" class="st0" d="M4.9,299c1,0,1.8,0.8,1.8,1.8c0,1-0.8,1.8-1.8,1.8c-1,0-1.8-0.8-1.8-1.8
		C3.1,299.7,3.9,299,4.9,299z"/>
	<circle id="XMLID_9551_" class="st0" cx="98.9" cy="311.4" r="1.8"/>
	<path id="XMLID_9550_" class="st0" d="M105.4,184c1,0,1.8,0.8,1.8,1.8c0,1-0.8,1.8-1.8,1.8c-1,0-1.8-0.8-1.8-1.8
		C103.7,184.8,104.5,184,105.4,184z"/>
	<path id="XMLID_9549_" class="st0" d="M80.8,121.2c1,0,1.8,0.8,1.8,1.8c0,1-0.8,1.8-1.8,1.8c-1,0-1.8-0.8-1.8-1.8
		C79,121.9,79.8,121.2,80.8,121.2z"/>
	<path id="XMLID_9548_" class="st0" d="M30.4,155c1,0,1.8,0.8,1.8,1.8c0,1-0.8,1.8-1.8,1.8c-1,0-1.8-0.8-1.8-1.8
		C28.7,155.8,29.5,155,30.4,155z"/>
	<path id="XMLID_9547_" class="st0" d="M120.5,182c1,0,1.8,0.8,1.8,1.8c0,1-0.8,1.8-1.8,1.8c-1,0-1.8-0.8-1.8-1.8
		C118.8,182.8,119.6,182,120.5,182z"/>
	<path id="XMLID_9546_" class="st0" d="M39.3,258.1c1,0,1.8,0.8,1.8,1.8c0,1-0.8,1.8-1.8,1.8c-1,0-1.8-0.8-1.8-1.8
		C37.5,258.9,38.3,258.1,39.3,258.1z"/>
	<path id="XMLID_9545_" class="st0" d="M9.9,383.7c1,0,1.8,0.8,1.8,1.8c0,1-0.8,1.8-1.8,1.8c-1,0-1.8-0.8-1.8-1.8
		C8.1,384.4,8.9,383.7,9.9,383.7z"/>
	<path id="XMLID_9544_" class="st0" d="M132.5,269.1c1,0,1.8,0.8,1.8,1.8c0,1-0.8,1.8-1.8,1.8c-1,0-1.8-0.8-1.8-1.8
		C130.7,269.9,131.5,269.1,132.5,269.1z"/>
	<path id="XMLID_9543_" class="st0" d="M127.4,206c1,0,1.8,0.8,1.8,1.8c0,1-0.8,1.8-1.8,1.8s-1.8-0.8-1.8-1.8
		C125.6,206.8,126.4,206,127.4,206z"/>
	<path id="XMLID_9542_" class="st0" d="M124.2,197.2c1,0,1.8,0.8,1.8,1.8c0,1-0.8,1.8-1.8,1.8c-1,0-1.8-0.8-1.8-1.8
		C122.5,198,123.3,197.2,124.2,197.2z"/>
	<path id="XMLID_9541_" class="st0" d="M27.7,380.7c1,0,1.8,0.8,1.8,1.8c0,1-0.8,1.8-1.8,1.8c-1,0-1.8-0.8-1.8-1.8
		C25.9,381.5,26.7,380.7,27.7,380.7z"/>
	<path id="XMLID_9540_" class="st0" d="M145.1,192.2c1,0,1.8,0.8,1.8,1.8c0,1-0.8,1.8-1.8,1.8c-1,0-1.8-0.8-1.8-1.8
		C143.3,193,144.1,192.2,145.1,192.2z"/>
	<path id="XMLID_9539_" class="st0" d="M3.9,316.7c1,0,1.8,0.8,1.8,1.8c0,1-0.8,1.8-1.8,1.8c-1,0-1.8-0.8-1.8-1.8
		C2.1,317.4,2.9,316.7,3.9,316.7z"/>
	<path id="XMLID_9538_" class="st0" d="M34.8,138.5c1,0,1.8,0.8,1.8,1.8c0,1-0.8,1.8-1.8,1.8s-1.8-0.8-1.8-1.8
		C33.1,139.3,33.9,138.5,34.8,138.5z"/>
	<path id="XMLID_9537_" class="st0" d="M6.3,208.8c1,0,1.8,0.8,1.8,1.8c0,1-0.8,1.8-1.8,1.8c-1,0-1.8-0.8-1.8-1.8
		C4.6,209.6,5.4,208.8,6.3,208.8z"/>
	<path id="XMLID_9536_" class="st0" d="M73.8,262.7c1,0,1.8,0.8,1.8,1.8c0,1-0.8,1.8-1.8,1.8c-1,0-1.8-0.8-1.8-1.8
		C72,263.5,72.8,262.7,73.8,262.7z"/>
	<path id="XMLID_9535_" class="st0" d="M67.9,355.6c1,0,1.8,0.8,1.8,1.8c0,1-0.8,1.8-1.8,1.8c-1,0-1.8-0.8-1.8-1.8
		C66.1,356.4,66.9,355.6,67.9,355.6z"/>
	<circle id="XMLID_9534_" class="st0" cx="42.3" cy="377.1" r="1.8"/>
	<path id="XMLID_9533_" class="st0" d="M111.4,229.1c1,0,1.8,0.8,1.8,1.8c0,1-0.8,1.8-1.8,1.8c-1,0-1.8-0.8-1.8-1.8
		C109.6,229.9,110.4,229.1,111.4,229.1z"/>
	<path id="XMLID_9532_" class="st0" d="M7.7,249.3c1,0,1.8,0.8,1.8,1.8c0,1-0.8,1.8-1.8,1.8c-1,0-1.8-0.8-1.8-1.8
		C6,250.1,6.8,249.3,7.7,249.3z"/>
	<path id="XMLID_9531_" class="st0" d="M89.5,267.6c1,0,1.8,0.8,1.8,1.8c0,1-0.8,1.8-1.8,1.8c-1,0-1.8-0.8-1.8-1.8
		C87.7,268.4,88.5,267.6,89.5,267.6z"/>
	<path id="XMLID_9530_" class="st0" d="M44.6,380.3c1,0,1.8,0.8,1.8,1.8c0,1-0.8,1.8-1.8,1.8c-1,0-1.8-0.8-1.8-1.8
		C42.9,381.1,43.7,380.3,44.6,380.3z"/>
	<path id="XMLID_9529_" class="st0" d="M87.2,339.5c1,0,1.8,0.8,1.8,1.8c0,1-0.8,1.8-1.8,1.8c-1,0-1.8-0.8-1.8-1.8
		C85.5,340.3,86.3,339.5,87.2,339.5z"/>
	<path id="XMLID_9528_" class="st0" d="M20.8,172.4c1,0,1.8,0.8,1.8,1.8s-0.8,1.8-1.8,1.8c-1,0-1.8-0.8-1.8-1.8
		S19.9,172.4,20.8,172.4z"/>
	<path id="XMLID_9527_" class="st0" d="M14.4,401.6c1,0,1.8,0.8,1.8,1.8c0,1-0.8,1.8-1.8,1.8c-1,0-1.8-0.8-1.8-1.8
		C12.6,402.4,13.4,401.6,14.4,401.6z"/>
	<circle id="XMLID_9526_" class="st0" cx="57.1" cy="367.7" r="1.8"/>
	<path id="XMLID_9525_" class="st0" d="M114.1,264.6c1,0,1.8,0.8,1.8,1.8c0,1-0.8,1.8-1.8,1.8c-1,0-1.8-0.8-1.8-1.8
		C112.4,265.4,113.1,264.6,114.1,264.6z"/>
	<path id="XMLID_9524_" class="st0" d="M138,258.7c1,0,1.8,0.8,1.8,1.8c0,1-0.8,1.8-1.8,1.8s-1.8-0.8-1.8-1.8
		C136.3,259.5,137,258.7,138,258.7z"/>
	<path id="XMLID_9523_" class="st0" d="M76.7,133.5c1,0,1.8,0.8,1.8,1.8c0,1-0.8,1.8-1.8,1.8c-1,0-1.8-0.8-1.8-1.8
		C74.9,134.3,75.7,133.5,76.7,133.5z"/>
	<path id="XMLID_9522_" class="st0" d="M126.6,230.4c1,0,1.8,0.8,1.8,1.8c0,1-0.8,1.8-1.8,1.8c-1,0-1.8-0.8-1.8-1.8
		C124.8,231.2,125.6,230.4,126.6,230.4z"/>
	<path id="XMLID_9521_" class="st0" d="M62.2,142.9c1,0,1.8,0.8,1.8,1.8c0,1-0.8,1.8-1.8,1.8c-1,0-1.8-0.8-1.8-1.8
		C60.4,143.7,61.2,142.9,62.2,142.9z"/>
	<path id="XMLID_9520_" class="st0" d="M115.5,294.1c1,0,1.8,0.8,1.8,1.8s-0.8,1.8-1.8,1.8c-1,0-1.8-0.8-1.8-1.8
		S114.5,294.1,115.5,294.1z"/>
	<path id="XMLID_9519_" class="st0" d="M118.8,253.6c1,0,1.8,0.8,1.8,1.8c0,1-0.8,1.8-1.8,1.8c-1,0-1.8-0.8-1.8-1.8
		C117,254.4,117.8,253.6,118.8,253.6z"/>
	<path id="XMLID_9518_" class="st0" d="M130.3,215c1,0,1.8,0.8,1.8,1.8c0,1-0.8,1.8-1.8,1.8c-1,0-1.8-0.8-1.8-1.8
		C128.6,215.8,129.4,215,130.3,215z"/>
	<path id="XMLID_9517_" class="st0" d="M133.3,231.3c1,0,1.8,0.8,1.8,1.8c0,1-0.8,1.8-1.8,1.8c-1,0-1.8-0.8-1.8-1.8
		C131.6,232.1,132.4,231.3,133.3,231.3z"/>
	<path id="XMLID_9516_" class="st0" d="M144.2,238.1c1,0,1.8,0.8,1.8,1.8c0,1-0.8,1.8-1.8,1.8c-1,0-1.8-0.8-1.8-1.8
		C142.4,238.9,143.2,238.1,144.2,238.1z"/>
	<path id="XMLID_9515_" class="st0" d="M139.9,252.2c1,0,1.8,0.8,1.8,1.8c0,1-0.8,1.8-1.8,1.8c-1,0-1.8-0.8-1.8-1.8
		C138.1,253,138.9,252.2,139.9,252.2z"/>
	<path id="XMLID_9514_" class="st0" d="M20.4,399.3c1,0,1.8,0.8,1.8,1.8c0,1-0.8,1.8-1.8,1.8c-1,0-1.8-0.8-1.8-1.8
		C18.6,400.1,19.4,399.3,20.4,399.3z"/>
	<path id="XMLID_9513_" class="st0" d="M50.8,374c1,0,1.8,0.8,1.8,1.8c0,1-0.8,1.8-1.8,1.8c-1,0-1.8-0.8-1.8-1.8
		C49,374.8,49.8,374,50.8,374z"/>
	<path id="XMLID_9512_" class="st0" d="M112.9,308.2c1,0,1.8,0.8,1.8,1.8c0,1-0.8,1.8-1.8,1.8c-1,0-1.8-0.8-1.8-1.8
		C111.2,309,112,308.2,112.9,308.2z"/>
</g>
</svg>
