<?xml version="1.0" encoding="utf-8"?>
<!-- Generator: Adobe Illustrator 24.0.0, SVG Export Plug-In . SVG Version: 6.00 Build 0)  -->
<svg version="1.1" id="圖層_1" xmlns="http://www.w3.org/2000/svg" xmlns:xlink="http://www.w3.org/1999/xlink" x="0px" y="0px"
	 viewBox="0 0 200 200" style="enable-background:new 0 0 200 200;" xml:space="preserve">
<style type="text/css">
	.st0{fill:#666666;}
	.st1{fill:#588FA1;}
</style>
<path class="st0" d="M37.4,196.8c-0.3-1.2-1.4-1.9-2.1-2.8c-0.9-1.2-1.2-2.4-1.1-3.8c0-1.1,0.2-2.1,1.6-2.2c1.3-0.1,1.8,0.9,2,1.9
	c0.2,0.9,0.2,1.9,1,2.6c1.8,1.7,4.1,1.5,6.1,0.8c1.8-0.6,2.2-2.5,2.2-4.3c0-0.8,0-1.7,0-2.5c0-1-0.2-1.5-1.4-0.8
	c-5.7,3.2-11.9-0.1-12.2-6.7c-0.2-4.6,0-9.2,0-13.7c0-0.7,0.1-1.4,0.6-2c0.4-0.5,0.9-0.8,1.6-0.7c0.7,0.1,1.1,0.5,1.2,1.1
	c0.1,0.7,0.2,1.4,0.2,2.1c0,4.1,0,8.2,0,12.3c0,3.1,1.3,4.7,3.8,5.2c2.8,0.5,6.2-2.2,6.2-5c0-4,0-8.1,0-12.1c0-0.5,0-1.1,0-1.6
	c0.1-1.2,0.8-1.8,2-1.8c1.3,0,1.6,0.8,1.6,1.9c0,5.6,0,11.2,0,16.8c0,2.3-0.2,4.5,0,6.8c0.3,2.9-0.8,5.2-2.7,7.2
	c-0.4,0.4-0.6,0.8-1,1.3C43.9,196.8,40.7,196.8,37.4,196.8z"/>
<path class="st1" d="M97.1,130.3c-18.5,0-37.1-0.1-55.6,0.1c-4.3,0-7.1-3-7-7.1c0.1-2.9,0.2-5.7,0-8.6c-0.4-4.2,3.4-7.7,7.3-7.2
	c1.2,0.1,2.4,0.1,3.6,0.3c1.1,0.2,1.9-0.2,1.8-1.5c-0.3-5.4-0.1-10.8-0.1-16.3c0-10.6,0-21.2,0.1-31.8c0-1.2-0.6-1.4-1.5-1.4
	c-1.8,0-3.7,0-5.5,0c-3,0-5.5-2.1-5.6-5.2c-0.1-3.9-0.2-7.8,0-11.6c0.2-2.9,2.4-4.7,4.9-5.9c3.7-1.9,7.1-4.1,10.8-6.2
	c3.6-2,7.1-3.9,10.7-5.9c2.5-1.4,4.9-2.9,7.3-4.3c4.3-2.4,8.6-4.8,12.9-7.3c2.7-1.5,5.2-3.3,7.9-4.7C91.4,4.5,93.5,3,96,2.2
	c1.7-0.5,3.2,0.1,4.4,0.8c5.9,3.6,12,6.8,18,10.3c2.5,1.5,5,3,7.5,4.4c2.7,1.5,5.3,3.1,8,4.5c3.3,1.6,6.4,3.5,9.6,5.3
	c4.3,2.4,8.5,4.9,12.7,7.4c2,1.2,3.2,2.7,3.1,5.2c-0.1,3.9,0,7.9,0,11.8c0,2.7-2.1,4.8-4.9,4.8c-1.9,0-3.8,0-5.7,0
	c-1.1,0-1.7,0.6-1.6,1.7c0.3,3.5,0,7,0,10.5c0.1,11.7,0,23.5,0,35.2c0,3.7,0,3.7,3.7,3.4c2.9-0.2,5.6,0,7.6,2.5
	c0.7,0.8,0.8,1.7,0.8,2.6c0,4.1,0,8.2,0,12.3c0,2.6-2.5,5.1-5,5.3c-0.6,0-1.2,0-1.8,0C134.1,130.3,115.6,130.3,97.1,130.3z
	 M97.1,46.7c16.6,0,33.1,0,49.7,0c2.3,0,3.2-1.4,2.4-3.6c-0.3-0.8-1-1.2-1.7-1.5c-2.5-1.5-5.1-2.9-7.7-4.3c-2.7-1.5-5.5-2.8-8-4.4
	c-2.6-1.7-5.3-3.1-8-4.6c-3.3-1.9-6.7-3.7-10-5.6c-4.7-2.8-9.6-5.3-14.3-8.2c-1.1-0.7-2.4-1.5-4-0.4c-1.8,1.2-3.8,2.1-5.6,3.2
	c-6.4,3.9-13,7.4-19.5,11.1c-2.5,1.5-5.2,2.8-7.7,4.3c-3.5,2-7,3.9-10.4,6c-2.1,1.3-4.5,2.2-6.3,3.9c-1,1-1.3,2.2-0.9,3.4
	c0.4,1.2,1.6,0.8,2.5,0.8C64.1,46.7,80.6,46.7,97.1,46.7z M120.8,82.3L120.8,82.3c-0.1-7.8-0.1-15.6-0.1-23.4c0-1.6-0.5-2.3-2.2-2.2
	c-2,0.1-3.9,0-5.9,0c-2.3,0-2.4,0.1-2.4,2.4c0,14.6,0,29.3,0,43.9c0,1,0,2,0,3c0,1.2,0.7,1.8,1.8,1.6c2.3-0.3,4.6-0.3,6.9-0.1
	c0.9,0.1,1.7-0.2,1.7-1.5C120.8,98.2,120.8,90.2,120.8,82.3z M83.7,82.3L83.7,82.3c0-8-0.1-16.1,0-24.1c0-1.2-0.5-1.4-1.5-1.4
	c-2.1,0-4.3,0.1-6.4,0c-1.4,0-1.9,0.5-1.9,1.9c0,15.7,0,31.4,0,47.1c0,1.9,0.4,2.2,2.4,2c1.9-0.2,3.8-0.4,5.7,0.2
	c1.3,0.4,1.7-0.3,1.7-1.5C83.7,98.3,83.7,90.3,83.7,82.3z M60.5,56.7L60.5,56.7c-0.6,0-1.2,0-1.8,0c-0.9,0-1.4,0.3-1.4,1.4
	c0.1,15.4,0.1,30.7,0.1,46.1c0,3.3,0,3.3,3.2,3.4c0.4,0,0.8,0.2,1.2,0.2c1.2,0,1.9-0.4,1.8-1.8c-0.1-1.5-0.2-3-0.2-4.5
	c0-13.3,0-26.7,0-40c0-0.9,0-1.9,0.2-2.8c0.3-1.5-0.4-2.1-1.8-2C61.4,56.7,61,56.7,60.5,56.7z M100.3,82.1c0-7.7,0-15.5,0-23.2
	c0-0.8,0.3-1.9-0.9-2c-1.6-0.2-3.5-0.6-4.9,0.2c-1.3,0.7,0,2.2-0.2,3.3c0,0.1,0,0.2,0,0.4c0,14.4,0,28.8,0,43.2c0,3.5,0,3.5,3.4,3.7
	c2.5,0.1,2.6,0,2.6-2.5C100.3,97.5,100.3,89.8,100.3,82.1z M97,120.3c16.5,0,33.1,0,49.6,0c0.5,0,1,0,1.4,0c0.8-0.1,1.2-0.5,1.2-1.3
	c0-0.7-0.3-1.3-1.1-1.4c-0.5-0.1-0.9-0.1-1.4-0.1c-33,0-66.1,0-99.1,0c-0.4,0-0.8,0-1.2,0c-0.9,0.1-1.4,0.8-1.4,1.6
	c0,0.9,0.8,1.1,1.5,1.1c0.5,0,1,0,1.4,0C64.3,120.3,80.7,120.3,97,120.3z M133.8,56.8c-3.1,0-3.1,0-2.8,3.2c0.1,0.7,0,1.4,0,2.1
	c0,12.2,0,24.3,0,36.5c0,2.1,0.1,4.3-0.1,6.4c-0.2,2.8-0.2,2.9,2.7,2.6c1-0.1,2.1,0.7,2.9-0.3c0.8-0.9,0.1-2.1,0.1-3.1
	c0-10.2,0-20.4,0-30.6c0-5.1-0.3-10.1,0.2-15.2c0.1-1-0.4-1.6-1.4-1.7C135,56.7,134.4,56.8,133.8,56.8z"/>
<path class="st0" d="M2.4,170.6c0-4.2,0-8.5,0-12.7c0-0.9,0.1-1.8,0.4-2.6c0.4-1,0.9-1.8,2.1-1.9c1.2-0.1,2.1,0.4,2.6,1.5
	c1.1,2.4,2.2,4.7,3.2,7.2c1.1,2.8,2.2,5.6,3.5,8.3c0.5,0.9,0.7,2,1,3c0.1,0.3,0.3,0.6,0.6,0.5c0.4,0,0.4-0.4,0.5-0.7
	c1.6-4,3.3-8,4.8-12c0.7-2,1.5-4,2.3-6c0.6-1.3,1.4-2.3,3-1.9c1.5,0.4,1.9,1.5,2.1,2.9c0.5,5.1,0.2,10.2,0.3,15.4
	c0.1,3.9,0,7.9,0,11.8c0,0.7,0,1.4-0.3,2.1c-0.4,0.8-0.9,1.2-1.8,1.2s-1.5-0.4-1.8-1.2c-0.2-0.5-0.3-1.2-0.3-1.7
	c0.1-6.4-0.4-12.7,0.3-19.1c0-0.5,0.3-1.3-0.3-1.4c-0.8-0.2-0.8,0.7-1,1.2c-1.8,4.3-3.5,8.6-5.2,12.8c-0.5,1.1-1.2,1.9-2.5,1.9
	c-1.3,0.1-1.9-0.5-2.4-1.6c-2.3-4.4-3.9-9.1-5.9-13.6c-0.2-0.4-0.1-1.3-0.8-1.2c-0.6,0.1-0.4,0.9-0.4,1.4c0.6,6.2,0.2,12.4,0.3,18.6
	c0,0.7,0,1.3-0.1,2c-0.2,1.2-0.9,2-2.2,1.9s-1.9-0.9-2-2.1c-0.1-2,0-3.9,0-5.9C2.4,176,2.4,173.3,2.4,170.6L2.4,170.6z"/>
<path class="st0" d="M198.3,170.1c0,2.5-0.1,5,0,7.5c0.2,4.5-3.4,8.4-7.1,9.3c-4.7,1.2-9.3-0.7-11.5-4.7c-0.9-1.6-1-3.4-1.1-5.2
	c0-4.7,0-9.4,0-14.1c-0.1-6.5,4.7-10.3,11.2-9.7c5.1,0.5,8.8,4.9,8.5,9.7C198.1,165.3,198.3,167.7,198.3,170.1z M194.4,170.3
	L194.4,170.3c0-3,0-6,0-8.9c0-2.2-1.6-3.9-3.9-4.1c-1-0.1-2,0-3-0.1c-3.2-0.2-5,2.2-4.9,4.9c0.1,5.2,0,10.4,0,15.5
	c0,4.3,3.2,6.9,7.4,5.8c3.2-0.9,4.6-1.9,4.4-5.4C194.3,175.4,194.4,172.8,194.4,170.3z"/>
<path class="st0" d="M124.7,174.6c0-1.1,0.1-2.3,0-3.4c-0.3-6,4.6-9.5,10.4-8.6c5.4,0.8,7.5,5.6,7,10.3c-0.3,2.4-1.7,3.5-4.2,3.5
	c-2.7,0-5.4,0-8-0.1c-1.2-0.1-1.5,0.4-1.5,1.4c-0.1,2.5,0.9,4.3,2.9,5.3c2,0.9,4.4,0.5,6.2-1c0.4-0.3,0.5-0.8,0.6-1.3
	c0.2-0.6,0.3-1.3,0.5-1.9c0.3-0.9,0.9-1.6,2-1.4c0.9,0.2,1.4,0.9,1.4,1.8c0.1,1.5-0.2,3-1.1,4.2c-4.1,5.5-12.1,5-15.3-1
	c-0.6-1.1-0.7-2.4-0.7-3.6C124.6,177.4,124.7,176,124.7,174.6z M133.6,172.5L133.6,172.5c0.8,0.1,1.7,0.1,2.5,0.1
	c1.9,0,2.3-0.5,2.1-2.4c-0.3-2.8-2.8-4.4-6.1-3.7c-2.6,0.5-4.2,2.7-3.8,5.2c0.1,0.9,0.5,1.3,1.4,1.2
	C131,172.6,132.3,172.5,133.6,172.5z"/>
<path class="st0" d="M156.8,187.2c-2.1,0-4.2,0-6.3,0c-1.5,0-2.7-0.5-3.4-1.9s-0.2-2.6,0.7-3.8c3.3-3.9,6.6-7.8,9.8-11.8
	c2-2.6,4-5.2,3.5-8.8c-0.2-1.9-1.2-3.3-3.1-3.6c-3-0.4-5.9-0.5-7.4,3c-0.6,1.3-1.8,1.5-3,0.7c-1.1-0.8-0.7-1.7-0.1-2.7
	c2.7-4.4,7.2-6.4,11.9-4.6c4.7,1.7,7,6.2,4.9,11.5c-1.3,3.2-3.4,6-5.6,8.7c-2.1,2.6-4.3,5.2-6.5,7.8c-0.3,0.4-0.9,0.7-0.5,1.4
	c0.3,0.5,0.8,0.3,1.3,0.3c3.3,0,6.5-0.1,9.8,0c1.3,0,2.7,0.2,2.7,1.9s-1.3,2.1-2.8,2.1C160.8,187.2,158.8,187.2,156.8,187.2z"/>
<path class="st0" d="M79.6,170.4c0-4.6,0-9.2,0-13.8c0-2.5,0.4-3,2.9-3.4c4.4-0.6,8.9-0.3,13.4-0.2c0.3,0,0.6,0.1,0.9,0.2
	c1.2,0.3,1.9,0.9,1.8,2.3c-0.1,1.4-1.1,1.7-2.3,1.7c-3.5,0-7,0-10.5,0c-2.4,0-2.4,0-2.3,2.4c0.1,2,0.1,4.1,0,6.1
	c-0.1,1.5,0.3,2.1,2,2c2.6-0.2,5.2-0.1,7.9-0.1c1.4,0,2.7,0.2,2.7,2s-1.3,1.9-2.6,1.9c-2.7,0-5.4,0-8,0c-1.5,0-2.1,0.3-2,2
	c0.2,3.5,0.1,7,0.1,10.5c0,0.4-0.1,0.8-0.2,1.2c-0.3,1.2-1.1,1.7-2.3,1.5c-1.2-0.1-1.4-1-1.4-2C79.6,180,79.6,175.2,79.6,170.4
	L79.6,170.4z"/>
<path class="st0" d="M115,167.3c0,4,0,8.1,0,12.1c0,2.8,0.5,3.4,3.3,4c0.2,0,0.4,0.1,0.5,0.1c0.9,0.2,1.8,0.4,1.8,1.6
	c0,1.2-0.8,1.8-1.9,2c-2.7,0.5-6.1-1.6-7-4.4c-0.4-1.1-0.6-2.2-0.6-3.3c0-8.1,0-16.2,0-24.3c0-0.2,0-0.5,0-0.7
	c0.1-1.2,0.6-2.1,1.9-2.2c1.3,0,1.9,0.9,2,2.1c0.1,0.7,0,1.4,0,2.1C115,160.1,115,163.7,115,167.3z"/>
<path class="st0" d="M101.8,174.7c0-3,0-6.1,0-9.1c0-2,0.8-3,2.3-3s2.3,1,2.3,3c0,6,0,12,0,18c0,0.2,0,0.5,0,0.7
	c-0.2,1.4-0.6,2.6-2.2,2.8c-1.2,0.1-2.3-1.2-2.3-2.9C101.8,181,101.8,177.8,101.8,174.7L101.8,174.7z"/>
<path class="st0" d="M107.5,155c0,2.4-1.1,3.6-3.4,3.6c-2,0-3.7-1.6-3.7-3.5c0-1.7,1.9-3.6,3.6-3.5C106.1,151.6,107.5,153,107.5,155
	z"/>
<path class="st0" d="M168.6,183.7c0-1.8,1.9-3.6,3.6-3.5c1.7,0.1,3.6,2.1,3.5,3.7c-0.1,1.8-1.8,3.6-3.6,3.6
	C170.2,187.4,168.6,185.6,168.6,183.7z"/>
<path class="st1" d="M110.4,31.7c0.7,6.6-6.8,13.5-13.3,13.3c-7.6-0.2-13.5-6.9-13.4-13.4c0.2-8,6.3-13.1,13.5-13.3
	C103.5,18.1,110.9,23.8,110.4,31.7z M100.3,31.6c0-1.5-1.7-3.2-3.2-3.1c-1.3,0-3,1.8-3.1,3c0,1.2,1.9,3.2,3.1,3.3
	C98.6,34.9,100.3,33.1,100.3,31.6z"/>
</svg>
