<?xml version="1.0" encoding="utf-8"?>
<!-- Generator: Adobe Illustrator 24.0.1, SVG Export Plug-In . SVG Version: 6.00 Build 0)  -->
<svg version="1.1" id="圖層_1" xmlns="http://www.w3.org/2000/svg" xmlns:xlink="http://www.w3.org/1999/xlink" x="0px" y="0px"
	 viewBox="0 0 200 200" style="enable-background:new 0 0 200 200;" xml:space="preserve">
<style type="text/css">
	.st0{fill:#0064A9;}
	.st1{fill:#4D4D4D;}
</style>
<g>
	<path class="st0" d="M58.3,35.5c2.1,0,3.8-1.7,3.8-3.8c0-2.1-1.7-3.8-3.8-3.8H43.2c-2.1,0-3.8,1.7-3.8,3.8c0,2.1,1.7,3.8,3.8,3.8
		H58.3z M155.8,44.8H43.1c-1,0-1.9,0.8-1.9,1.9c0,1,0.8,1.9,1.9,1.9h112.7c1,0,1.9-0.8,1.9-1.9C157.7,45.7,156.8,44.8,155.8,44.8z
		 M158.2,34h-80L63.4,19.2c-0.4-0.4-0.8-0.6-1.3-0.6H40.7c-6.4,0-11.6,5.2-11.6,11.5l0,33.5l3.8,3.8l0-37.3c0-4.3,3.5-7.8,7.8-7.8
		h20.6l14.8,14.8c0.4,0.4,0.8,0.6,1.3,0.6h80.8c4.3,0,7.8,3.5,7.8,7.8v7.3h3.8v-7.3C169.8,39.2,164.6,34,158.2,34z"/>
	<path class="st1" d="M143.8,24.7c3.6,0,6.7,2.3,7.8,5.5h6.6c0.4,0,0.8,0.1,1.1,0.1c-1.3-7.5-7.7-13.2-15.6-13.2H66.8l7.5,7.5H143.8
		z M199.1,72.4c0-8.7-7.1-15.8-15.8-15.8H57.2c-8.7,0-15.9,7.1-15.9,15.8l0,8.7L9.4,49.3l0-16.3c0-4.6,3.7-8.3,8.3-8.3h8.6
		c1.2-3.1,3.4-5.8,6.2-7.5H17.8C9,17.2,1.9,24.3,1.9,33l0,95.3c0,3.6,1.2,7,3.5,9.9c0,0.1,0.1,0.1,0.1,0.1c0,0.1,0.1,0.1,0.1,0.2
		l39.6,39.6c2.9,3.3,7.1,5.4,11.9,5.4h126.1c8.7,0,15.9-7.1,15.9-15.8L199.1,72.4z M11.2,133.4c-0.8-1.1-1.8-2.8-1.8-5.1l0-68.4
		l31.8,31.8c0,0,0,0,0.1,0l0,71.7L11.2,133.4z M183.2,176H57.2c-2.2,0-4.1-0.9-5.6-2.2c-0.1-0.1-0.1-0.2-0.2-0.3l-0.8-0.8
		c-1.1-1.4-1.7-3.1-1.7-5l0-95.3c0-4.6,3.7-8.3,8.3-8.3h126.1c4.6,0,8.3,3.7,8.3,8.3l0,95.3C191.6,172.3,187.9,176,183.2,176z"/>
	<path class="st0" d="M139.3,101.2c0,12.1-8.5,21.9-19.1,21.9c-10.5,0-19.1-9.8-19.1-21.9c0-12.1,8.5-21.9,19.1-21.9
		C130.8,79.3,139.3,89.1,139.3,101.2z"/>
	<path class="st0" d="M131.5,126.1L120.7,137l-11.5-10.9c-15.6,2.6-23.6,9.1-23.6,33.8h69.3C154.9,135.3,147,128.8,131.5,126.1z"/>
</g>
</svg>
