<?xml version="1.0" encoding="utf-8"?>
<!-- Generator: Adobe Illustrator 24.0.1, SVG Export Plug-In . SVG Version: 6.00 Build 0)  -->
<svg version="1.1" id="圖層_1" xmlns="http://www.w3.org/2000/svg" xmlns:xlink="http://www.w3.org/1999/xlink" x="0px" y="0px"
	 viewBox="0 0 200 200" style="enable-background:new 0 0 200 200;" xml:space="preserve">
<style type="text/css">
	.st0{fill:#FFFFFF;}
	.st1{fill:#4D4D4D;}
	.st2{fill:#FFFFFF;stroke:#000000;stroke-miterlimit:10;}
	.st3{fill:#0064A9;}
</style>
<g>
	<g>
		<path class="st0" d="M89.7,86.2l-48,48l42.5,44.1l21.3-21.3c4.9-4.9,15,2.6,21.9-4.4c6.9-6.9,7.2-7.2,7.2-7.2l7.2-7.2L89.7,86.2z"
			/>
		<path class="st1" d="M84.1,182.8l-46.8-48.6l52.4-52.4l56.5,56.5l-16.6,16.6c-4.8,4.8-10.8,4.2-15.2,3.7c-3.4-0.3-5.5-0.5-6.7,0.6
			L84.1,182.8z M46,134.3L84.2,174l19.1-19.1c3.3-3.3,7.8-2.8,11.7-2.4c4.7,0.5,7.7,0.6,10.2-2l12.2-12.2L89.7,90.6L46,134.3z"/>
	</g>
	<g>
		<path class="st0" d="M121.4,62.3l-6.6-6.6c-2.4-2.4-6.3-2.4-8.8,0L92.9,68.9l15.3,15.3l13.1-13.1
			C123.9,68.6,123.9,64.7,121.4,62.3z"/>
	</g>
	<g>
		<path class="st1" d="M110.5,86.4l-4.4-4.4l13.1-13.1c1.2-1.2,1.2-3.2,0-4.4l-6.6-6.6c-1.2-1.2-3.2-1.2-4.4,0L95.1,71.1l-4.4-4.4
			l13.1-13.1c3.6-3.6,9.5-3.6,13.1,0l6.6,6.6c3.6,3.6,3.6,9.5,0,13.1L110.5,86.4z"/>
	</g>
	<g>
		<path class="st0" d="M141.2,73.2l-6.6-6.6c-2.4-2.4-6.3-2.4-8.8,0l-17.5,17.5l15.3,15.3L141.2,82
			C143.6,79.6,143.6,75.7,141.2,73.2z"/>
	</g>
	<g>
		<path class="st1" d="M125.8,101.7l-4.4-4.4L139,79.8c1.2-1.2,1.2-3.2,0-4.4l-6.6-6.6c-1.2-1.2-3.2-1.2-4.4,0l-17.5,17.5l-4.4-4.4
			l17.5-17.5c3.5-3.5,9.6-3.5,13.1,0l6.6,6.6c1.8,1.8,2.7,4.1,2.7,6.6c0,2.5-1,4.8-2.7,6.6L125.8,101.7z"/>
	</g>
	<g>
		<path class="st0" d="M156.8,97c2.2-2.2,2.1-6-0.3-8.4l-6.6-6.6c-2.4-2.4-6.2-2.6-8.4-0.3l-18.2,18.2c-2.2,2.2-2.1,6,0.3,8.4
			l6.6,6.6c2.4,2.4,6.2,2.6,8.4,0.3L156.8,97z"/>
		<path class="st1" d="M134.7,119.9c-0.1,0-0.2,0-0.4,0c-2.4-0.1-4.6-1.1-6.4-2.8l-6.6-6.6c-3.6-3.6-3.8-9.4-0.3-12.8l18.2-18.2
			c1.7-1.7,4-2.6,6.5-2.5c2.4,0.1,4.6,1.1,6.4,2.8l6.6,6.6c3.6,3.6,3.8,9.4,0.3,12.8h0l-18.2,18.2
			C139.2,119,137.1,119.9,134.7,119.9z M145.4,83.2c-0.7,0-1.3,0.2-1.7,0.7l-18.2,18.2c-1,1-0.9,2.8,0.3,4l6.6,6.6
			c0.6,0.6,1.4,1,2.2,1c0.7,0,1.4-0.2,1.8-0.7l18.2-18.2c1-1,0.9-2.8-0.3-4l-6.6-6.6c-0.6-0.6-1.4-1-2.2-1
			C145.5,83.2,145.4,83.2,145.4,83.2z"/>
	</g>
	<g>
		<path class="st2" d="M166,114.6c2-2,2-5.4,0-7.5l-5.6-5.6c-2.1-2.1-5.4-2.1-7.5,0l-16.7,16.7c-2,2-2,5.4,0,7.5l5.6,5.6
			c2.1,2.1,5.4,2.1,7.5,0L166,114.6z"/>
		<path class="st1" d="M145.6,135.9c-2.2,0-4.3-0.8-6-2.5l-5.6-5.6c-3.3-3.3-3.3-8.6,0-11.8l16.7-16.7c3.3-3.3,8.6-3.2,11.8,0
			l5.6,5.6c1.6,1.6,2.5,3.7,2.5,5.9c0,2.2-0.8,4.4-2.4,5.9l-16.7,16.7C149.9,135.1,147.7,135.9,145.6,135.9z M156.5,103.1
			c-0.5,0-1.1,0.2-1.5,0.6l-16.7,16.7c-0.8,0.8-0.8,2.2,0,3.1l5.6,5.6c0.9,0.9,2.2,0.9,3.1,0l16.7-16.7c0.4-0.4,0.6-0.9,0.6-1.5
			c0-0.6-0.2-1.1-0.7-1.6l-5.6-5.6C157.7,103.3,157.1,103.1,156.5,103.1z"/>
	</g>
	<g>
		<g>
			<path class="st3" d="M168.2,174.6c-4.7,0-9.1-1.8-12.4-5.1L56.5,70.3c-2.5,0.6-5,0.9-7.5,0.9c-8.7,0-17-3.4-23.2-9.7
				C16,51.7,13.4,36.6,19.4,24l1.9-4c0.3-0.6,0.8-1,1.5-1.1c0.1,0,0.2,0,0.3,0c0.5,0,1,0.2,1.4,0.6l15.9,15.9l5.9-5.9L30.4,13.5
				c-0.5-0.5-0.7-1.1-0.6-1.8c0.1-0.6,0.5-1.2,1.1-1.5l4-1.9c4.5-2.1,9.2-3.2,14.2-3.2c8.8,0,17.1,3.4,23.3,9.6
				c8.2,8.2,11.4,19.6,8.8,30.7l99.3,99.1c3.3,3.3,5.1,7.7,5.1,12.4c0,4.7-1.8,9.1-5.1,12.4C177.2,172.8,172.9,174.6,168.2,174.6
				C168.2,174.6,168.2,174.6,168.2,174.6z M58.8,59c0.5,0,1,0.2,1.4,0.6L163,162.2c1.3,1.3,3.2,2,5.2,2s3.9-0.7,5.2-2
				c1.4-1.4,2.1-3.2,2.1-5.2c0-1.9-0.8-3.8-2.1-5.2L70.6,49.3c-0.5-0.5-0.7-1.3-0.5-2.1l0.6-1.8c2.8-8.3,0.7-17.2-5.5-23.4
				c-4.3-4.3-10-6.6-16.1-6.6c-0.8,0-1.5,0-2.3,0.1L59.3,28c0.8,0.8,0.8,2,0,2.8L41.8,48.4c-0.4,0.4-0.9,0.6-1.4,0.6s-1-0.2-1.4-0.6
				L26.5,35.9c-0.7,6.7,1.7,13.5,6.5,18.4c4.3,4.3,10,6.7,16,6.7c0,0,0,0,0,0c2.5,0,5-0.4,7.3-1.2l1.8-0.6
				C58.4,59.1,58.6,59,58.8,59z"/>
			<path class="st3" d="M49.1,7.2c8,0,16,3.1,21.9,9c7.9,7.9,10.9,19.2,8,29.9l100.1,99.9c2.9,2.9,4.5,6.8,4.5,11
				c0,4.1-1.6,8-4.5,11c-3,3-7,4.5-11,4.5c-4,0-7.9-1.5-11-4.5L57.1,68.1c-2.7,0.7-5.4,1.1-8.1,1.1c-8.1,0-15.9-3.2-21.8-9.1
				c-9.3-9.3-11.7-23.4-6-35.2l1.9-4l17.3,17.3l8.8-8.8L31.8,12.1l4-1.9C40,8.2,44.6,7.2,49.1,7.2 M40.4,47L25.2,31.8
				c-2.3,8.4,0.1,17.6,6.4,23.9c4.7,4.7,11,7.3,17.4,7.3c2.7,0,5.4-0.4,8-1.3l1.8-0.6l102.8,102.6c1.8,1.8,4.2,2.6,6.6,2.6
				c2.4,0,4.8-0.9,6.6-2.6c1.8-1.8,2.7-4.1,2.7-6.6c0-2.5-1-4.8-2.7-6.6L72,47.9l0.6-1.8c3-9,0.7-18.7-5.9-25.4
				c-4.7-4.7-11.1-7.2-17.5-7.2c-2.1,0-4.3,0.3-6.4,0.8l15.2,15.2L40.4,47 M49.1,3.2C49.1,3.2,49.1,3.2,49.1,3.2
				c-5.3,0-10.3,1.1-15.1,3.4l-4,1.9c-1.2,0.6-2,1.7-2.2,2.9C27.7,12.7,28.1,14,29,15l14.5,14.5l-3.1,3.1L25.9,18.1
				c-0.8-0.8-1.8-1.2-2.8-1.2c-0.2,0-0.5,0-0.7,0.1c-1.3,0.2-2.4,1-2.9,2.2l-1.9,4c-6.4,13.4-3.6,29.3,6.8,39.8
				C31,69.5,39.7,73.2,49,73.2c2.3,0,4.6-0.2,6.8-0.7l98.5,98.4c3.7,3.7,8.6,5.7,13.8,5.7c5.2,0,10.1-2,13.8-5.7
				c3.7-3.7,5.7-8.6,5.7-13.8c0-5.2-2-10.1-5.7-13.8L83.4,44.9c2.3-11.5-1.2-23.1-9.6-31.5C67.3,6.9,58.5,3.2,49.1,3.2L49.1,3.2z
				 M40.4,51c1,0,2-0.4,2.8-1.2l17.5-17.5c1.6-1.6,1.6-4.1,0-5.7l-9-9c4.6,0.6,8.8,2.6,12.1,5.9c5.6,5.6,7.5,13.8,5,21.3l-0.6,1.8
				c-0.5,1.4-0.1,3,1,4.1l102.8,102.6c1,1,1.5,2.3,1.5,3.7c0,1.4-0.6,2.7-1.6,3.7c-0.9,0.9-2.3,1.5-3.7,1.5c-1.5,0-2.8-0.5-3.7-1.5
				L61.7,58.2c-0.8-0.8-1.8-1.2-2.8-1.2c-0.4,0-0.9,0.1-1.3,0.2l-1.8,0.6C53.6,58.6,51.3,59,49,59c-5.5,0-10.7-2.2-14.6-6.1
				c-3.3-3.3-5.3-7.6-5.9-12.1l9,9C38.3,50.6,39.3,51,40.4,51L40.4,51z"/>
		</g>
	</g>
	<path class="st0" d="M75.5,47.1c3.3-9.7,1-20.9-6.7-28.6C60.3,9.9,47.5,8.1,37.1,13l16.4,16.4L40.4,42.6L24,26.2
		c-4.9,10.4-3.2,23.1,5.4,31.7c7.7,7.7,18.9,9.9,28.6,6.7l101.4,101.3c4.8,4.8,12.7,4.8,17.5,0h0c4.8-4.8,4.8-12.7,0-17.5L75.5,47.1
		z"/>
	<g>
		<path class="st0" d="M102.7,65.5c-3.8-3.8-7.7-5.9-13.8-5c-6,0.9-15.7,1.9-19.1,4.4c-3.4,2.5-6.4,14.8-6.4,24.3
			c0,11.5-0.4,22.7-2.9,25.1l-20.3,20.3l52.4-4.5c12.3-12.3,10.5-33.4,0.4-43.5c1.9,1.9,9,9,13.9,13.9c9.9,9.9,24.8,2.8,27.2-3.5
			C131.1,93.9,102.7,65.5,102.7,65.5z"/>
	</g>
	<g>
		<path class="st1" d="M42.6,136.8l-4.4-4.4l20.3-20.3c0.7-0.9,1.9-5.2,1.9-22.9c0-8.9,2.7-23.1,7.6-26.8c3.2-2.4,9.5-3.4,17.4-4.5
			c1.1-0.1,2.1-0.3,3-0.4c8.2-1.2,13.1,2.5,16.4,5.8l32.9,32.9l-0.7,1.9c-1.7,4.5-7.4,8.6-13.7,9.9c-7,1.5-13.6-0.4-18.5-5.4l-1-1
			c0.3,1.9,0.5,3.8,0.6,5.7c0.2,9.7-3.2,18.5-9.5,24.9l-4.4-4.4c5.1-5.1,7.9-12.4,7.7-20.3c-0.2-7.4-2.9-14.4-7.3-18.8l4.4-4.4
			l13.9,13.9c4.4,4.4,9.4,4.4,12.9,3.7c3.6-0.8,6.6-2.7,8.2-4.5l-29.8-29.8c-3.7-3.7-6.7-4.8-11.1-4.1c-1,0.1-2,0.3-3.1,0.4
			c-4.9,0.7-12.4,1.7-14.6,3.4c-2,1.4-5.1,12-5.1,21.8c0,19.6-1.4,25-3.8,27.3L42.6,136.8z"/>
	</g>
	<g>
		
			<rect x="21.7" y="142.8" transform="matrix(0.7073 0.7069 -0.7069 0.7073 128.71 2.6984)" class="st0" width="78.9" height="27.9"/>
		<path class="st1" d="M79.1,198.9L19,138.8l24.1-24.1l60.2,60.1L79.1,198.9z M27.7,138.8l51.4,51.4l15.3-15.3l-51.4-51.4
			L27.7,138.8z"/>
	</g>
	<g>
		
			<rect x="43.2" y="134" transform="matrix(0.7071 -0.7071 0.7071 0.7071 -85.8406 73.921)" class="st1" width="6.2" height="13.1"/>
	</g>
</g>
</svg>
